<svg width="65" height="68" viewBox="0 0 65 68" fill="none" xmlns="http://www.w3.org/2000/svg">
<path d="M45.4727 11.2583L58.4727 33.775L45.4871 56.2833L19.5015 56.275L6.50151 33.7583L19.4871 11.25L45.4727 11.2583Z" fill="#3B5998"/>
<path d="M29.2324 44.8916V35.499H26.0742V31.7666H29.2324V28.8135C29.2324 27.2549 29.6699 26.0518 30.5449 25.2041C31.4199 24.3291 32.582 23.8916 34.0312 23.8916C35.207 23.8916 36.1641 23.9463 36.9023 24.0557V27.3779H34.9336C34.1953 27.3779 33.6895 27.542 33.416 27.8701C33.1973 28.1436 33.0879 28.5811 33.0879 29.1826V31.7666H36.5742L36.082 35.499H33.0879V44.8916H29.2324Z" fill="white"/>
</svg>
