<svg width="65" height="68" viewBox="0 0 65 68" fill="none" xmlns="http://www.w3.org/2000/svg">
<path d="M45.4727 11.2583L58.4727 33.775L45.4871 56.2833L19.5015 56.275L6.50151 33.7583L19.4871 11.25L45.4727 11.2583Z" fill="#0088CC"/>
<path d="M40.6348 27.9521L37.8457 40.9951C37.7363 41.46 37.5449 41.7607 37.2715 41.8975C37.0254 42.0068 36.7109 41.9521 36.3281 41.7334L32.1035 38.6162L30.0527 40.585C29.916 40.7217 29.8066 40.8174 29.7246 40.8721C29.5879 40.9541 29.4102 40.9951 29.1914 40.9951L29.5195 36.6885L37.3535 29.5928C37.4629 29.5107 37.4902 29.4424 37.4355 29.3877C37.4082 29.3057 37.3262 29.2783 37.1895 29.3057C37.0801 29.3057 36.957 29.3467 36.8203 29.4287L27.1406 35.54L22.957 34.2275C22.4922 34.0908 22.2734 33.8857 22.3008 33.6123C22.3281 33.3389 22.6152 33.0928 23.1621 32.874L39.4453 26.5986C39.8555 26.4619 40.1836 26.5166 40.4297 26.7627C40.6758 26.9814 40.7441 27.3779 40.6348 27.9521Z" fill="white"/>
</svg>
