<svg width="65" height="68" viewBox="0 0 65 68" fill="none" xmlns="http://www.w3.org/2000/svg">
<path d="M45.4727 11.2583L58.4727 33.775L45.4871 56.2833L19.5015 56.275L6.50151 33.7583L19.4871 11.25L45.4727 11.2583Z" fill="#45668E"/>
<path d="M42.0293 28.7314C42.1934 28.1299 41.9473 27.8291 41.291 27.8291H38.8711C38.3789 27.8291 38.0371 28.0615 37.8457 28.5264L37.4355 29.3467C37.1074 30.0576 36.7656 30.7139 36.4102 31.3154C35.8906 32.1631 35.3711 32.874 34.8516 33.4482C34.5781 33.749 34.3594 33.9541 34.1953 34.0635C34.0312 34.1455 33.8809 34.1865 33.7441 34.1865C33.6348 34.1865 33.5391 34.1318 33.457 34.0225C33.375 33.9131 33.334 33.7354 33.334 33.4893V28.7314C33.334 28.4033 33.2793 28.1709 33.1699 28.0342C33.0879 27.8975 32.9238 27.8291 32.6777 27.8291H28.8633C28.6992 27.8291 28.5488 27.8838 28.4121 27.9932C28.3027 28.1025 28.248 28.2393 28.248 28.4033C28.248 28.54 28.3438 28.7314 28.5352 28.9775C28.7266 29.1963 28.8633 29.4014 28.9453 29.5928C29.1094 29.9209 29.2051 30.3037 29.2324 30.7412V34.3096C29.2324 34.665 29.1914 34.9111 29.1094 35.0479C29.0547 35.1572 28.9453 35.2119 28.7812 35.2119C28.5078 35.2119 28.125 34.9111 27.6328 34.3096C27.1406 33.708 26.6484 32.9287 26.1562 31.9717C25.6094 30.9326 25.1445 29.8662 24.7617 28.7725C24.6523 28.417 24.5156 28.1709 24.3516 28.0342C24.2148 27.8975 23.9961 27.8291 23.6953 27.8291H21.2754C20.7285 27.8291 20.4551 28.0615 20.4551 28.5264C20.4551 28.7998 20.5508 29.2783 20.7422 29.9619C21.043 30.8096 21.4395 31.7256 21.9316 32.71C22.5605 33.9951 23.3398 35.2666 24.2695 36.5244C25.2539 37.9463 26.4023 39.04 27.7148 39.8057C29.0273 40.5713 30.3262 40.9541 31.6113 40.9541C32.3496 40.9541 32.8418 40.8721 33.0879 40.708C33.2793 40.5713 33.3613 40.3389 33.334 40.0107V38.9443C33.334 38.2881 33.3477 37.8643 33.375 37.6729C33.375 37.3994 33.416 37.2217 33.498 37.1396C33.6074 37.0576 33.7715 37.0166 33.9902 37.0166C34.5098 37.0166 35.3164 37.5361 36.4102 38.5752C36.7383 38.9033 37.1074 39.3135 37.5176 39.8057C37.9551 40.2705 38.2559 40.5576 38.4199 40.667C38.666 40.8584 38.9395 40.9541 39.2402 40.9541H41.6602C41.9883 40.9541 42.2207 40.8721 42.3574 40.708C42.5215 40.5166 42.5625 40.2568 42.4805 39.9287C42.2344 39.1631 41.127 37.7686 39.1582 35.7451L38.7891 35.335C38.625 35.1436 38.543 34.9795 38.543 34.8428C38.543 34.7061 38.625 34.5146 38.7891 34.2686C38.8164 34.2412 39.0762 33.8721 39.5684 33.1611C40.1426 32.2588 40.6348 31.4658 41.0449 30.7822C41.6191 29.8252 41.9473 29.1416 42.0293 28.7314Z" fill="white"/>
</svg>
