<svg width="65" height="65" viewBox="0 0 65 65" fill="none" xmlns="http://www.w3.org/2000/svg">
<path d="M33.5011 54.0325H31.3398V56.1938H33.5011V54.0325Z" fill="#4F4F4F"/>
<path d="M63.758 56.1935H62.6774V17.2903C62.6774 14.903 60.7421 12.9677 58.3548 12.9677H51.871V4.32258C51.871 1.9353 49.9357 0 47.5484 0H17.2903C14.903 0 12.9677 1.9353 12.9677 4.32258V12.9677H6.48387C4.09659 12.9677 2.16129 14.903 2.16129 17.2903V56.1935H1.08064C0.483859 56.1935 0 56.6774 0 57.2742V60.5161C0 62.9034 1.9353 64.8387 4.32258 64.8387H60.5161C62.9034 64.8387 64.8387 62.9034 64.8387 60.5161V57.2742C64.8387 56.6774 64.3548 56.1935 63.758 56.1935ZM15.129 4.32258C15.129 3.12887 16.0966 2.16129 17.2903 2.16129H47.5484C48.7421 2.16129 49.7097 3.12887 49.7097 4.32258V8.64516H15.129V4.32258ZM15.129 10.8064H49.7097V42.1451C49.7097 43.3389 48.7421 44.3064 47.5484 44.3064H17.2903C16.0966 44.3064 15.129 43.3389 15.129 42.1451V10.8064ZM17.2903 46.4677H47.5484C49.9357 46.4677 51.871 44.5324 51.871 42.1451V19.4516H56.1935V49.7097H8.64516V19.4516H12.9677V42.1451C12.9677 44.5324 14.903 46.4677 17.2903 46.4677ZM4.32258 17.2903C4.32258 16.0966 5.29016 15.129 6.48387 15.129H12.9677V17.2903H7.56451C6.96773 17.2903 6.48387 17.7742 6.48387 18.371V50.7903C6.48387 51.3871 6.96773 51.871 7.56451 51.871H57.2742C57.871 51.871 58.3548 51.3871 58.3548 50.7903V18.371C58.3548 17.7742 57.871 17.2903 57.2742 17.2903H51.871V15.129H58.3548C59.5485 15.129 60.5161 16.0966 60.5161 17.2903V56.1935H42.1451C41.8588 56.1933 41.5839 56.3069 41.3811 56.5091L39.5365 58.3548H25.3022L23.4576 56.5091C23.2548 56.3069 22.9799 56.1933 22.6935 56.1935H4.32258V17.2903ZM62.6774 60.5161C62.6774 61.7098 61.7098 62.6774 60.5161 62.6774H4.32258C3.12887 62.6774 2.16129 61.7098 2.16129 60.5161V58.3548H22.2462L24.0908 60.1995C24.2934 60.4021 24.5682 60.5161 24.8548 60.5161H39.9839C40.2705 60.5161 40.5453 60.4021 40.7479 60.1995L42.5925 58.3548H62.6774V60.5161Z" fill="#4F4F4F"/>
<path d="M46.4679 34.5811H18.3711V36.7423H46.4679V34.5811Z" fill="#4F4F4F"/>
<path d="M44.3066 38.9038H18.3711V41.0651H44.3066V38.9038Z" fill="#4F4F4F"/>
<path d="M46.4684 30.2581H24.8555V32.4193H46.4684V30.2581Z" fill="#4F4F4F"/>
<path d="M19.4504 4.32288H17.2891V6.48417H19.4504V4.32288Z" fill="#4F4F4F"/>
<path d="M23.7746 4.32288H21.6133V6.48417H23.7746V4.32288Z" fill="#4F4F4F"/>
<path d="M28.0988 4.32288H25.9375V6.48417H28.0988V4.32288Z" fill="#4F4F4F"/>
<path d="M22.6964 30.2581H20.5352V32.4193H22.6964V30.2581Z" fill="#4F4F4F"/>
<path d="M28.747 18.1549L27.4502 16.4259L23.1277 19.6678C22.6501 20.0259 22.5534 20.7032 22.9115 21.1807C22.973 21.2626 23.0458 21.3354 23.1277 21.3969L27.4502 24.6388L28.747 22.9098L25.5775 20.5324L28.747 18.1549Z" fill="#4F4F4F"/>
<path d="M41.9292 19.884C41.8678 19.8021 41.795 19.7293 41.7131 19.6678L37.3905 16.4259L36.0938 18.1549L39.2633 20.5324L36.0938 22.9098L37.3905 24.6388L41.7131 21.3969C42.1906 21.0388 42.2873 20.3615 41.9292 19.884Z" fill="#4F4F4F"/>
<path d="M33.5776 14.7299L29.2539 25.5352L31.2604 26.3381L35.5842 15.5329L33.5776 14.7299Z" fill="#4F4F4F"/>
</svg>
