<svg width="94" height="97" viewBox="0 0 94 97" fill="none" xmlns="http://www.w3.org/2000/svg">
<path opacity="0.2" d="M36.0521 46.0886L56.2293 46.0886L66.3179 63.5626L56.2293 81.0366L36.0521 81.0366L25.9635 63.5626L36.0521 46.0886Z" fill="#333333"/>
<path d="M79.6424 21.844H76.2587V19.6681L78.3699 17.343C79.466 16.136 80.0694 14.5735 80.0694 12.9431V7.42909C80.0694 3.5735 76.9325 0.436768 73.077 0.436768H69.8606C66.0051 0.436768 62.8683 3.57366 62.8683 7.42909V12.9431C62.8683 14.5735 63.472 16.1362 64.5677 17.343L66.6792 19.6684V21.844H63.2955C60.0083 21.844 57.2533 24.1612 56.5746 27.2479C56.2291 27.1996 55.8769 27.1729 55.5184 27.1729H51.555V24.5112L53.9728 21.8488C55.1815 20.5175 55.8473 18.794 55.8473 16.9958V10.7853C55.8473 6.52676 52.3828 3.06262 48.1245 3.06262C47.4571 3.06262 46.9164 3.60333 46.9164 4.2707C46.9164 4.93807 47.4571 5.47878 48.1245 5.47878C51.0506 5.47878 53.4311 7.85915 53.4311 10.7853V16.9956C53.4311 18.1921 52.9882 19.3387 52.1841 20.2243L49.6945 22.9662C49.3605 23.1811 49.1392 23.556 49.1392 23.9829V28.3811C49.1392 29.0485 49.6799 29.5892 50.3473 29.5892H55.5188C58.3764 29.5892 60.7016 31.9142 60.7016 34.772V42.3526H31.925V34.772C31.925 32.5439 33.3386 30.64 35.3156 29.9089C35.4085 29.8895 35.497 29.8585 35.5807 29.819C36.0636 29.6699 36.5765 29.589 37.1077 29.589H42.2792C42.9464 29.589 43.4872 29.0483 43.4872 28.381V23.9828C43.4872 23.556 43.2659 23.1809 42.9319 22.966L40.4423 20.2242C39.6381 19.3385 39.195 18.1918 39.195 16.9955V10.7853C39.195 7.85931 41.5754 5.47878 44.5016 5.47878C45.1689 5.47878 45.7097 4.93807 45.7097 4.2707C45.7097 3.60333 45.1689 3.06262 44.5016 3.06262C40.2431 3.06262 36.7788 6.52692 36.7788 10.7853V16.9956C36.7788 18.7937 37.4446 20.5172 38.6534 21.8487L41.0708 24.5109V27.1727H37.1074C36.7697 27.1727 36.4379 27.1971 36.1119 27.2401C35.4304 24.1573 32.6776 21.844 29.393 21.844H26.0094V19.6681L28.1206 17.343C29.2166 16.136 29.8201 14.5735 29.8201 12.9431V7.42909C29.8201 3.5735 26.6832 0.436768 22.8276 0.436768H19.6116C15.756 0.436768 12.6193 3.57366 12.6193 7.42909V12.9431C12.6193 14.5735 13.2228 16.1362 14.3188 17.343L16.4302 19.6683V21.844H13.0465C9.25152 21.844 6.16406 24.9314 6.16406 28.7264V36.5296C6.16406 37.1969 6.70493 37.7377 7.37214 37.7377H26.1687C26.8359 37.7377 27.3768 37.1969 27.3768 36.5296C27.3768 35.8622 26.8359 35.3215 26.1687 35.3215H8.58022V28.7264C8.58022 26.2638 10.5837 24.2601 13.0465 24.2601H17.6382C18.3054 24.2601 18.8463 23.7194 18.8463 23.052V19.147C18.8463 18.7268 18.6318 18.3567 18.3062 18.1403L16.1075 15.7188C15.4161 14.9574 15.0353 13.9717 15.0353 12.9432V7.42909C15.0353 4.90574 17.0881 2.85293 19.6115 2.85293H22.8278C25.3511 2.85293 27.4041 4.90574 27.4041 7.42909V12.9431C27.4041 13.9716 27.0233 14.9574 26.3319 15.7187L24.133 18.1403C23.8076 18.3567 23.5932 18.7268 23.5932 19.1469V23.0519C23.5932 23.7193 24.1341 24.26 24.8013 24.26H29.393C31.5865 24.26 33.4144 25.8498 33.7881 27.9374C31.2569 29.1717 29.5087 31.7709 29.5087 34.7715V43.5602C29.5087 44.2276 30.0496 44.7683 30.7168 44.7683H61.9093C62.5767 44.7683 63.1174 44.2276 63.1174 43.5602V34.7715C63.1174 31.7939 61.3951 29.2124 58.8952 27.9668C59.2569 25.8648 61.0917 24.26 63.2955 24.26H67.8873C68.5546 24.26 69.0953 23.7193 69.0953 23.0519V19.1469C69.0953 18.7265 68.8808 18.3564 68.5551 18.14L66.3565 15.7187C65.6651 14.9574 65.2845 13.9716 65.2845 12.9431V7.42909C65.2845 4.90574 67.3373 2.85293 69.8606 2.85293H73.077C75.6003 2.85293 77.6533 4.90574 77.6533 7.42909V12.9431C77.6533 13.9716 77.2725 14.9574 76.5811 15.7187L74.3823 18.1403C74.0568 18.3567 73.8424 18.7268 73.8424 19.1469V23.0519C73.8424 23.7193 74.3831 24.26 75.0505 24.26H79.6422C82.1048 24.26 84.1085 26.2635 84.1085 28.7263V35.3213H66.7278C66.0605 35.3213 65.5197 35.862 65.5197 36.5294C65.5197 37.1968 66.0605 37.7375 66.7278 37.7375H85.3166C85.984 37.7375 86.5247 37.1968 86.5247 36.5294V28.7263C86.5248 24.9314 83.4374 21.844 79.6424 21.844Z" fill="#4F4F4F"/>
<path d="M6.87164 58.9279L12.3327 49.469L23.2549 49.469L28.716 58.9279L23.2549 68.3868L12.3327 68.3868L6.87164 58.9279Z" stroke="#4F4F4F" stroke-width="3"/>
<path d="M65.1724 58.9086L70.6335 49.4497L81.5557 49.4497L87.0168 58.9086L81.5557 68.3675L70.6335 68.3675L65.1724 58.9086Z" stroke="#4F4F4F" stroke-width="3"/>
<path d="M33.7151 76.5079L40.3497 65.0164L53.619 65.0164L60.2536 76.5079L53.619 87.9995L40.3497 87.9995L33.7151 76.5079Z" stroke="#4F4F4F" stroke-width="3"/>
</svg>
