<svg width="403" height="97" viewBox="0 0 403 97" fill="none" xmlns="http://www.w3.org/2000/svg">
<path d="M265.938 54.5549C264.288 54.5549 262.675 54.3745 261.1 54.0136C259.545 53.6338 258.264 53.1305 257.259 52.5037L259.422 47.6037C260.37 48.1544 261.432 48.6008 262.609 48.9426C263.785 49.2655 264.914 49.4269 265.995 49.4269C266.925 49.4269 267.589 49.3415 267.987 49.1705C268.385 48.9806 268.585 48.7052 268.585 48.3444C268.585 47.9265 268.319 47.6132 267.788 47.4042C267.276 47.1953 266.422 46.9674 265.227 46.7205C263.69 46.3976 262.409 46.0558 261.385 45.6949C260.361 45.3151 259.469 44.7073 258.71 43.8716C257.951 43.017 257.572 41.8679 257.572 40.4245C257.572 39.171 257.923 38.0315 258.625 37.0059C259.327 35.9803 260.37 35.1731 261.755 34.5843C263.159 33.9956 264.857 33.7012 266.849 33.7012C268.215 33.7012 269.552 33.8531 270.861 34.157C272.189 34.4419 273.356 34.8692 274.361 35.439L272.341 40.3105C270.387 39.3229 268.537 38.8291 266.792 38.8291C265.065 38.8291 264.202 39.247 264.202 40.0826C264.202 40.4815 264.458 40.7854 264.971 40.9943C265.483 41.1842 266.327 41.3931 267.503 41.621C269.021 41.9059 270.301 42.2383 271.345 42.6181C272.388 42.979 273.289 43.5773 274.048 44.4129C274.826 45.2486 275.215 46.3881 275.215 47.8316C275.215 49.0851 274.864 50.2246 274.162 51.2502C273.46 52.2568 272.407 53.064 271.003 53.6717C269.618 54.2605 267.93 54.5549 265.938 54.5549Z" fill="#333333"/>
<path d="M298.186 34.157C300.026 34.157 301.629 34.4609 302.995 35.0686C304.361 35.6764 305.414 36.55 306.154 37.6896C306.894 38.8291 307.264 40.1586 307.264 41.678C307.264 43.1974 306.894 44.5269 306.154 45.6664C305.414 46.806 304.361 47.6796 302.995 48.2874C301.629 48.8951 300.026 49.199 298.186 49.199H295.312V54.0991H288.596V34.157H298.186ZM297.759 44.0141C298.67 44.0141 299.353 43.8147 299.808 43.4158C300.263 42.998 300.491 42.4187 300.491 41.678C300.491 40.9373 300.263 40.3675 299.808 39.9687C299.353 39.5509 298.67 39.3419 297.759 39.3419H295.312V44.0141H297.759Z" fill="#333333"/>
<path d="M333.422 50.6235H325.853L324.515 54.0991H317.686L326.394 34.157H332.995L341.703 54.0991H334.76L333.422 50.6235ZM331.573 45.7804L329.638 40.7664L327.703 45.7804H331.573Z" fill="#333333"/>
<path d="M364.181 54.5549C362.075 54.5549 360.178 54.1181 358.49 53.2444C356.801 52.3518 355.473 51.1173 354.506 49.5409C353.557 47.9455 353.083 46.1412 353.083 44.128C353.083 42.1148 353.557 40.32 354.506 38.7437C355.473 37.1483 356.801 35.9138 358.49 35.0401C360.178 34.1475 362.075 33.7012 364.181 33.7012C366.116 33.7012 367.843 34.043 369.36 34.7268C370.878 35.4105 372.13 36.3981 373.117 37.6896L368.877 41.4786C367.643 39.9212 366.192 39.1425 364.523 39.1425C363.119 39.1425 361.99 39.5983 361.136 40.51C360.283 41.4026 359.856 42.6086 359.856 44.128C359.856 45.6474 360.283 46.8629 361.136 47.7746C361.99 48.6672 363.119 49.1136 364.523 49.1136C366.192 49.1136 367.643 48.3349 368.877 46.7775L373.117 50.5665C372.13 51.858 370.878 52.8456 369.36 53.5293C367.843 54.213 366.116 54.5549 364.181 54.5549Z" fill="#333333"/>
<path d="M403 49.0281V54.0991H386.438V34.157H402.63V39.228H393.04V41.5641H401.464V46.4071H393.04V49.0281H403Z" fill="#333333"/>
<path d="M9.58992 34.949C11.4301 34.949 13.0332 35.2529 14.3991 35.8606C15.765 36.4684 16.8179 37.342 17.5578 38.4816C18.2977 39.6211 18.6676 40.9506 18.6676 42.47C18.6676 43.9894 18.2977 45.3189 17.5578 46.4584C16.8179 47.598 15.765 48.4716 14.3991 49.0794C13.0332 49.6871 11.4301 49.991 9.58992 49.991H6.71579V54.8911H0V34.949H9.58992ZM9.16306 44.8061C10.0737 44.8061 10.7566 44.6066 11.212 44.2078C11.6673 43.79 11.8949 43.2107 11.8949 42.47C11.8949 41.7293 11.6673 41.1595 11.212 40.7607C10.7566 40.3428 10.0737 40.1339 9.16306 40.1339H6.71579V44.8061H9.16306Z" fill="#014F7A"/>
<path d="M44.8262 51.4154H37.2567L35.9193 54.8911H29.0897L37.7974 34.949H44.3994L53.1071 54.8911H46.1637L44.8262 51.4154ZM42.9765 46.5724L41.0415 41.5584L39.1064 46.5724H42.9765Z" fill="#014F7A"/>
<path d="M74.0986 49.8771H72.2774V54.8911H65.5616V34.949H75.1516C76.9918 34.949 78.5948 35.2529 79.9607 35.8606C81.3267 36.4684 82.3796 37.342 83.1194 38.4816C83.8593 39.6211 84.2292 40.9506 84.2292 42.47C84.2292 43.8944 83.9067 45.1384 83.2617 46.202C82.6167 47.2656 81.6871 48.1108 80.473 48.7375L84.6561 54.8911H77.485L74.0986 49.8771ZM77.4565 42.47C77.4565 41.7293 77.2289 41.1595 76.7736 40.7607C76.3183 40.3428 75.6353 40.1339 74.7247 40.1339H72.2774V44.8061H74.7247C75.6353 44.8061 76.3183 44.6066 76.7736 44.2078C77.2289 43.79 77.4565 43.2107 77.4565 42.47Z" fill="#014F7A"/>
<path d="M102.195 40.1624H96.3618V34.949H114.745V40.1624H108.911V54.8911H102.195V40.1624Z" fill="#014F7A"/>
<path d="M147.507 34.949V54.8911H141.986L134.417 45.8317V54.8911H127.872V34.949H133.392L140.962 44.0084V34.949H147.507Z" fill="#014F7A"/>
<path d="M178.687 49.8201V54.8911H162.126V34.949H178.317V40.02H168.727V42.356H177.151V47.1991H168.727V49.8201H178.687Z" fill="#014F7A"/>
<path d="M201.192 49.8771H199.371V54.8911H192.655V34.949H202.245C204.085 34.949 205.689 35.2529 207.054 35.8606C208.42 36.4684 209.473 37.342 210.213 38.4816C210.953 39.6211 211.323 40.9506 211.323 42.47C211.323 43.8944 211 45.1384 210.355 46.202C209.71 47.2656 208.781 48.1108 207.567 48.7375L211.75 54.8911H204.579L201.192 49.8771ZM204.55 42.47C204.55 41.7293 204.323 41.1595 203.867 40.7607C203.412 40.3428 202.729 40.1339 201.818 40.1339H199.371V44.8061H201.818C202.729 44.8061 203.412 44.6066 203.867 44.2078C204.323 43.79 204.55 43.2107 204.55 42.47Z" fill="#014F7A"/>
<path d="M232.669 55.3469C231.018 55.3469 229.406 55.1665 227.831 54.8056C226.276 54.4258 224.995 53.9225 223.99 53.2957L226.152 48.3956C227.101 48.9464 228.163 49.3927 229.339 49.7346C230.516 50.0575 231.644 50.2189 232.726 50.2189C233.655 50.2189 234.319 50.1335 234.718 49.9625C235.116 49.7726 235.315 49.4972 235.315 49.1364C235.315 48.7185 235.05 48.4051 234.519 48.1962C234.006 47.9873 233.153 47.7594 231.957 47.5125C230.421 47.1896 229.14 46.8478 228.116 46.4869C227.091 46.1071 226.2 45.4993 225.441 44.6636C224.682 43.809 224.303 42.6599 224.303 41.2165C224.303 39.963 224.654 38.8234 225.355 37.7979C226.057 36.7723 227.101 35.9651 228.486 35.3763C229.89 34.7875 231.588 34.4932 233.579 34.4932C234.945 34.4932 236.283 34.6451 237.592 34.949C238.92 35.2339 240.087 35.6612 241.092 36.231L239.072 41.1025C237.118 40.1149 235.268 39.6211 233.523 39.6211C231.796 39.6211 230.933 40.039 230.933 40.8746C230.933 41.2735 231.189 41.5774 231.701 41.7863C232.214 41.9762 233.058 42.1851 234.234 42.413C235.752 42.6979 237.032 43.0303 238.076 43.4101C239.119 43.771 240.02 44.3692 240.779 45.2049C241.557 46.0406 241.946 47.1801 241.946 48.6236C241.946 49.8771 241.595 51.0166 240.893 52.0422C240.191 53.0488 239.138 53.856 237.734 54.4637C236.349 55.0525 234.661 55.3469 232.669 55.3469Z" fill="#014F7A"/>
<path d="M40.7767 -10L23.7817 62.8045L62.1192 96.8326L40.7767 -10Z" fill="#333333"/>
</svg>
