<svg width="403" height="97" viewBox="0 0 403 97" fill="none" xmlns="http://www.w3.org/2000/svg">
<path d="M265.937 54.5549C264.287 54.5549 262.674 54.3745 261.099 54.0136C259.544 53.6338 258.263 53.1305 257.258 52.5037L259.421 47.6037C260.369 48.1544 261.431 48.6008 262.608 48.9426C263.784 49.2655 264.913 49.4269 265.994 49.4269C266.924 49.4269 267.588 49.3415 267.986 49.1705C268.384 48.9806 268.584 48.7052 268.584 48.3444C268.584 47.9265 268.318 47.6132 267.787 47.4042C267.275 47.1953 266.421 46.9674 265.226 46.7205C263.689 46.3976 262.408 46.0558 261.384 45.6949C260.36 45.3151 259.468 44.7073 258.709 43.8716C257.95 43.017 257.571 41.8679 257.571 40.4245C257.571 39.171 257.922 38.0315 258.624 37.0059C259.326 35.9803 260.369 35.1731 261.754 34.5843C263.158 33.9956 264.856 33.7012 266.848 33.7012C268.214 33.7012 269.551 33.8531 270.86 34.157C272.188 34.4419 273.355 34.8692 274.36 35.439L272.34 40.3105C270.386 39.3229 268.536 38.8291 266.791 38.8291C265.064 38.8291 264.201 39.247 264.201 40.0826C264.201 40.4815 264.457 40.7854 264.97 40.9943C265.482 41.1842 266.326 41.3931 267.502 41.621C269.02 41.9059 270.3 42.2383 271.344 42.6181C272.387 42.979 273.288 43.5773 274.047 44.4129C274.825 45.2486 275.214 46.3881 275.214 47.8316C275.214 49.0851 274.863 50.2246 274.161 51.2502C273.459 52.2568 272.406 53.064 271.002 53.6717C269.618 54.2605 267.929 54.5549 265.937 54.5549Z" fill="#333333"/>
<path d="M298.185 34.157C300.025 34.157 301.628 34.4609 302.994 35.0686C304.36 35.6764 305.413 36.55 306.153 37.6896C306.893 38.8291 307.263 40.1586 307.263 41.678C307.263 43.1974 306.893 44.5269 306.153 45.6664C305.413 46.806 304.36 47.6796 302.994 48.2874C301.628 48.8951 300.025 49.199 298.185 49.199H295.311V54.0991H288.595V34.157H298.185ZM297.758 44.0141C298.669 44.0141 299.352 43.8147 299.807 43.4158C300.262 42.998 300.49 42.4187 300.49 41.678C300.49 40.9373 300.262 40.3675 299.807 39.9687C299.352 39.5509 298.669 39.3419 297.758 39.3419H295.311V44.0141H297.758Z" fill="#333333"/>
<path d="M333.421 50.6235H325.852L324.514 54.0991H317.685L326.393 34.157H332.995L341.702 54.0991H334.759L333.421 50.6235ZM331.572 45.7804L329.637 40.7664L327.702 45.7804H331.572Z" fill="#333333"/>
<path d="M364.18 54.5549C362.074 54.5549 360.177 54.1181 358.489 53.2444C356.8 52.3518 355.472 51.1173 354.505 49.5409C353.556 47.9455 353.082 46.1412 353.082 44.128C353.082 42.1148 353.556 40.32 354.505 38.7437C355.472 37.1483 356.8 35.9138 358.489 35.0401C360.177 34.1475 362.074 33.7012 364.18 33.7012C366.115 33.7012 367.842 34.043 369.359 34.7268C370.877 35.4105 372.129 36.3981 373.116 37.6896L368.876 41.4786C367.642 39.9212 366.191 39.1425 364.522 39.1425C363.118 39.1425 361.989 39.5983 361.135 40.51C360.282 41.4026 359.855 42.6086 359.855 44.128C359.855 45.6474 360.282 46.8629 361.135 47.7746C361.989 48.6672 363.118 49.1136 364.522 49.1136C366.191 49.1136 367.642 48.3349 368.876 46.7775L373.116 50.5665C372.129 51.858 370.877 52.8456 369.359 53.5293C367.842 54.213 366.115 54.5549 364.18 54.5549Z" fill="#333333"/>
<path d="M402.999 49.0281V54.0991H386.437V34.157H402.629V39.228H393.039V41.5641H401.463V46.4071H393.039V49.0281H402.999Z" fill="#333333"/>
<path d="M9.58992 34.949C11.4301 34.949 13.0332 35.2529 14.3991 35.8606C15.765 36.4684 16.8179 37.342 17.5578 38.4816C18.2977 39.6211 18.6676 40.9506 18.6676 42.47C18.6676 43.9894 18.2977 45.3189 17.5578 46.4584C16.8179 47.598 15.765 48.4716 14.3991 49.0794C13.0332 49.6871 11.4301 49.991 9.58992 49.991H6.71579V54.8911H0V34.949H9.58992ZM9.16306 44.8061C10.0737 44.8061 10.7566 44.6066 11.212 44.2078C11.6673 43.79 11.8949 43.2107 11.8949 42.47C11.8949 41.7293 11.6673 41.1595 11.212 40.7607C10.7566 40.3428 10.0737 40.1339 9.16306 40.1339H6.71579V44.8061H9.16306Z" fill="#F2994A"/>
<path d="M44.8262 51.4154H37.2567L35.9193 54.8911H29.0897L37.7974 34.949H44.3994L53.1071 54.8911H46.1637L44.8262 51.4154ZM42.9765 46.5724L41.0415 41.5584L39.1064 46.5724H42.9765Z" fill="#F2994A"/>
<path d="M74.0986 49.8771H72.2774V54.8911H65.5616V34.949H75.1516C76.9918 34.949 78.5948 35.2529 79.9607 35.8606C81.3267 36.4684 82.3796 37.342 83.1194 38.4816C83.8593 39.6211 84.2292 40.9506 84.2292 42.47C84.2292 43.8944 83.9067 45.1384 83.2617 46.202C82.6167 47.2656 81.6871 48.1108 80.473 48.7375L84.6561 54.8911H77.485L74.0986 49.8771ZM77.4565 42.47C77.4565 41.7293 77.2289 41.1595 76.7736 40.7607C76.3183 40.3428 75.6353 40.1339 74.7247 40.1339H72.2774V44.8061H74.7247C75.6353 44.8061 76.3183 44.6066 76.7736 44.2078C77.2289 43.79 77.4565 43.2107 77.4565 42.47Z" fill="#F2994A"/>
<path d="M102.195 40.1624H96.3618V34.949H114.745V40.1624H108.911V54.8911H102.195V40.1624Z" fill="#F2994A"/>
<path d="M147.507 34.949V54.8911H141.986L134.417 45.8317V54.8911H127.872V34.949H133.392L140.962 44.0084V34.949H147.507Z" fill="#F2994A"/>
<path d="M178.687 49.8201V54.8911H162.126V34.949H178.317V40.02H168.727V42.356H177.151V47.1991H168.727V49.8201H178.687Z" fill="#F2994A"/>
<path d="M201.192 49.8771H199.371V54.8911H192.655V34.949H202.245C204.085 34.949 205.689 35.2529 207.054 35.8606C208.42 36.4684 209.473 37.342 210.213 38.4816C210.953 39.6211 211.323 40.9506 211.323 42.47C211.323 43.8944 211 45.1384 210.355 46.202C209.71 47.2656 208.781 48.1108 207.567 48.7375L211.75 54.8911H204.579L201.192 49.8771ZM204.55 42.47C204.55 41.7293 204.323 41.1595 203.867 40.7607C203.412 40.3428 202.729 40.1339 201.818 40.1339H199.371V44.8061H201.818C202.729 44.8061 203.412 44.6066 203.867 44.2078C204.323 43.79 204.55 43.2107 204.55 42.47Z" fill="#F2994A"/>
<path d="M232.669 55.3469C231.018 55.3469 229.406 55.1665 227.831 54.8056C226.276 54.4258 224.995 53.9225 223.99 53.2957L226.152 48.3956C227.101 48.9464 228.163 49.3927 229.339 49.7346C230.516 50.0575 231.644 50.2189 232.726 50.2189C233.655 50.2189 234.319 50.1335 234.718 49.9625C235.116 49.7726 235.315 49.4972 235.315 49.1364C235.315 48.7185 235.05 48.4051 234.519 48.1962C234.006 47.9873 233.153 47.7594 231.957 47.5125C230.421 47.1896 229.14 46.8478 228.116 46.4869C227.091 46.1071 226.2 45.4993 225.441 44.6636C224.682 43.809 224.303 42.6599 224.303 41.2165C224.303 39.963 224.654 38.8234 225.355 37.7979C226.057 36.7723 227.101 35.9651 228.486 35.3763C229.89 34.7875 231.588 34.4932 233.579 34.4932C234.945 34.4932 236.283 34.6451 237.592 34.949C238.92 35.2339 240.087 35.6612 241.092 36.231L239.072 41.1025C237.118 40.1149 235.268 39.6211 233.523 39.6211C231.796 39.6211 230.933 40.039 230.933 40.8746C230.933 41.2735 231.189 41.5774 231.701 41.7863C232.214 41.9762 233.058 42.1851 234.234 42.413C235.752 42.6979 237.032 43.0303 238.076 43.4101C239.119 43.771 240.02 44.3692 240.779 45.2049C241.557 46.0406 241.946 47.1801 241.946 48.6236C241.946 49.8771 241.595 51.0166 240.893 52.0422C240.191 53.0488 239.138 53.856 237.734 54.4637C236.349 55.0525 234.661 55.3469 232.669 55.3469Z" fill="#F2994A"/>
<path d="M40.7762 -10L23.7812 62.8045L62.1187 96.8326L40.7762 -10Z" fill="#333333"/>
</svg>
