<svg width="283" height="75" viewBox="0 0 283 75" fill="none" xmlns="http://www.w3.org/2000/svg">
<path d="M186.102 45.1753C184.947 45.1753 183.818 45.0491 182.716 44.7965C181.628 44.5307 180.731 44.1785 180.028 43.7399L181.541 40.3109C182.205 40.6963 182.949 41.0087 183.772 41.2479C184.595 41.4738 185.385 41.5868 186.141 41.5868C186.792 41.5868 187.257 41.527 187.535 41.4074C187.814 41.2745 187.954 41.0818 187.954 40.8292C187.954 40.5368 187.768 40.3175 187.396 40.1713C187.038 40.0251 186.44 39.8657 185.604 39.6929C184.528 39.4669 183.632 39.2277 182.915 38.9752C182.198 38.7094 181.574 38.284 181.043 37.6993C180.512 37.1012 180.247 36.2971 180.247 35.287C180.247 34.4098 180.492 33.6123 180.984 32.8946C181.475 32.1769 182.205 31.6121 183.174 31.2001C184.157 30.788 185.345 30.582 186.739 30.582C187.695 30.582 188.631 30.6884 189.547 30.901C190.476 31.1004 191.292 31.3994 191.996 31.7981L190.582 35.2072C189.215 34.5161 187.92 34.1705 186.699 34.1705C185.491 34.1705 184.887 34.4629 184.887 35.0477C184.887 35.3268 185.066 35.5395 185.424 35.6857C185.783 35.8186 186.374 35.9648 187.197 36.1243C188.259 36.3237 189.155 36.5562 189.885 36.8221C190.615 37.0746 191.246 37.4932 191.777 38.078C192.321 38.6628 192.593 39.4603 192.593 40.4704C192.593 41.3476 192.348 42.145 191.857 42.8627C191.365 43.5671 190.629 44.132 189.646 44.5573C188.677 44.9693 187.496 45.1753 186.102 45.1753Z" fill="#333333"/>
<path d="M208.668 30.901C209.956 30.901 211.078 31.1137 212.034 31.539C212.99 31.9643 213.727 32.5757 214.244 33.3731C214.762 34.1705 215.021 35.1009 215.021 36.1642C215.021 37.2274 214.762 38.1578 214.244 38.9552C213.727 39.7527 212.99 40.3641 212.034 40.7894C211.078 41.2147 209.956 41.4273 208.668 41.4273H206.657V44.8563H201.957V30.901H208.668ZM208.37 37.7989C209.007 37.7989 209.485 37.6594 209.804 37.3803C210.122 37.0879 210.281 36.6825 210.281 36.1642C210.281 35.6458 210.122 35.2471 209.804 34.968C209.485 34.6756 209.007 34.5294 208.37 34.5294H206.657V37.7989H208.37Z" fill="#333333"/>
<path d="M233.327 42.4241H228.029L227.094 44.8563H222.314L228.408 30.901H233.028L239.122 44.8563H234.263L233.327 42.4241ZM232.032 39.035L230.678 35.5262L229.324 39.035H232.032Z" fill="#333333"/>
<path d="M254.851 45.1753C253.378 45.1753 252.05 44.8696 250.869 44.2583C249.687 43.6336 248.758 42.7697 248.081 41.6666C247.417 40.5501 247.085 39.2875 247.085 37.8787C247.085 36.4699 247.417 35.2139 248.081 34.1107C248.758 32.9943 249.687 32.1304 250.869 31.519C252.05 30.8944 253.378 30.582 254.851 30.582C256.206 30.582 257.414 30.8213 258.476 31.2997C259.538 31.7782 260.414 32.4693 261.104 33.3731L258.137 36.0246C257.274 34.9348 256.259 34.3898 255.09 34.3898C254.108 34.3898 253.318 34.7088 252.721 35.3468C252.123 35.9715 251.825 36.8154 251.825 37.8787C251.825 38.9419 252.123 39.7926 252.721 40.4305C253.318 41.0552 254.108 41.3675 255.09 41.3675C256.259 41.3675 257.274 40.8226 258.137 39.7327L261.104 42.3843C260.414 43.288 259.538 43.9792 258.476 44.4576C257.414 44.9361 256.206 45.1753 254.851 45.1753Z" fill="#333333"/>
<path d="M282.017 41.3077V44.8563H270.427V30.901H281.758V34.4497H275.047V36.0844H280.941V39.4736H275.047V41.3077H282.017Z" fill="#333333"/>
<path d="M6.71096 31.4547C7.99872 31.4547 9.12053 31.6674 10.0764 32.0927C11.0323 32.518 11.7691 33.1294 12.2868 33.9268C12.8046 34.7243 13.0635 35.6546 13.0635 36.7179C13.0635 37.7811 12.8046 38.7115 12.2868 39.5089C11.7691 40.3064 11.0323 40.9178 10.0764 41.3431C9.12053 41.7684 7.99872 41.981 6.71096 41.981H4.69966V45.4101H0V31.4547H6.71096ZM6.41225 38.3526C7.04949 38.3526 7.52743 38.2131 7.84605 37.934C8.16467 37.6416 8.32398 37.2362 8.32398 36.7179C8.32398 36.1995 8.16467 35.8008 7.84605 35.5217C7.52743 35.2293 7.04949 35.0831 6.41225 35.0831H4.69966V38.3526H6.41225Z" fill="#014F7A"/>
<path d="M31.3691 42.9778H26.072L25.1361 45.4101H20.3568L26.4504 31.4547H31.0704L37.164 45.4101H32.305L31.3691 42.9778ZM30.0747 39.5887L28.7206 36.0799L27.3664 39.5887H30.0747Z" fill="#014F7A"/>
<path d="M51.8537 41.9013H50.5792V45.4101H45.8796V31.4547H52.5905C53.8783 31.4547 55.0001 31.6674 55.956 32.0927C56.9118 32.518 57.6487 33.1294 58.1664 33.9268C58.6842 34.7243 58.9431 35.6546 58.9431 36.7179C58.9431 37.7147 58.7174 38.5852 58.266 39.3295C57.8146 40.0738 57.1641 40.6652 56.3144 41.1038L59.2418 45.4101H54.2235L51.8537 41.9013ZM54.2036 36.7179C54.2036 36.1995 54.0442 35.8008 53.7256 35.5217C53.407 35.2293 52.9291 35.0831 52.2918 35.0831H50.5792V38.3526H52.2918C52.9291 38.3526 53.407 38.2131 53.7256 37.934C54.0442 37.6416 54.2036 37.2362 54.2036 36.7179Z" fill="#014F7A"/>
<path d="M71.5157 35.103H67.4333V31.4547H80.2977V35.103H76.2153V45.4101H71.5157V35.103Z" fill="#014F7A"/>
<path d="M103.224 31.4547V45.4101H99.3611L94.064 39.0703V45.4101H89.4839V31.4547H93.3471L98.6442 37.7944V31.4547H103.224Z" fill="#014F7A"/>
<path d="M125.044 41.8614V45.4101H113.454V31.4547H124.785V35.0034H118.074V36.6381H123.969V40.0273H118.074V41.8614H125.044Z" fill="#014F7A"/>
<path d="M140.793 41.9013H139.519V45.4101H134.819V31.4547H141.53C142.818 31.4547 143.939 31.6674 144.895 32.0927C145.851 32.518 146.588 33.1294 147.106 33.9268C147.624 34.7243 147.882 35.6546 147.882 36.7179C147.882 37.7147 147.657 38.5852 147.205 39.3295C146.754 40.0738 146.103 40.6652 145.254 41.1038L148.181 45.4101H143.163L140.793 41.9013ZM143.143 36.7179C143.143 36.1995 142.984 35.8008 142.665 35.5217C142.346 35.2293 141.868 35.0831 141.231 35.0831H139.519V38.3526H141.231C141.868 38.3526 142.346 38.2131 142.665 37.934C142.984 37.6416 143.143 37.2362 143.143 36.7179Z" fill="#014F7A"/>
<path d="M162.82 45.729C161.665 45.729 160.537 45.6028 159.435 45.3502C158.346 45.0844 157.45 44.7322 156.746 44.2936L158.26 40.8646C158.924 41.25 159.667 41.5624 160.49 41.8016C161.313 42.0275 162.103 42.1405 162.86 42.1405C163.51 42.1405 163.975 42.0807 164.254 41.9611C164.533 41.8282 164.672 41.6355 164.672 41.3829C164.672 41.0905 164.486 40.8712 164.114 40.725C163.756 40.5789 163.159 40.4194 162.322 40.2466C161.247 40.0206 160.351 39.7814 159.634 39.5289C158.917 39.2631 158.293 38.8378 157.762 38.253C157.231 37.6549 156.965 36.8508 156.965 35.8407C156.965 34.9635 157.211 34.166 157.702 33.4483C158.193 32.7306 158.924 32.1658 159.893 31.7538C160.875 31.3417 162.063 31.1357 163.457 31.1357C164.413 31.1357 165.349 31.2421 166.265 31.4547C167.194 31.6541 168.011 31.9531 168.715 32.3518L167.301 35.7609C165.933 35.0698 164.639 34.7243 163.418 34.7243C162.209 34.7243 161.605 35.0167 161.605 35.6014C161.605 35.8806 161.785 36.0932 162.143 36.2394C162.501 36.3723 163.092 36.5185 163.915 36.678C164.977 36.8774 165.874 37.11 166.604 37.3758C167.334 37.6283 167.964 38.047 168.496 38.6317C169.04 39.2165 169.312 40.014 169.312 41.0241C169.312 41.9013 169.066 42.6987 168.575 43.4164C168.084 44.1208 167.347 44.6857 166.365 45.111C165.396 45.523 164.214 45.729 162.82 45.729Z" fill="#014F7A"/>
<path d="M28.5355 0L16.6426 50.9481L43.4709 74.7607L28.5355 0Z" fill="#333333"/>
<path d="M48.6426 53.4668H282.643V72.4668H52.6426L48.6426 53.4668Z" fill="#014F7A"/>
<path d="M62.8057 67.4668V58.9355H65.0615C66.0576 58.9355 66.8506 59.252 67.4404 59.8848C68.0342 60.5176 68.3369 61.3848 68.3486 62.4863V63.8691C68.3486 64.9902 68.0518 65.8711 67.458 66.5117C66.8682 67.1484 66.0537 67.4668 65.0146 67.4668H62.8057ZM64.5283 60.3711V66.0371H65.0439C65.6182 66.0371 66.0225 65.8867 66.2568 65.5859C66.4912 65.2812 66.6143 64.7578 66.626 64.0156V62.5332C66.626 61.7363 66.5146 61.1816 66.292 60.8691C66.0693 60.5527 65.6904 60.3867 65.1553 60.3711H64.5283Z" fill="#BDBDBD"/>
<path d="M81.2142 65.7207H78.8646L78.4075 67.4668H76.5853L79.2513 58.9355H80.8275L83.5111 67.4668H81.6712L81.2142 65.7207ZM79.2396 64.2852H80.8333L80.0364 61.2441L79.2396 64.2852Z" fill="#BDBDBD"/>
<path d="M95.5973 65.2285C95.5973 64.8809 95.5075 64.6191 95.3278 64.4434C95.152 64.2637 94.8297 64.0781 94.361 63.8867C93.5055 63.5625 92.8903 63.1836 92.5153 62.75C92.1403 62.3125 91.9528 61.7969 91.9528 61.2031C91.9528 60.4844 92.2067 59.9082 92.7145 59.4746C93.2262 59.0371 93.8746 58.8184 94.6598 58.8184C95.1832 58.8184 95.65 58.9297 96.0602 59.1523C96.4704 59.3711 96.7848 59.6816 97.0036 60.084C97.2262 60.4863 97.3375 60.9434 97.3375 61.4551H95.6207C95.6207 61.0566 95.5348 60.7539 95.3629 60.5469C95.195 60.3359 94.9508 60.2305 94.6305 60.2305C94.3297 60.2305 94.0954 60.3203 93.9274 60.5C93.7594 60.6758 93.6754 60.9141 93.6754 61.2148C93.6754 61.4492 93.7692 61.6621 93.9567 61.8535C94.1442 62.041 94.4762 62.2363 94.9528 62.4395C95.7848 62.7402 96.3883 63.1094 96.7633 63.5469C97.1422 63.9844 97.3317 64.541 97.3317 65.2168C97.3317 65.959 97.0954 66.5391 96.6227 66.957C96.15 67.375 95.5075 67.584 94.695 67.584C94.1442 67.584 93.6422 67.4707 93.1891 67.2441C92.736 67.0176 92.3805 66.6934 92.1227 66.2715C91.8688 65.8496 91.7418 65.3516 91.7418 64.7773H93.4704C93.4704 65.2695 93.5661 65.627 93.7575 65.8496C93.9489 66.0723 94.2614 66.1836 94.695 66.1836C95.2965 66.1836 95.5973 65.8652 95.5973 65.2285Z" fill="#BDBDBD"/>
<path d="M112.137 67.4668H110.42V63.8164H107.877V67.4668H106.154V58.9355H107.877V62.3867H110.42V58.9355H112.137V67.4668Z" fill="#BDBDBD"/>
<path d="M121.205 67.4668V58.9355H123.842C124.733 58.9355 125.408 59.1348 125.869 59.5332C126.334 59.9277 126.567 60.5078 126.567 61.2734C126.567 61.707 126.471 62.0801 126.28 62.3926C126.088 62.7051 125.826 62.9336 125.494 63.0781C125.877 63.1875 126.172 63.4082 126.379 63.7402C126.586 64.0684 126.69 64.4746 126.69 64.959C126.69 65.7871 126.461 66.4121 126.004 66.834C125.551 67.2559 124.893 67.4668 124.03 67.4668H121.205ZM122.928 63.7578V66.0371H124.03C124.338 66.0371 124.573 65.9414 124.733 65.75C124.893 65.5586 124.973 65.2871 124.973 64.9355C124.973 64.1699 124.696 63.7773 124.141 63.7578H122.928ZM122.928 62.5039H123.824C124.5 62.5039 124.838 62.1543 124.838 61.4551C124.838 61.0684 124.76 60.791 124.604 60.623C124.448 60.4551 124.194 60.3711 123.842 60.3711H122.928V62.5039Z" fill="#BDBDBD"/>
<path d="M141.629 63.9688C141.629 65.1133 141.358 66.002 140.815 66.6348C140.276 67.2676 139.526 67.584 138.565 67.584C137.608 67.584 136.856 67.2715 136.309 66.6465C135.762 66.0176 135.485 65.1387 135.477 64.0098V62.5508C135.477 61.3789 135.749 60.4648 136.292 59.8086C136.835 59.1484 137.588 58.8184 138.553 58.8184C139.503 58.8184 140.251 59.1426 140.797 59.791C141.344 60.4355 141.622 61.3418 141.629 62.5098V63.9688ZM139.901 62.5391C139.901 61.7695 139.792 61.1973 139.573 60.8223C139.354 60.4473 139.014 60.2598 138.553 60.2598C138.096 60.2598 137.758 60.4414 137.54 60.8047C137.321 61.1641 137.208 61.7129 137.2 62.4512V63.9688C137.2 64.7148 137.311 65.2656 137.534 65.6211C137.756 65.9727 138.1 66.1484 138.565 66.1484C139.014 66.1484 139.348 65.9766 139.567 65.6328C139.786 65.2852 139.897 64.748 139.901 64.0215V62.5391Z" fill="#BDBDBD"/>
<path d="M154.489 65.7207H152.14L151.683 67.4668H149.86L152.526 58.9355H154.102L156.786 67.4668H154.946L154.489 65.7207ZM152.515 64.2852H154.108L153.311 61.2441L152.515 64.2852Z" fill="#BDBDBD"/>
<path d="M167.853 64.3496H166.997V67.4668H165.275V58.9355H168.023C168.886 58.9355 169.552 59.1602 170.021 59.6094C170.493 60.0547 170.73 60.6895 170.73 61.5137C170.73 62.6465 170.318 63.4395 169.493 63.8926L170.988 67.3848V67.4668H169.136L167.853 64.3496ZM166.997 62.9141H167.976C168.32 62.9141 168.577 62.8008 168.749 62.5742C168.921 62.3438 169.007 62.0371 169.007 61.6543C169.007 60.7988 168.673 60.3711 168.005 60.3711H166.997V62.9141Z" fill="#BDBDBD"/>
<path d="M179.593 67.4668V58.9355H181.849C182.845 58.9355 183.638 59.252 184.228 59.8848C184.822 60.5176 185.125 61.3848 185.136 62.4863V63.8691C185.136 64.9902 184.839 65.8711 184.246 66.5117C183.656 67.1484 182.841 67.4668 181.802 67.4668H179.593ZM181.316 60.3711V66.0371H181.832C182.406 66.0371 182.81 65.8867 183.044 65.5859C183.279 65.2812 183.402 64.7578 183.414 64.0156V62.5332C183.414 61.7363 183.302 61.1816 183.08 60.8691C182.857 60.5527 182.478 60.3867 181.943 60.3711H181.316Z" fill="#BDBDBD"/>
<path d="M206.227 64.4668V67.4668H204.504V58.9355H207.41C208.254 58.9355 208.926 59.1973 209.426 59.7207C209.93 60.2441 210.182 60.9238 210.182 61.7598C210.182 62.5957 209.934 63.2559 209.438 63.7402C208.942 64.2246 208.254 64.4668 207.375 64.4668H206.227ZM206.227 63.0312H207.41C207.738 63.0312 207.992 62.9238 208.172 62.709C208.352 62.4941 208.442 62.1816 208.442 61.7715C208.442 61.3457 208.35 61.0078 208.166 60.7578C207.983 60.5039 207.737 60.375 207.428 60.3711H206.227V63.0312Z" fill="#BDBDBD"/>
<path d="M222.045 65.7207H219.696L219.239 67.4668H217.417L220.083 58.9355H221.659L224.342 67.4668H222.502L222.045 65.7207ZM220.071 64.2852H221.665L220.868 61.2441L220.071 64.2852Z" fill="#BDBDBD"/>
<path d="M238.79 67.4668H237.067L234.548 61.8711V67.4668H232.825V58.9355H234.548L237.073 64.5371V58.9355H238.79V67.4668Z" fill="#BDBDBD"/>
<path d="M252.259 63.7754H249.575V66.0371H252.751V67.4668H247.853V58.9355H252.739V60.3711H249.575V62.3867H252.259V63.7754Z" fill="#BDBDBD"/>
<path d="M263.15 66.0371H266.173V67.4668H261.427V58.9355H263.15V66.0371Z" fill="#BDBDBD"/>
</svg>
