<svg width="184" height="238" viewBox="0 0 184 238" fill="none" xmlns="http://www.w3.org/2000/svg">
<rect x="1.16602" y="25.2158" width="181.387" height="211.653" stroke="#56CCF2"/>
<rect x="0.666016" y="0.0258789" width="84.1788" height="24.69" fill="#56CCF2"/>
<path d="M24.0855 19.2119H18.2202V17.8447L20.9136 14.4199C21.2554 13.946 21.506 13.5312 21.6656 13.1758C21.8296 12.8158 21.9116 12.4717 21.9116 12.1436C21.9116 11.7015 21.8342 11.3551 21.6792 11.1045C21.5288 10.8538 21.3101 10.7285 21.023 10.7285C20.7085 10.7285 20.4579 10.8743 20.271 11.166C20.0887 11.4577 19.9976 11.8678 19.9976 12.3965H18.0562C18.0562 11.7858 18.1815 11.2275 18.4322 10.7217C18.6874 10.2158 19.0428 9.82389 19.4986 9.5459C19.9588 9.26335 20.4784 9.12207 21.0572 9.12207C21.9458 9.12207 22.634 9.36816 23.1216 9.86035C23.6138 10.348 23.8599 11.043 23.8599 11.9453C23.8599 12.5059 23.7232 13.0755 23.4497 13.6543C23.1809 14.2285 22.6909 14.9372 21.98 15.7803L20.7017 17.6055H24.0855V19.2119ZM31.2255 15.0967C31.2255 16.473 30.9748 17.5257 30.4735 18.2549C29.9768 18.984 29.2658 19.3486 28.3407 19.3486C27.4247 19.3486 26.716 18.9954 26.2147 18.2891C25.718 17.5781 25.4605 16.5618 25.4423 15.2402V13.3604C25.4423 11.9886 25.6906 10.9404 26.1874 10.2158C26.6841 9.48665 27.3973 9.12207 28.327 9.12207C29.2567 9.12207 29.9699 9.4821 30.4667 10.2021C30.9634 10.9222 31.2164 11.9499 31.2255 13.2852V15.0967ZM29.2841 13.0801C29.2841 12.2962 29.2066 11.7083 29.0516 11.3164C28.8967 10.9245 28.6552 10.7285 28.327 10.7285C27.7118 10.7285 27.3928 11.4463 27.37 12.8818V15.3633C27.37 16.1654 27.4475 16.7624 27.6024 17.1543C27.7619 17.5462 28.008 17.7422 28.3407 17.7422C28.6552 17.7422 28.8876 17.5599 29.038 17.1953C29.1929 16.8262 29.275 16.2633 29.2841 15.5068V13.0801ZM38.4475 15.0967C38.4475 16.473 38.1969 17.5257 37.6956 18.2549C37.1988 18.984 36.4879 19.3486 35.5627 19.3486C34.6467 19.3486 33.9381 18.9954 33.4368 18.2891C32.94 17.5781 32.6825 16.5618 32.6643 15.2402V13.3604C32.6643 11.9886 32.9127 10.9404 33.4094 10.2158C33.9062 9.48665 34.6194 9.12207 35.5491 9.12207C36.4788 9.12207 37.192 9.4821 37.6887 10.2021C38.1855 10.9222 38.4384 11.9499 38.4475 13.2852V15.0967ZM36.5061 13.0801C36.5061 12.2962 36.4286 11.7083 36.2737 11.3164C36.1187 10.9245 35.8772 10.7285 35.5491 10.7285C34.9338 10.7285 34.6148 11.4463 34.592 12.8818V15.3633C34.592 16.1654 34.6695 16.7624 34.8245 17.1543C34.984 17.5462 35.2301 17.7422 35.5627 17.7422C35.8772 17.7422 36.1096 17.5599 36.26 17.1953C36.415 16.8262 36.497 16.2633 36.5061 15.5068V13.0801ZM42.4156 14.0098L43.277 11.8154H45.3277L43.6393 15.4316L45.3893 19.2119H43.3316L42.4225 16.8945L41.5201 19.2119H39.4557L41.2057 15.4316L39.5309 11.8154H41.5885L42.4156 14.0098ZM52.2353 19.2119H46.3701V17.8447L49.0634 14.4199C49.4052 13.946 49.6559 13.5312 49.8154 13.1758C49.9795 12.8158 50.0615 12.4717 50.0615 12.1436C50.0615 11.7015 49.984 11.3551 49.8291 11.1045C49.6787 10.8538 49.4599 10.7285 49.1728 10.7285C48.8584 10.7285 48.6077 10.8743 48.4209 11.166C48.2386 11.4577 48.1474 11.8678 48.1474 12.3965H46.206C46.206 11.7858 46.3313 11.2275 46.582 10.7217C46.8372 10.2158 47.1927 9.82389 47.6484 9.5459C48.1087 9.26335 48.6282 9.12207 49.207 9.12207C50.0957 9.12207 50.7838 9.36816 51.2715 9.86035C51.7636 10.348 52.0097 11.043 52.0097 11.9453C52.0097 12.5059 51.873 13.0755 51.5996 13.6543C51.3307 14.2285 50.8408 14.9372 50.1298 15.7803L48.8515 17.6055H52.2353V19.2119ZM59.3753 15.0967C59.3753 16.473 59.1247 17.5257 58.6234 18.2549C58.1266 18.984 57.4157 19.3486 56.4906 19.3486C55.5745 19.3486 54.8659 18.9954 54.3646 18.2891C53.8678 17.5781 53.6103 16.5618 53.5921 15.2402V13.3604C53.5921 11.9886 53.8405 10.9404 54.3372 10.2158C54.834 9.48665 55.5472 9.12207 56.4769 9.12207C57.4066 9.12207 58.1198 9.4821 58.6165 10.2021C59.1133 10.9222 59.3662 11.9499 59.3753 13.2852V15.0967ZM57.4339 13.0801C57.4339 12.2962 57.3564 11.7083 57.2015 11.3164C57.0465 10.9245 56.805 10.7285 56.4769 10.7285C55.8616 10.7285 55.5426 11.4463 55.5199 12.8818V15.3633C55.5199 16.1654 55.5973 16.7624 55.7523 17.1543C55.9118 17.5462 56.1579 17.7422 56.4906 17.7422C56.805 17.7422 57.0374 17.5599 57.1878 17.1953C57.3428 16.8262 57.4248 16.2633 57.4339 15.5068V13.0801ZM66.5974 15.0967C66.5974 16.473 66.3467 17.5257 65.8454 18.2549C65.3487 18.984 64.6377 19.3486 63.7126 19.3486C62.7966 19.3486 62.0879 18.9954 61.5866 18.2891C61.0899 17.5781 60.8324 16.5618 60.8141 15.2402V13.3604C60.8141 11.9886 61.0625 10.9404 61.5593 10.2158C62.056 9.48665 62.7692 9.12207 63.6989 9.12207C64.6286 9.12207 65.3418 9.4821 65.8386 10.2021C66.3353 10.9222 66.5882 11.9499 66.5974 13.2852V15.0967ZM64.6559 13.0801C64.6559 12.2962 64.5785 11.7083 64.4235 11.3164C64.2686 10.9245 64.027 10.7285 63.6989 10.7285C63.0837 10.7285 62.7647 11.4463 62.7419 12.8818V15.3633C62.7419 16.1654 62.8194 16.7624 62.9743 17.1543C63.1338 17.5462 63.3799 17.7422 63.7126 17.7422C64.027 17.7422 64.2595 17.5599 64.4099 17.1953C64.5648 16.8262 64.6468 16.2633 64.6559 15.5068V13.0801Z" fill="white"/>
<rect x="66.7715" y="101.175" width="50.1765" height="50.1765" fill="#CBF2FF"/>
</svg>
