<svg width="183" height="238" viewBox="0 0 183 238" fill="none" xmlns="http://www.w3.org/2000/svg">
<rect x="0.9375" y="25.2158" width="180.591" height="211.653" stroke="#56CCF2"/>
<rect x="0.4375" y="0.0258789" width="83.8112" height="24.69" fill="#56CCF2"/>
<path d="M22.0688 19.2119H20.1274V11.6104L18.2339 12.3418V10.7285L21.8638 9.24512H22.0688V19.2119ZM29.6463 9.15625V10.7969H29.537C28.8123 10.8014 28.2358 11.0202 27.8075 11.4531C27.3836 11.8815 27.1261 12.4831 27.035 13.2578C27.4497 12.7839 27.9692 12.5469 28.5936 12.5469C29.3136 12.5469 29.8879 12.8545 30.3163 13.4697C30.7492 14.085 30.9657 14.9053 30.9657 15.9307C30.9657 16.5824 30.8426 17.1702 30.5965 17.6943C30.3504 18.2184 30.0041 18.6263 29.5575 18.918C29.1154 19.2051 28.6141 19.3486 28.0536 19.3486C27.1512 19.3486 26.4266 18.9863 25.8797 18.2617C25.3374 17.5371 25.0663 16.5618 25.0663 15.3359V14.6182C25.0663 13.5199 25.2372 12.5583 25.5789 11.7334C25.9253 10.9085 26.422 10.2751 27.0692 9.83301C27.7209 9.38639 28.4797 9.16081 29.3455 9.15625H29.6463ZM27.9852 14.1465C27.7391 14.1465 27.5317 14.224 27.3631 14.3789C27.1991 14.5339 27.076 14.7253 26.994 14.9531V15.6504C26.994 16.3522 27.0874 16.8763 27.2743 17.2227C27.4611 17.569 27.7072 17.7422 28.0125 17.7422C28.3224 17.7422 28.5708 17.5758 28.7577 17.2432C28.9445 16.9059 29.0379 16.4753 29.0379 15.9512C29.0379 15.418 28.9399 14.985 28.744 14.6523C28.5526 14.3151 28.2997 14.1465 27.9852 14.1465ZM38.0373 15.0967C38.0373 16.473 37.7867 17.5257 37.2854 18.2549C36.7886 18.984 36.0777 19.3486 35.1525 19.3486C34.2365 19.3486 33.5279 18.9954 33.0266 18.2891C32.5298 17.5781 32.2723 16.5618 32.2541 15.2402V13.3604C32.2541 11.9886 32.5025 10.9404 32.9992 10.2158C33.496 9.48665 34.2092 9.12207 35.1389 9.12207C36.0686 9.12207 36.7818 9.4821 37.2785 10.2021C37.7753 10.9222 38.0282 11.9499 38.0373 13.2852V15.0967ZM36.0959 13.0801C36.0959 12.2962 36.0184 11.7083 35.8635 11.3164C35.7085 10.9245 35.467 10.7285 35.1389 10.7285C34.5236 10.7285 34.2046 11.4463 34.1818 12.8818V15.3633C34.1818 16.1654 34.2593 16.7624 34.4143 17.1543C34.5738 17.5462 34.8199 17.7422 35.1525 17.7422C35.467 17.7422 35.6994 17.5599 35.8498 17.1953C36.0048 16.8262 36.0868 16.2633 36.0959 15.5068V13.0801ZM42.0054 14.0098L42.8668 11.8154H44.9175L43.2291 15.4316L44.9791 19.2119H42.9214L42.0123 16.8945L41.1099 19.2119H39.0455L40.7955 15.4316L39.1207 11.8154H41.1783L42.0054 14.0098ZM50.5741 9.15625V10.7969H50.4648C49.7402 10.8014 49.1637 11.0202 48.7353 11.4531C48.3114 11.8815 48.054 12.4831 47.9628 13.2578C48.3775 12.7839 48.8971 12.5469 49.5214 12.5469C50.2415 12.5469 50.8157 12.8545 51.2441 13.4697C51.677 14.085 51.8935 14.9053 51.8935 15.9307C51.8935 16.5824 51.7704 17.1702 51.5243 17.6943C51.2782 18.2184 50.9319 18.6263 50.4853 18.918C50.0432 19.2051 49.5419 19.3486 48.9814 19.3486C48.079 19.3486 47.3544 18.9863 46.8075 18.2617C46.2652 17.5371 45.9941 16.5618 45.9941 15.3359V14.6182C45.9941 13.5199 46.165 12.5583 46.5068 11.7334C46.8531 10.9085 47.3499 10.2751 47.997 9.83301C48.6487 9.38639 49.4075 9.16081 50.2734 9.15625H50.5741ZM48.913 14.1465C48.6669 14.1465 48.4596 14.224 48.2909 14.3789C48.1269 14.5339 48.0038 14.7253 47.9218 14.9531V15.6504C47.9218 16.3522 48.0152 16.8763 48.2021 17.2227C48.3889 17.569 48.635 17.7422 48.9404 17.7422C49.2502 17.7422 49.4986 17.5758 49.6855 17.2432C49.8723 16.9059 49.9657 16.4753 49.9657 15.9512C49.9657 15.418 49.8678 14.985 49.6718 14.6523C49.4804 14.3151 49.2275 14.1465 48.913 14.1465ZM58.9651 15.0967C58.9651 16.473 58.7145 17.5257 58.2132 18.2549C57.7164 18.984 57.0055 19.3486 56.0804 19.3486C55.1643 19.3486 54.4557 18.9954 53.9544 18.2891C53.4576 17.5781 53.2001 16.5618 53.1819 15.2402V13.3604C53.1819 11.9886 53.4303 10.9404 53.927 10.2158C54.4238 9.48665 55.137 9.12207 56.0667 9.12207C56.9964 9.12207 57.7096 9.4821 58.2063 10.2021C58.7031 10.9222 58.956 11.9499 58.9651 13.2852V15.0967ZM57.0237 13.0801C57.0237 12.2962 56.9462 11.7083 56.7913 11.3164C56.6363 10.9245 56.3948 10.7285 56.0667 10.7285C55.4514 10.7285 55.1324 11.4463 55.1096 12.8818V15.3633C55.1096 16.1654 55.1871 16.7624 55.3421 17.1543C55.5016 17.5462 55.7477 17.7422 56.0804 17.7422C56.3948 17.7422 56.6272 17.5599 56.7776 17.1953C56.9326 16.8262 57.0146 16.2633 57.0237 15.5068V13.0801ZM66.1871 15.0967C66.1871 16.473 65.9365 17.5257 65.4352 18.2549C64.9385 18.984 64.2275 19.3486 63.3024 19.3486C62.3864 19.3486 61.6777 18.9954 61.1764 18.2891C60.6797 17.5781 60.4222 16.5618 60.4039 15.2402V13.3604C60.4039 11.9886 60.6523 10.9404 61.1491 10.2158C61.6458 9.48665 62.359 9.12207 63.2887 9.12207C64.2184 9.12207 64.9316 9.4821 65.4284 10.2021C65.9251 10.9222 66.178 11.9499 66.1871 13.2852V15.0967ZM64.2457 13.0801C64.2457 12.2962 64.1683 11.7083 64.0133 11.3164C63.8584 10.9245 63.6168 10.7285 63.2887 10.7285C62.6735 10.7285 62.3545 11.4463 62.3317 12.8818V15.3633C62.3317 16.1654 62.4092 16.7624 62.5641 17.1543C62.7236 17.5462 62.9697 17.7422 63.3024 17.7422C63.6168 17.7422 63.8493 17.5599 63.9996 17.1953C64.1546 16.8262 64.2366 16.2633 64.2457 15.5068V13.0801Z" fill="white"/>
<rect x="77.6934" y="74.8926" width="27.0794" height="103.539" fill="#CBF2FF"/>
</svg>
