<svg width="184" height="238" viewBox="0 0 184 238" fill="none" xmlns="http://www.w3.org/2000/svg">
<rect x="1.16602" y="25.5312" width="181.387" height="211.653" stroke="#56CCF2"/>
<rect x="0.666016" y="0.341309" width="84.1788" height="24.69" fill="#56CCF2"/>
<path d="M18.868 19.5273H16.9266V11.9258L15.0331 12.6572V11.0439L18.6629 9.56055H18.868V19.5273ZM27.6145 15.4121C27.6145 16.7884 27.3638 17.8411 26.8625 18.5703C26.3658 19.2995 25.6548 19.6641 24.7297 19.6641C23.8137 19.6641 23.105 19.3109 22.6037 18.6045C22.107 17.8936 21.8495 16.8773 21.8313 15.5557V13.6758C21.8313 12.304 22.0796 11.2559 22.5764 10.5312C23.0731 9.80208 23.7863 9.4375 24.716 9.4375C25.6457 9.4375 26.3589 9.79753 26.8557 10.5176C27.3524 11.2376 27.6053 12.2653 27.6145 13.6006V15.4121ZM25.6731 13.3955C25.6731 12.6117 25.5956 12.0238 25.4406 11.6318C25.2857 11.2399 25.0441 11.0439 24.716 11.0439C24.1008 11.0439 23.7818 11.7617 23.759 13.1973V15.6787C23.759 16.4808 23.8365 17.0778 23.9914 17.4697C24.1509 17.8617 24.397 18.0576 24.7297 18.0576C25.0441 18.0576 25.2766 17.8753 25.427 17.5107C25.5819 17.1416 25.6639 16.5788 25.6731 15.8223V13.3955ZM34.9185 19.5273H29.0533V18.1602L31.7466 14.7354C32.0884 14.2614 32.3391 13.8467 32.4986 13.4912C32.6627 13.1312 32.7447 12.7871 32.7447 12.459C32.7447 12.0169 32.6672 11.6706 32.5123 11.4199C32.3619 11.1693 32.1431 11.0439 31.856 11.0439C31.5416 11.0439 31.2909 11.1898 31.1041 11.4814C30.9218 11.7731 30.8306 12.1833 30.8306 12.7119H28.8892C28.8892 12.1012 29.0146 11.543 29.2652 11.0371C29.5204 10.5312 29.8759 10.1393 30.3316 9.86133C30.7919 9.57878 31.3114 9.4375 31.8902 9.4375C32.7789 9.4375 33.467 9.68359 33.9547 10.1758C34.4468 10.6634 34.6929 11.3584 34.6929 12.2607C34.6929 12.8213 34.5562 13.391 34.2828 13.9697C34.0139 14.5439 33.524 15.2526 32.8131 16.0957L31.5347 17.9209H34.9185V19.5273ZM41.3749 15.7676H42.2226V17.374H41.3749V19.5273H39.4404V17.374H36.1454L36.0566 16.123L39.4335 9.57422H41.3749V15.7676ZM37.9365 15.7676H39.4404V12.4385L39.3993 12.5137L37.9365 15.7676ZM46.0266 14.3252L46.888 12.1309H48.9388L47.2503 15.7471L49.0003 19.5273H46.9427L46.0335 17.21L45.1311 19.5273H43.0667L44.8167 15.7471L43.1419 12.1309H45.1995L46.0266 14.3252ZM55.819 10.6885L52.6745 19.5273H50.6305L53.7887 11.1807H49.7965V9.57422H55.819V10.6885ZM61.8174 9.47168V11.1123H61.708C60.9834 11.1169 60.4069 11.3356 59.9785 11.7686C59.5547 12.1969 59.2972 12.7985 59.2061 13.5732C59.6208 13.0993 60.1403 12.8623 60.7647 12.8623C61.4847 12.8623 62.0589 13.1699 62.4873 13.7852C62.9203 14.4004 63.1367 15.2207 63.1367 16.2461C63.1367 16.8978 63.0137 17.4857 62.7676 18.0098C62.5215 18.5339 62.1751 18.9417 61.7285 19.2334C61.2865 19.5205 60.7852 19.6641 60.2246 19.6641C59.3223 19.6641 58.5977 19.3018 58.0508 18.5771C57.5085 17.8525 57.2373 16.8773 57.2373 15.6514V14.9336C57.2373 13.8353 57.4082 12.8737 57.75 12.0488C58.0964 11.224 58.5931 10.5905 59.2402 10.1484C59.8919 9.70182 60.6507 9.47624 61.5166 9.47168H61.8174ZM60.1563 14.4619C59.9102 14.4619 59.7028 14.5394 59.5342 14.6943C59.3701 14.8493 59.2471 15.0407 59.165 15.2686V15.9658C59.165 16.6676 59.2585 17.1917 59.4453 17.5381C59.6322 17.8844 59.8783 18.0576 60.1836 18.0576C60.4935 18.0576 60.7419 17.8913 60.9287 17.5586C61.1156 17.2214 61.209 16.7907 61.209 16.2666C61.209 15.7334 61.111 15.3005 60.915 14.9678C60.7236 14.6305 60.4707 14.4619 60.1563 14.4619ZM70.0033 12.2197C70.0033 12.7028 69.9007 13.1312 69.6957 13.5049C69.4906 13.8786 69.208 14.1771 68.848 14.4004C69.2582 14.6328 69.5817 14.9541 69.8187 15.3643C70.0557 15.7699 70.1742 16.2484 70.1742 16.7998C70.1742 17.6839 69.919 18.3835 69.4086 18.8984C68.8981 19.4089 68.2032 19.6641 67.3236 19.6641C66.444 19.6641 65.7445 19.4089 65.225 18.8984C64.7054 18.3835 64.4457 17.6839 64.4457 16.7998C64.4457 16.2484 64.5642 15.7676 64.8011 15.3574C65.0381 14.9473 65.364 14.6283 65.7787 14.4004C65.4141 14.1771 65.1293 13.8786 64.9242 13.5049C64.7191 13.1312 64.6166 12.7028 64.6166 12.2197C64.6166 11.3493 64.8604 10.668 65.348 10.1758C65.8356 9.68359 66.4896 9.4375 67.3099 9.4375C68.1394 9.4375 68.7956 9.68587 69.2787 10.1826C69.7618 10.6794 70.0033 11.3584 70.0033 12.2197ZM67.3236 18.0576C67.6153 18.0576 67.8386 17.9346 67.9935 17.6885C68.153 17.4378 68.2328 17.0915 68.2328 16.6494C68.2328 16.2074 68.1507 15.861 67.9867 15.6104C67.8226 15.3597 67.597 15.2344 67.3099 15.2344C67.0228 15.2344 66.795 15.3597 66.6263 15.6104C66.4623 15.861 66.3802 16.2074 66.3802 16.6494C66.3802 17.0915 66.4623 17.4378 66.6263 17.6885C66.795 17.9346 67.0274 18.0576 67.3236 18.0576ZM68.0756 12.3223C68.0756 11.9349 68.0118 11.625 67.8841 11.3926C67.7611 11.1602 67.5697 11.0439 67.3099 11.0439C67.0638 11.0439 66.877 11.1579 66.7494 11.3857C66.6218 11.609 66.558 11.9212 66.558 12.3223C66.558 12.7142 66.6218 13.0309 66.7494 13.2725C66.877 13.5094 67.0684 13.6279 67.3236 13.6279C67.5788 13.6279 67.7679 13.5094 67.891 13.2725C68.014 13.0309 68.0756 12.7142 68.0756 12.3223Z" fill="white"/>
<rect x="45.2676" y="99.1016" width="94.7778" height="70.8842" fill="#CBF2FF"/>
</svg>
