<svg width="182" height="238" viewBox="0 0 182 238" fill="none" xmlns="http://www.w3.org/2000/svg">
<rect x="0.708984" y="25.2158" width="180.591" height="211.653" stroke="#56CCF2"/>
<rect x="0.208984" y="0.0258789" width="83.8112" height="24.69" fill="#56CCF2"/>
<path d="M21.8403 19.2119H19.8989V11.6104L18.0054 12.3418V10.7285L21.6352 9.24512H21.8403V19.2119ZM30.6688 19.2119H24.8036V17.8447L27.4969 14.4199C27.8387 13.946 28.0894 13.5312 28.2489 13.1758C28.4129 12.8158 28.495 12.4717 28.495 12.1436C28.495 11.7015 28.4175 11.3551 28.2625 11.1045C28.1122 10.8538 27.8934 10.7285 27.6063 10.7285C27.2918 10.7285 27.0412 10.8743 26.8543 11.166C26.672 11.4577 26.5809 11.8678 26.5809 12.3965H24.6395C24.6395 11.7858 24.7648 11.2275 25.0155 10.7217C25.2707 10.2158 25.6261 9.82389 26.0819 9.5459C26.5422 9.26335 27.0617 9.12207 27.6405 9.12207C28.5291 9.12207 29.2173 9.36816 29.7049 9.86035C30.1971 10.348 30.4432 11.043 30.4432 11.9453C30.4432 12.5059 30.3065 13.0755 30.033 13.6543C29.7642 14.2285 29.2743 14.9372 28.5633 15.7803L27.285 17.6055H30.6688V19.2119ZM37.8088 15.0967C37.8088 16.473 37.5581 17.5257 37.0568 18.2549C36.5601 18.984 35.8492 19.3486 34.924 19.3486C34.008 19.3486 33.2994 18.9954 32.798 18.2891C32.3013 17.5781 32.0438 16.5618 32.0256 15.2402V13.3604C32.0256 11.9886 32.274 10.9404 32.7707 10.2158C33.2675 9.48665 33.9807 9.12207 34.9104 9.12207C35.84 9.12207 36.5533 9.4821 37.05 10.2021C37.5467 10.9222 37.7997 11.9499 37.8088 13.2852V15.0967ZM35.8674 13.0801C35.8674 12.2962 35.7899 11.7083 35.635 11.3164C35.48 10.9245 35.2385 10.7285 34.9104 10.7285C34.2951 10.7285 33.9761 11.4463 33.9533 12.8818V15.3633C33.9533 16.1654 34.0308 16.7624 34.1857 17.1543C34.3453 17.5462 34.5913 17.7422 34.924 17.7422C35.2385 17.7422 35.4709 17.5599 35.6213 17.1953C35.7762 16.8262 35.8583 16.2633 35.8674 15.5068V13.0801ZM41.7769 14.0098L42.6382 11.8154H44.689L43.0005 15.4316L44.7505 19.2119H42.6929L41.7838 16.8945L40.8814 19.2119H38.817L40.567 15.4316L38.8922 11.8154H40.9498L41.7769 14.0098ZM50.3456 9.15625V10.7969H50.2363C49.5116 10.8014 48.9351 11.0202 48.5068 11.4531C48.0829 11.8815 47.8254 12.4831 47.7343 13.2578C48.149 12.7839 48.6685 12.5469 49.2929 12.5469C50.0129 12.5469 50.5872 12.8545 51.0155 13.4697C51.4485 14.085 51.665 14.9053 51.665 15.9307C51.665 16.5824 51.5419 17.1702 51.2958 17.6943C51.0497 18.2184 50.7034 18.6263 50.2568 18.918C49.8147 19.2051 49.3134 19.3486 48.7529 19.3486C47.8505 19.3486 47.1259 18.9863 46.579 18.2617C46.0367 17.5371 45.7655 16.5618 45.7655 15.3359V14.6182C45.7655 13.5199 45.9364 12.5583 46.2782 11.7334C46.6246 10.9085 47.1213 10.2751 47.7685 9.83301C48.4202 9.38639 49.179 9.16081 50.0448 9.15625H50.3456ZM48.6845 14.1465C48.4384 14.1465 48.231 14.224 48.0624 14.3789C47.8984 14.5339 47.7753 14.7253 47.6933 14.9531V15.6504C47.6933 16.3522 47.7867 16.8763 47.9736 17.2227C48.1604 17.569 48.4065 17.7422 48.7118 17.7422C49.0217 17.7422 49.2701 17.5758 49.457 17.2432C49.6438 16.9059 49.7372 16.4753 49.7372 15.9512C49.7372 15.418 49.6392 14.985 49.4433 14.6523C49.2519 14.3151 48.9989 14.1465 48.6845 14.1465ZM58.7366 15.0967C58.7366 16.473 58.486 17.5257 57.9846 18.2549C57.4879 18.984 56.777 19.3486 55.8518 19.3486C54.9358 19.3486 54.2272 18.9954 53.7259 18.2891C53.2291 17.5781 52.9716 16.5618 52.9534 15.2402V13.3604C52.9534 11.9886 53.2018 10.9404 53.6985 10.2158C54.1953 9.48665 54.9085 9.12207 55.8382 9.12207C56.7679 9.12207 57.4811 9.4821 57.9778 10.2021C58.4746 10.9222 58.7275 11.9499 58.7366 13.2852V15.0967ZM56.7952 13.0801C56.7952 12.2962 56.7177 11.7083 56.5628 11.3164C56.4078 10.9245 56.1663 10.7285 55.8382 10.7285C55.2229 10.7285 54.9039 11.4463 54.8811 12.8818V15.3633C54.8811 16.1654 54.9586 16.7624 55.1136 17.1543C55.2731 17.5462 55.5192 17.7422 55.8518 17.7422C56.1663 17.7422 56.3987 17.5599 56.5491 17.1953C56.7041 16.8262 56.7861 16.2633 56.7952 15.5068V13.0801ZM65.9586 15.0967C65.9586 16.473 65.708 17.5257 65.2067 18.2549C64.7099 18.984 63.999 19.3486 63.0739 19.3486C62.1579 19.3486 61.4492 18.9954 60.9479 18.2891C60.4511 17.5781 60.1937 16.5618 60.1754 15.2402V13.3604C60.1754 11.9886 60.4238 10.9404 60.9205 10.2158C61.4173 9.48665 62.1305 9.12207 63.0602 9.12207C63.9899 9.12207 64.7031 9.4821 65.1998 10.2021C65.6966 10.9222 65.9495 11.9499 65.9586 13.2852V15.0967ZM64.0172 13.0801C64.0172 12.2962 63.9398 11.7083 63.7848 11.3164C63.6299 10.9245 63.3883 10.7285 63.0602 10.7285C62.445 10.7285 62.126 11.4463 62.1032 12.8818V15.3633C62.1032 16.1654 62.1806 16.7624 62.3356 17.1543C62.4951 17.5462 62.7412 17.7422 63.0739 17.7422C63.3883 17.7422 63.6207 17.5599 63.7711 17.1953C63.9261 16.8262 64.0081 16.2633 64.0172 15.5068V13.0801Z" fill="white"/>
<rect x="83.8379" y="73.2993" width="20.7078" height="103.539" fill="#CBF2FF"/>
</svg>
