<svg width="184" height="238" viewBox="0 0 184 238" fill="none" xmlns="http://www.w3.org/2000/svg">
<rect x="1.16602" y="25.8472" width="181.387" height="211.653" stroke="#56CCF2"/>
<rect x="0.666016" y="0.657227" width="84.1788" height="24.69" fill="#56CCF2"/>
<path d="M34.4384 15.7622C34.4384 17.0975 34.1216 18.1343 33.4882 18.8726C32.8593 19.6108 31.9843 19.98 30.8632 19.98C29.7466 19.98 28.8694 19.6154 28.2313 18.8862C27.5933 18.1525 27.2697 17.1271 27.2606 15.8101V14.1079C27.2606 12.7407 27.5774 11.6743 28.2108 10.9087C28.8443 10.1385 29.7238 9.75342 30.8495 9.75342C31.9569 9.75342 32.8296 10.1317 33.4677 10.8882C34.1057 11.6401 34.4292 12.6974 34.4384 14.0601V15.7622ZM32.4218 14.0942C32.4218 13.1965 32.2942 12.5288 32.0389 12.0913C31.7837 11.6538 31.3873 11.4351 30.8495 11.4351C30.3163 11.4351 29.9221 11.647 29.6669 12.0708C29.4117 12.4901 29.2795 13.1304 29.2704 13.9917V15.7622C29.2704 16.6326 29.4003 17.2752 29.66 17.6899C29.9198 18.1001 30.3209 18.3052 30.8632 18.3052C31.3873 18.3052 31.7769 18.1047 32.0321 17.7036C32.2873 17.298 32.4172 16.6714 32.4218 15.8237V14.0942ZM38.1741 10.6284V12.4468H39.1653V13.9028H38.1741V17.5737C38.1741 17.8654 38.2128 18.0659 38.2903 18.1753C38.3723 18.2847 38.5273 18.3394 38.7551 18.3394C38.942 18.3394 39.0946 18.3234 39.2131 18.2915L39.1995 19.7954C38.8713 19.9185 38.5159 19.98 38.1331 19.98C36.8844 19.98 36.2532 19.2645 36.2395 17.8335V13.9028H35.385V12.4468H36.2395V10.6284H38.1741ZM42.2584 13.0962C42.6777 12.5721 43.1926 12.3101 43.8033 12.3101C44.4778 12.3101 44.9905 12.547 45.3414 13.021C45.6923 13.495 45.8701 14.2013 45.8746 15.1401V19.8433H43.9332V15.1606C43.9332 14.7277 43.8648 14.4155 43.7281 14.2241C43.596 14.0282 43.3795 13.9302 43.0787 13.9302C42.7278 13.9302 42.4544 14.092 42.2584 14.4155V19.8433H40.3238V9.34326H42.2584V13.0962ZM50.3896 19.98C49.3961 19.98 48.6214 19.6838 48.0654 19.0913C47.5094 18.4989 47.2314 17.6512 47.2314 16.5483V15.9604C47.2314 14.7938 47.4866 13.8937 47.997 13.2603C48.5075 12.6268 49.2389 12.3101 50.1914 12.3101C51.1211 12.3101 51.8206 12.6086 52.29 13.2056C52.7594 13.798 52.9987 14.6776 53.0078 15.8442V16.7944H49.1591C49.1865 17.3413 49.3073 17.7424 49.5215 17.9976C49.7356 18.2482 50.066 18.3735 50.5127 18.3735C51.1598 18.3735 51.6998 18.1525 52.1328 17.7104L52.8916 18.8794C52.6546 19.2075 52.3105 19.4741 51.8593 19.6792C51.4082 19.8797 50.9183 19.98 50.3896 19.98ZM49.1728 15.4409H51.1074V15.2632C51.0983 14.8211 51.0254 14.4862 50.8886 14.2583C50.7519 14.0304 50.5149 13.9165 50.1777 13.9165C49.8405 13.9165 49.5944 14.0373 49.4394 14.2788C49.289 14.5203 49.2002 14.9077 49.1728 15.4409ZM57.8919 14.313L57.2493 14.2583C56.7207 14.2583 56.3629 14.4907 56.1761 14.9556V19.8433H54.2347V12.4468H56.0599L56.1146 13.2466C56.4199 12.6222 56.8415 12.3101 57.3792 12.3101C57.598 12.3101 57.7757 12.3397 57.9124 12.3989L57.8919 14.313Z" fill="white"/>
<rect x="37.3027" y="93.0454" width="109.114" height="82.0345" fill="#CBF2FF"/>
</svg>
