<svg width="183" height="238" viewBox="0 0 183 238" fill="none" xmlns="http://www.w3.org/2000/svg">
<rect x="0.685547" y="25.5312" width="181.387" height="211.653" stroke="#56CCF2"/>
<rect x="0.185547" y="0.341309" width="84.1788" height="24.69" fill="#56CCF2"/>
<path d="M23.605 19.5273H17.7398V18.1602L20.4331 14.7354C20.7749 14.2614 21.0256 13.8467 21.1851 13.4912C21.3491 13.1312 21.4312 12.7871 21.4312 12.459C21.4312 12.0169 21.3537 11.6706 21.1988 11.4199C21.0484 11.1693 20.8296 11.0439 20.5425 11.0439C20.2281 11.0439 19.9774 11.1898 19.7906 11.4814C19.6083 11.7731 19.5171 12.1833 19.5171 12.7119H17.5757C17.5757 12.1012 17.701 11.543 17.9517 11.0371C18.2069 10.5312 18.5624 10.1393 19.0181 9.86133C19.4784 9.57878 19.9979 9.4375 20.5767 9.4375C21.4654 9.4375 22.1535 9.68359 22.6411 10.1758C23.1333 10.6634 23.3794 11.3584 23.3794 12.2607C23.3794 12.8213 23.2427 13.391 22.9693 13.9697C22.7004 14.5439 22.2105 15.2526 21.4995 16.0957L20.2212 17.9209H23.605V19.5273ZM25.16 14.6328L25.6522 9.57422H30.4716V11.2285H27.2382L27.0604 13.3613C27.4341 13.1107 27.8192 12.9854 28.2157 12.9854C29.036 12.9854 29.6672 13.277 30.1093 13.8604C30.5559 14.4437 30.7792 15.2686 30.7792 16.335C30.7792 17.333 30.5149 18.1374 29.9862 18.748C29.4576 19.3587 28.7512 19.6641 27.8671 19.6641C27.343 19.6641 26.8576 19.541 26.411 19.2949C25.9644 19.0443 25.6112 18.6979 25.3514 18.2559C25.0962 17.8138 24.9664 17.3125 24.9618 16.752H26.8759C26.9078 17.1667 27.0103 17.488 27.1835 17.7158C27.3567 17.9437 27.58 18.0576 27.8534 18.0576C28.1724 18.0576 28.4185 17.9049 28.5917 17.5996C28.7649 17.2897 28.8514 16.8294 28.8514 16.2188C28.8514 15.6445 28.7466 15.2116 28.537 14.9199C28.3319 14.6283 28.0425 14.4824 27.6688 14.4824C27.3042 14.4824 27.0217 14.6077 26.8212 14.8584L26.6981 15.0293L25.16 14.6328ZM37.967 15.4121C37.967 16.7884 37.7164 17.8411 37.2151 18.5703C36.7183 19.2995 36.0074 19.6641 35.0823 19.6641C34.1663 19.6641 33.4576 19.3109 32.9563 18.6045C32.4596 17.8936 32.2021 16.8773 32.1838 15.5557V13.6758C32.1838 12.304 32.4322 11.2559 32.929 10.5312C33.4257 9.80208 34.1389 9.4375 35.0686 9.4375C35.9983 9.4375 36.7115 9.79753 37.2082 10.5176C37.705 11.2376 37.9579 12.2653 37.967 13.6006V15.4121ZM36.0256 13.3955C36.0256 12.6117 35.9482 12.0238 35.7932 11.6318C35.6383 11.2399 35.3967 11.0439 35.0686 11.0439C34.4534 11.0439 34.1344 11.7617 34.1116 13.1973V15.6787C34.1116 16.4808 34.189 17.0778 34.344 17.4697C34.5035 17.8617 34.7496 18.0576 35.0823 18.0576C35.3967 18.0576 35.6291 17.8753 35.7795 17.5107C35.9345 17.1416 36.0165 16.5788 36.0256 15.8223V13.3955ZM41.9352 14.3252L42.7965 12.1309H44.8473L43.1588 15.7471L44.9088 19.5273H42.8512L41.942 17.21L41.0397 19.5273H38.9752L40.7252 15.7471L39.0504 12.1309H41.108L41.9352 14.3252ZM51.7548 19.5273H45.8896V18.1602L48.583 14.7354C48.9248 14.2614 49.1754 13.8467 49.3349 13.4912C49.499 13.1312 49.581 12.7871 49.581 12.459C49.581 12.0169 49.5035 11.6706 49.3486 11.4199C49.1982 11.1693 48.9795 11.0439 48.6923 11.0439C48.3779 11.0439 48.1272 11.1898 47.9404 11.4814C47.7581 11.7731 47.667 12.1833 47.667 12.7119H45.7256C45.7256 12.1012 45.8509 11.543 46.1015 11.0371C46.3567 10.5312 46.7122 10.1393 47.1679 9.86133C47.6282 9.57878 48.1478 9.4375 48.7265 9.4375C49.6152 9.4375 50.3034 9.68359 50.791 10.1758C51.2832 10.6634 51.5293 11.3584 51.5293 12.2607C51.5293 12.8213 51.3925 13.391 51.1191 13.9697C50.8502 14.5439 50.3603 15.2526 49.6494 16.0957L48.3711 17.9209H51.7548V19.5273ZM53.3099 14.6328L53.8021 9.57422H58.6214V11.2285H55.388L55.2103 13.3613C55.584 13.1107 55.9691 12.9854 56.3656 12.9854C57.1859 12.9854 57.8171 13.277 58.2591 13.8604C58.7057 14.4437 58.929 15.2686 58.929 16.335C58.929 17.333 58.6647 18.1374 58.1361 18.748C57.6074 19.3587 56.901 19.6641 56.0169 19.6641C55.4928 19.6641 55.0075 19.541 54.5609 19.2949C54.1143 19.0443 53.7611 18.6979 53.5013 18.2559C53.2461 17.8138 53.1162 17.3125 53.1116 16.752H55.0257C55.0576 17.1667 55.1602 17.488 55.3333 17.7158C55.5065 17.9437 55.7298 18.0576 56.0033 18.0576C56.3223 18.0576 56.5684 17.9049 56.7415 17.5996C56.9147 17.2897 57.0013 16.8294 57.0013 16.2188C57.0013 15.6445 56.8965 15.2116 56.6868 14.9199C56.4818 14.6283 56.1924 14.4824 55.8187 14.4824C55.4541 14.4824 55.1715 14.6077 54.971 14.8584L54.848 15.0293L53.3099 14.6328ZM66.1169 15.4121C66.1169 16.7884 65.8662 17.8411 65.3649 18.5703C64.8682 19.2995 64.1572 19.6641 63.2321 19.6641C62.3161 19.6641 61.6074 19.3109 61.1061 18.6045C60.6094 17.8936 60.3519 16.8773 60.3337 15.5557V13.6758C60.3337 12.304 60.5821 11.2559 61.0788 10.5312C61.5755 9.80208 62.2888 9.4375 63.2184 9.4375C64.1481 9.4375 64.8613 9.79753 65.3581 10.5176C65.8548 11.2376 66.1078 12.2653 66.1169 13.6006V15.4121ZM64.1755 13.3955C64.1755 12.6117 64.098 12.0238 63.9431 11.6318C63.7881 11.2399 63.5466 11.0439 63.2184 11.0439C62.6032 11.0439 62.2842 11.7617 62.2614 13.1973V15.6787C62.2614 16.4808 62.3389 17.0778 62.4938 17.4697C62.6533 17.8617 62.8994 18.0576 63.2321 18.0576C63.5466 18.0576 63.779 17.8753 63.9294 17.5107C64.0843 17.1416 64.1664 16.5788 64.1755 15.8223V13.3955Z" fill="white"/>
<rect x="61.5117" y="99.1016" width="64.5126" height="64.5126" fill="#CBF2FF"/>
</svg>
