<svg width="183" height="238" viewBox="0 0 183 238" fill="none" xmlns="http://www.w3.org/2000/svg">
<rect x="0.685547" y="25.2168" width="181.387" height="211.653" stroke="#56CCF2"/>
<rect x="0.185547" y="0.0268555" width="84.1788" height="24.69" fill="#56CCF2"/>
<path d="M18.3875 19.2129H16.4461V11.6113L14.5526 12.3428V10.7295L18.1825 9.24609H18.3875V19.2129ZM27.134 15.0977C27.134 16.474 26.8833 17.5267 26.382 18.2559C25.8853 18.985 25.1744 19.3496 24.2492 19.3496C23.3332 19.3496 22.6245 18.9964 22.1232 18.29C21.6265 17.5791 21.369 16.5628 21.3508 15.2412V13.3613C21.3508 11.9896 21.5992 10.9414 22.0959 10.2168C22.5926 9.48763 23.3059 9.12305 24.2356 9.12305C25.1652 9.12305 25.8785 9.48307 26.3752 10.2031C26.8719 10.9232 27.1249 11.9508 27.134 13.2861V15.0977ZM25.1926 13.0811C25.1926 12.2972 25.1151 11.7093 24.9602 11.3174C24.8052 10.9255 24.5637 10.7295 24.2356 10.7295C23.6203 10.7295 23.3013 11.4473 23.2785 12.8828V15.3643C23.2785 16.1663 23.356 16.7633 23.5109 17.1553C23.6704 17.5472 23.9165 17.7432 24.2492 17.7432C24.5637 17.7432 24.7961 17.5609 24.9465 17.1963C25.1014 16.8271 25.1835 16.2643 25.1926 15.5078V13.0811ZM34.4381 19.2129H28.5728V17.8457L31.2662 14.4209C31.608 13.9469 31.8586 13.5322 32.0181 13.1768C32.1822 12.8167 32.2642 12.4727 32.2642 12.1445C32.2642 11.7025 32.1868 11.3561 32.0318 11.1055C31.8814 10.8548 31.6627 10.7295 31.3756 10.7295C31.0611 10.7295 30.8104 10.8753 30.6236 11.167C30.4413 11.4587 30.3502 11.8688 30.3502 12.3975H28.4088C28.4088 11.7868 28.5341 11.2285 28.7847 10.7227C29.0399 10.2168 29.3954 9.82487 29.8511 9.54688C30.3114 9.26432 30.831 9.12305 31.4097 9.12305C32.2984 9.12305 32.9866 9.36914 33.4742 9.86133C33.9664 10.349 34.2125 11.0439 34.2125 11.9463C34.2125 12.5068 34.0757 13.0765 33.8023 13.6553C33.5334 14.2295 33.0435 14.9382 32.3326 15.7812L31.0543 17.6064H34.4381V19.2129ZM40.8945 15.4531H41.7421V17.0596H40.8945V19.2129H38.9599V17.0596H35.665L35.5761 15.8086L38.9531 9.25977H40.8945V15.4531ZM37.456 15.4531H38.9599V12.124L38.9189 12.1992L37.456 15.4531ZM45.5462 14.0107L46.4075 11.8164H48.4583L46.7698 15.4326L48.5198 19.2129H46.4622L45.553 16.8955L44.6507 19.2129H42.5862L44.3362 15.4326L42.6614 11.8164H44.719L45.5462 14.0107ZM55.3385 10.374L52.194 19.2129H50.15L53.3083 10.8662H49.3161V9.25977H55.3385V10.374ZM61.3369 9.15723V10.7979H61.2275C60.5029 10.8024 59.9264 11.0212 59.4981 11.4541C59.0742 11.8825 58.8167 12.484 58.7256 13.2588C59.1403 12.7848 59.6598 12.5479 60.2842 12.5479C61.0042 12.5479 61.5785 12.8555 62.0068 13.4707C62.4398 14.0859 62.6563 14.9062 62.6563 15.9316C62.6563 16.5833 62.5332 17.1712 62.2871 17.6953C62.041 18.2194 61.6947 18.6273 61.2481 18.9189C60.806 19.2061 60.3047 19.3496 59.7441 19.3496C58.8418 19.3496 58.1172 18.9873 57.5703 18.2627C57.028 17.5381 56.7568 16.5628 56.7568 15.3369V14.6191C56.7568 13.5208 56.9277 12.5592 57.2695 11.7344C57.6159 10.9095 58.1126 10.276 58.7598 9.83398C59.4115 9.38737 60.1703 9.16178 61.0361 9.15723H61.3369ZM59.6758 14.1475C59.4297 14.1475 59.2223 14.2249 59.0537 14.3799C58.8897 14.5348 58.7666 14.7262 58.6846 14.9541V15.6514C58.6846 16.3532 58.778 16.8773 58.9649 17.2236C59.1517 17.57 59.3978 17.7432 59.7031 17.7432C60.013 17.7432 60.2614 17.5768 60.4482 17.2441C60.6351 16.9069 60.7285 16.4762 60.7285 15.9521C60.7285 15.4189 60.6305 14.986 60.4346 14.6533C60.2432 14.3161 59.9902 14.1475 59.6758 14.1475ZM69.5228 11.9053C69.5228 12.3883 69.4203 12.8167 69.2152 13.1904C69.0101 13.5641 68.7276 13.8626 68.3675 14.0859C68.7777 14.3184 69.1013 14.6396 69.3382 15.0498C69.5752 15.4554 69.6937 15.9339 69.6937 16.4854C69.6937 17.3695 69.4385 18.069 68.9281 18.584C68.4177 19.0944 67.7227 19.3496 66.8431 19.3496C65.9636 19.3496 65.264 19.0944 64.7445 18.584C64.225 18.069 63.9652 17.3695 63.9652 16.4854C63.9652 15.9339 64.0837 15.4531 64.3207 15.043C64.5577 14.6328 64.8835 14.3138 65.2982 14.0859C64.9336 13.8626 64.6488 13.5641 64.4437 13.1904C64.2386 12.8167 64.1361 12.3883 64.1361 11.9053C64.1361 11.0348 64.3799 10.3535 64.8675 9.86133C65.3552 9.36914 66.0091 9.12305 66.8295 9.12305C67.6589 9.12305 68.3151 9.37142 68.7982 9.86816C69.2813 10.3649 69.5228 11.0439 69.5228 11.9053ZM66.8431 17.7432C67.1348 17.7432 67.3581 17.6201 67.5131 17.374C67.6726 17.1234 67.7523 16.777 67.7523 16.335C67.7523 15.8929 67.6703 15.5465 67.5062 15.2959C67.3422 15.0452 67.1166 14.9199 66.8295 14.9199C66.5424 14.9199 66.3145 15.0452 66.1459 15.2959C65.9818 15.5465 65.8998 15.8929 65.8998 16.335C65.8998 16.777 65.9818 17.1234 66.1459 17.374C66.3145 17.6201 66.5469 17.7432 66.8431 17.7432ZM67.5951 12.0078C67.5951 11.6204 67.5313 11.3105 67.4037 11.0781C67.2806 10.8457 67.0892 10.7295 66.8295 10.7295C66.5834 10.7295 66.3965 10.8434 66.2689 11.0713C66.1413 11.2946 66.0775 11.6068 66.0775 12.0078C66.0775 12.3997 66.1413 12.7165 66.2689 12.958C66.3965 13.195 66.5879 13.3135 66.8431 13.3135C67.0983 13.3135 67.2875 13.195 67.4105 12.958C67.5336 12.7165 67.5951 12.3997 67.5951 12.0078Z" fill="white"/>
<rect x="35.2285" y="90.0249" width="109.114" height="82.0345" fill="#CBF2FF"/>
</svg>
