<svg width="183" height="238" viewBox="0 0 183 238" fill="none" xmlns="http://www.w3.org/2000/svg">
<rect x="0.9375" y="25.8472" width="180.591" height="211.653" stroke="#56CCF2"/>
<rect x="0.4375" y="0.657227" width="83.8112" height="24.69" fill="#56CCF2"/>
<path d="M25.1945 9.89014L27.0744 17.0884L28.9474 9.89014H31.5724V19.8433H29.5558V17.1499L29.7404 13.0005L27.7511 19.8433H26.3839L24.3947 13.0005L24.5793 17.1499V19.8433H22.5695V9.89014H25.1945ZM40.3394 15.7622C40.3394 17.0975 40.0226 18.1343 39.3892 18.8726C38.7603 19.6108 37.8853 19.98 36.7642 19.98C35.6476 19.98 34.7704 19.6154 34.1323 18.8862C33.4943 18.1525 33.1708 17.1271 33.1616 15.8101V14.1079C33.1616 12.7407 33.4784 11.6743 34.1118 10.9087C34.7453 10.1385 35.6249 9.75342 36.7505 9.75342C37.8579 9.75342 38.7307 10.1317 39.3687 10.8882C40.0067 11.6401 40.3303 12.6974 40.3394 14.0601V15.7622ZM38.3228 14.0942C38.3228 13.1965 38.1952 12.5288 37.94 12.0913C37.6848 11.6538 37.2883 11.4351 36.7505 11.4351C36.2173 11.4351 35.8231 11.647 35.5679 12.0708C35.3127 12.4901 35.1805 13.1304 35.1714 13.9917V15.7622C35.1714 16.6326 35.3013 17.2752 35.5611 17.6899C35.8208 18.1001 36.2219 18.3052 36.7642 18.3052C37.2883 18.3052 37.6779 18.1047 37.9331 17.7036C38.1883 17.298 38.3182 16.6714 38.3228 15.8237V14.0942ZM47.5956 16.3843C47.5956 17.5828 47.4042 18.4829 47.0214 19.0845C46.6386 19.6815 46.037 19.98 45.2167 19.98C44.5741 19.98 44.0591 19.6906 43.6718 19.1118L43.6102 19.8433H41.8261V9.34326H43.7606V13.0483C44.1252 12.5562 44.606 12.3101 45.203 12.3101C46.0233 12.3101 46.6249 12.6086 47.0077 13.2056C47.3905 13.798 47.5865 14.6685 47.5956 15.8169V16.3843ZM45.661 15.8989C45.661 15.1196 45.5858 14.5978 45.4354 14.3335C45.285 14.0646 45.023 13.9302 44.6493 13.9302C44.2437 13.9302 43.9475 14.1147 43.7606 14.4839V17.854C43.9338 18.2004 44.2346 18.3735 44.663 18.3735C45.0321 18.3735 45.2873 18.2528 45.4286 18.0112C45.5744 17.7697 45.6519 17.3003 45.661 16.603V15.8989ZM50.928 19.8433H48.9866V12.4468H50.928V19.8433ZM48.8977 10.5327C48.8977 10.2319 48.9934 9.98584 49.1848 9.79443C49.3762 9.60303 49.6314 9.50732 49.9504 9.50732C50.2694 9.50732 50.5247 9.60303 50.7161 9.79443C50.9075 9.98584 51.0032 10.2319 51.0032 10.5327C51.0032 10.8289 50.9075 11.075 50.7161 11.271C50.5292 11.467 50.274 11.5649 49.9504 11.5649C49.6269 11.5649 49.3694 11.467 49.178 11.271C48.9911 11.075 48.8977 10.8289 48.8977 10.5327ZM54.5953 19.8433H52.6539V9.34326H54.5953V19.8433ZM59.2197 19.98C58.2262 19.98 57.4515 19.6838 56.8955 19.0913C56.3395 18.4989 56.0615 17.6512 56.0615 16.5483V15.9604C56.0615 14.7938 56.3167 13.8937 56.8271 13.2603C57.3375 12.6268 58.069 12.3101 59.0214 12.3101C59.9511 12.3101 60.6507 12.6086 61.1201 13.2056C61.5895 13.798 61.8287 14.6776 61.8379 15.8442V16.7944H57.9892C58.0166 17.3413 58.1373 17.7424 58.3515 17.9976C58.5657 18.2482 58.8961 18.3735 59.3427 18.3735C59.9899 18.3735 60.5299 18.1525 60.9629 17.7104L61.7216 18.8794C61.4847 19.2075 61.1406 19.4741 60.6894 19.6792C60.2382 19.8797 59.7483 19.98 59.2197 19.98ZM58.0029 15.4409H59.9375V15.2632C59.9283 14.8211 59.8554 14.4862 59.7187 14.2583C59.582 14.0304 59.345 13.9165 59.0078 13.9165C58.6705 13.9165 58.4244 14.0373 58.2695 14.2788C58.1191 14.5203 58.0302 14.9077 58.0029 15.4409Z" fill="white"/>
<rect x="59.375" y="89.0635" width="57.3445" height="86.0168" fill="#CBF2FF"/>
</svg>
