<svg width="182" height="238" viewBox="0 0 182 238" fill="none" xmlns="http://www.w3.org/2000/svg">
<rect x="0.708984" y="25.8472" width="180.591" height="211.653" stroke="#56CCF2"/>
<rect x="0.208984" y="0.657227" width="83.8112" height="24.69" fill="#56CCF2"/>
<path d="M18.2293 19.8433H16.2879V12.2417L14.3943 12.9731V11.3599L18.0242 9.87646H18.2293V19.8433ZM26.9757 15.728C26.9757 17.1043 26.7251 18.1571 26.2238 18.8862C25.727 19.6154 25.0161 19.98 24.091 19.98C23.175 19.98 22.4663 19.6268 21.965 18.9204C21.4683 18.2095 21.2108 17.1932 21.1925 15.8716V13.9917C21.1925 12.62 21.4409 11.5718 21.9377 10.8472C22.4344 10.118 23.1476 9.75342 24.0773 9.75342C25.007 9.75342 25.7202 10.1134 26.217 10.8335C26.7137 11.5535 26.9666 12.5812 26.9757 13.9165V15.728ZM25.0343 13.7114C25.0343 12.9276 24.9569 12.3397 24.8019 11.9478C24.647 11.5558 24.4054 11.3599 24.0773 11.3599C23.4621 11.3599 23.1431 12.0776 23.1203 13.5132V15.9946C23.1203 16.7967 23.1977 17.3937 23.3527 17.7856C23.5122 18.1776 23.7583 18.3735 24.091 18.3735C24.4054 18.3735 24.6379 18.1912 24.7882 17.8267C24.9432 17.4575 25.0252 16.8947 25.0343 16.1382V13.7114ZM34.2798 19.8433H28.4146V18.4761L31.1079 15.0513C31.4497 14.5773 31.7004 14.1626 31.8599 13.8071C32.0239 13.4471 32.106 13.103 32.106 12.7749C32.106 12.3328 32.0285 11.9865 31.8736 11.7358C31.7232 11.4852 31.5044 11.3599 31.2173 11.3599C30.9029 11.3599 30.6522 11.5057 30.4654 11.7974C30.2831 12.089 30.1919 12.4992 30.1919 13.0278H28.2505C28.2505 12.4172 28.3758 11.8589 28.6265 11.353C28.8817 10.8472 29.2372 10.4552 29.6929 10.1772C30.1532 9.89469 30.6727 9.75342 31.2515 9.75342C32.1402 9.75342 32.8283 9.99951 33.3159 10.4917C33.8081 10.9793 34.0542 11.6743 34.0542 12.5767C34.0542 13.1372 33.9175 13.7069 33.6441 14.2856C33.3752 14.8599 32.8853 15.5685 32.1743 16.4116L30.896 18.2368H34.2798V19.8433ZM40.7362 16.0835H41.5839V17.6899H40.7362V19.8433H38.8016V17.6899H35.5067L35.4179 16.439L38.7948 9.89014H40.7362V16.0835ZM37.2977 16.0835H38.8016V12.7544L38.7606 12.8296L37.2977 16.0835ZM45.3879 14.6411L46.2493 12.4468H48.3L46.6116 16.063L48.3616 19.8433H46.3039L45.3948 17.5259L44.4924 19.8433H42.428L44.178 16.063L42.5032 12.4468H44.5608L45.3879 14.6411ZM55.1803 11.0044L52.0357 19.8433H49.9918L53.15 11.4966H49.1578V9.89014H55.1803V11.0044ZM61.1787 9.7876V11.4282H61.0693C60.3447 11.4328 59.7682 11.6515 59.3398 12.0845C58.916 12.5129 58.6585 13.1144 58.5673 13.8892C58.9821 13.4152 59.5016 13.1782 60.1259 13.1782C60.846 13.1782 61.4202 13.4858 61.8486 14.1011C62.2815 14.7163 62.498 15.5366 62.498 16.562C62.498 17.2137 62.375 17.8016 62.1289 18.3257C61.8828 18.8498 61.5364 19.2576 61.0898 19.5493C60.6477 19.8364 60.1464 19.98 59.5859 19.98C58.6836 19.98 57.9589 19.6177 57.4121 18.8931C56.8698 18.1685 56.5986 17.1932 56.5986 15.9673V15.2495C56.5986 14.1512 56.7695 13.1896 57.1113 12.3647C57.4576 11.5399 57.9544 10.9064 58.6015 10.4644C59.2532 10.0177 60.012 9.79215 60.8779 9.7876H61.1787ZM59.5175 14.7778C59.2714 14.7778 59.0641 14.8553 58.8955 15.0103C58.7314 15.1652 58.6084 15.3566 58.5263 15.5845V16.2817C58.5263 16.9836 58.6198 17.5076 58.8066 17.854C58.9935 18.2004 59.2395 18.3735 59.5449 18.3735C59.8548 18.3735 60.1032 18.2072 60.29 17.8745C60.4768 17.5373 60.5703 17.1066 60.5703 16.5825C60.5703 16.0493 60.4723 15.6164 60.2763 15.2837C60.0849 14.9465 59.832 14.7778 59.5175 14.7778ZM69.3646 12.5356C69.3646 13.0187 69.262 13.4471 69.057 13.8208C68.8519 14.1945 68.5693 14.493 68.2093 14.7163C68.6195 14.9487 68.943 15.27 69.18 15.6802C69.417 16.0858 69.5355 16.5643 69.5355 17.1157C69.5355 17.9998 69.2803 18.6994 68.7698 19.2144C68.2594 19.7248 67.5644 19.98 66.6849 19.98C65.8053 19.98 65.1058 19.7248 64.5863 19.2144C64.0667 18.6994 63.807 17.9998 63.807 17.1157C63.807 16.5643 63.9254 16.0835 64.1624 15.6733C64.3994 15.2632 64.7252 14.9442 65.14 14.7163C64.7754 14.493 64.4905 14.1945 64.2855 13.8208C64.0804 13.4471 63.9779 13.0187 63.9779 12.5356C63.9779 11.6652 64.2217 10.9839 64.7093 10.4917C65.1969 9.99951 65.8509 9.75342 66.6712 9.75342C67.5006 9.75342 68.1569 10.0018 68.64 10.4985C69.123 10.9953 69.3646 11.6743 69.3646 12.5356ZM66.6849 18.3735C66.9765 18.3735 67.1999 18.2505 67.3548 18.0044C67.5143 17.7537 67.5941 17.4074 67.5941 16.9653C67.5941 16.5233 67.512 16.1769 67.348 15.9263C67.1839 15.6756 66.9583 15.5503 66.6712 15.5503C66.3841 15.5503 66.1562 15.6756 65.9876 15.9263C65.8236 16.1769 65.7415 16.5233 65.7415 16.9653C65.7415 17.4074 65.8236 17.7537 65.9876 18.0044C66.1562 18.2505 66.3887 18.3735 66.6849 18.3735ZM67.4368 12.6382C67.4368 12.2508 67.373 11.9409 67.2454 11.7085C67.1224 11.4761 66.931 11.3599 66.6712 11.3599C66.4251 11.3599 66.2383 11.4738 66.1107 11.7017C65.9831 11.925 65.9193 12.2371 65.9193 12.6382C65.9193 13.0301 65.9831 13.3468 66.1107 13.5884C66.2383 13.8254 66.4297 13.9438 66.6849 13.9438C66.9401 13.9438 67.1292 13.8254 67.2523 13.5884C67.3753 13.3468 67.4368 13.0301 67.4368 12.6382Z" fill="white"/>
<rect x="51.9785" y="99.417" width="78.8487" height="64.5126" fill="#CBF2FF"/>
</svg>
