<svg width="183" height="238" viewBox="0 0 183 238" fill="none" xmlns="http://www.w3.org/2000/svg">
<rect x="0.685547" y="25.8472" width="181.387" height="211.653" stroke="#56CCF2"/>
<rect x="0.185547" y="0.657227" width="84.1788" height="24.69" fill="#56CCF2"/>
<path d="M21.9986 19.8433H20.0572V12.2417L18.1636 12.9731V11.3599L21.7935 9.87646H21.9986V19.8433ZM29.5761 9.7876V11.4282H29.4667C28.7421 11.4328 28.1656 11.6515 27.7372 12.0845C27.3134 12.5129 27.0559 13.1144 26.9647 13.8892C27.3794 13.4152 27.899 13.1782 28.5233 13.1782C29.2434 13.1782 29.8176 13.4858 30.246 14.1011C30.6789 14.7163 30.8954 15.5366 30.8954 16.562C30.8954 17.2137 30.7723 17.8016 30.5263 18.3257C30.2802 18.8498 29.9338 19.2576 29.4872 19.5493C29.0451 19.8364 28.5438 19.98 27.9833 19.98C27.0809 19.98 26.3563 19.6177 25.8095 18.8931C25.2671 18.1685 24.996 17.1932 24.996 15.9673V15.2495C24.996 14.1512 25.1669 13.1896 25.5087 12.3647C25.855 11.5399 26.3518 10.9064 26.9989 10.4644C27.6506 10.0177 28.4094 9.79215 29.2753 9.7876H29.5761ZM27.9149 14.7778C27.6688 14.7778 27.4615 14.8553 27.2929 15.0103C27.1288 15.1652 27.0057 15.3566 26.9237 15.5845V16.2817C26.9237 16.9836 27.0171 17.5076 27.204 17.854C27.3908 18.2004 27.6369 18.3735 27.9423 18.3735C28.2522 18.3735 28.5005 18.2072 28.6874 17.8745C28.8742 17.5373 28.9677 17.1066 28.9677 16.5825C28.9677 16.0493 28.8697 15.6164 28.6737 15.2837C28.4823 14.9465 28.2294 14.7778 27.9149 14.7778ZM37.967 15.728C37.967 17.1043 37.7164 18.1571 37.2151 18.8862C36.7183 19.6154 36.0074 19.98 35.0823 19.98C34.1663 19.98 33.4576 19.6268 32.9563 18.9204C32.4596 18.2095 32.2021 17.1932 32.1838 15.8716V13.9917C32.1838 12.62 32.4322 11.5718 32.929 10.8472C33.4257 10.118 34.1389 9.75342 35.0686 9.75342C35.9983 9.75342 36.7115 10.1134 37.2082 10.8335C37.705 11.5535 37.9579 12.5812 37.967 13.9165V15.728ZM36.0256 13.7114C36.0256 12.9276 35.9482 12.3397 35.7932 11.9478C35.6383 11.5558 35.3967 11.3599 35.0686 11.3599C34.4534 11.3599 34.1344 12.0776 34.1116 13.5132V15.9946C34.1116 16.7967 34.189 17.3937 34.344 17.7856C34.5035 18.1776 34.7496 18.3735 35.0823 18.3735C35.3967 18.3735 35.6291 18.1912 35.7795 17.8267C35.9345 17.4575 36.0165 16.8947 36.0256 16.1382V13.7114ZM41.9352 14.6411L42.7965 12.4468H44.8473L43.1588 16.063L44.9088 19.8433H42.8512L41.942 17.5259L41.0397 19.8433H38.9752L40.7252 16.063L39.0504 12.4468H41.108L41.9352 14.6411ZM50.5039 9.7876V11.4282H50.3945C49.6699 11.4328 49.0934 11.6515 48.665 12.0845C48.2412 12.5129 47.9837 13.1144 47.8925 13.8892C48.3073 13.4152 48.8268 13.1782 49.4511 13.1782C50.1712 13.1782 50.7454 13.4858 51.1738 14.1011C51.6067 14.7163 51.8232 15.5366 51.8232 16.562C51.8232 17.2137 51.7002 17.8016 51.4541 18.3257C51.208 18.8498 50.8616 19.2576 50.415 19.5493C49.9729 19.8364 49.4716 19.98 48.9111 19.98C48.0088 19.98 47.2841 19.6177 46.7373 18.8931C46.195 18.1685 45.9238 17.1932 45.9238 15.9673V15.2495C45.9238 14.1512 46.0947 13.1896 46.4365 12.3647C46.7828 11.5399 47.2796 10.9064 47.9267 10.4644C48.5784 10.0177 49.3372 9.79215 50.2031 9.7876H50.5039ZM48.8427 14.7778C48.5966 14.7778 48.3893 14.8553 48.2207 15.0103C48.0566 15.1652 47.9336 15.3566 47.8515 15.5845V16.2817C47.8515 16.9836 47.945 17.5076 48.1318 17.854C48.3187 18.2004 48.5647 18.3735 48.8701 18.3735C49.18 18.3735 49.4284 18.2072 49.6152 17.8745C49.802 17.5373 49.8955 17.1066 49.8955 16.5825C49.8955 16.0493 49.7975 15.6164 49.6015 15.2837C49.4101 14.9465 49.1572 14.7778 48.8427 14.7778ZM58.8949 15.728C58.8949 17.1043 58.6442 18.1571 58.1429 18.8862C57.6462 19.6154 56.9352 19.98 56.0101 19.98C55.0941 19.98 54.3854 19.6268 53.8841 18.9204C53.3874 18.2095 53.1299 17.1932 53.1116 15.8716V13.9917C53.1116 12.62 53.36 11.5718 53.8568 10.8472C54.3535 10.118 55.0667 9.75342 55.9964 9.75342C56.9261 9.75342 57.6393 10.1134 58.1361 10.8335C58.6328 11.5535 58.8857 12.5812 58.8949 13.9165V15.728ZM56.9534 13.7114C56.9534 12.9276 56.876 12.3397 56.721 11.9478C56.5661 11.5558 56.3245 11.3599 55.9964 11.3599C55.3812 11.3599 55.0622 12.0776 55.0394 13.5132V15.9946C55.0394 16.7967 55.1169 17.3937 55.2718 17.7856C55.4313 18.1776 55.6774 18.3735 56.0101 18.3735C56.3245 18.3735 56.557 18.1912 56.7074 17.8267C56.8623 17.4575 56.9443 16.8947 56.9534 16.1382V13.7114ZM66.1169 15.728C66.1169 17.1043 65.8662 18.1571 65.3649 18.8862C64.8682 19.6154 64.1572 19.98 63.2321 19.98C62.3161 19.98 61.6074 19.6268 61.1061 18.9204C60.6094 18.2095 60.3519 17.1932 60.3337 15.8716V13.9917C60.3337 12.62 60.5821 11.5718 61.0788 10.8472C61.5755 10.118 62.2888 9.75342 63.2184 9.75342C64.1481 9.75342 64.8613 10.1134 65.3581 10.8335C65.8548 11.5535 66.1078 12.5812 66.1169 13.9165V15.728ZM64.1755 13.7114C64.1755 12.9276 64.098 12.3397 63.9431 11.9478C63.7881 11.5558 63.5466 11.3599 63.2184 11.3599C62.6032 11.3599 62.2842 12.0776 62.2614 13.5132V15.9946C62.2614 16.7967 62.3389 17.3937 62.4938 17.7856C62.6533 18.1776 62.8994 18.3735 63.2321 18.3735C63.5466 18.3735 63.779 18.1912 63.9294 17.8267C64.0843 17.4575 64.1664 16.8947 64.1755 16.1382V13.7114Z" fill="white"/>
<rect x="78.2383" y="82.6914" width="27.0794" height="103.539" fill="#CBF2FF"/>
</svg>
