<svg width="182" height="238" viewBox="0 0 182 238" fill="none" xmlns="http://www.w3.org/2000/svg">
<rect x="0.708984" y="25.5312" width="180.591" height="211.653" stroke="#56CCF2"/>
<rect x="0.208984" y="0.341309" width="83.8112" height="24.69" fill="#56CCF2"/>
<path d="M19.3042 13.6689H20.2407C20.5962 13.6689 20.8559 13.5459 21.02 13.2998C21.1886 13.0492 21.2729 12.7165 21.2729 12.3018C21.2729 11.9053 21.1863 11.5977 21.0132 11.3789C20.8445 11.1556 20.6167 11.0439 20.3296 11.0439C20.0607 11.0439 19.8397 11.1488 19.6665 11.3584C19.4979 11.568 19.4136 11.8324 19.4136 12.1514H17.479C17.479 11.6318 17.5975 11.167 17.8345 10.7568C18.076 10.3421 18.411 10.0186 18.8393 9.78613C19.2723 9.55371 19.7508 9.4375 20.2749 9.4375C21.1909 9.4375 21.9087 9.69043 22.4282 10.1963C22.9477 10.7021 23.2075 11.3949 23.2075 12.2744C23.2075 12.7256 23.089 13.1449 22.852 13.5322C22.6196 13.915 22.312 14.209 21.9292 14.4141C22.3986 14.6146 22.7472 14.9154 22.9751 15.3164C23.2075 15.7174 23.3237 16.1914 23.3237 16.7383C23.3237 17.6224 23.0412 18.3311 22.4761 18.8643C21.9155 19.3975 21.1772 19.6641 20.2612 19.6641C19.409 19.6641 18.7163 19.402 18.1831 18.8779C17.6544 18.3493 17.3901 17.6566 17.3901 16.7998H19.3247C19.3247 17.1553 19.4181 17.4538 19.605 17.6953C19.7918 17.9368 20.0288 18.0576 20.3159 18.0576C20.6486 18.0576 20.9106 17.9346 21.102 17.6885C21.298 17.4424 21.396 17.1143 21.396 16.7041C21.396 15.7243 21.0154 15.2321 20.2544 15.2275H19.3042V13.6689ZM30.5868 15.4121C30.5868 16.7884 30.3361 17.8411 29.8348 18.5703C29.3381 19.2995 28.6271 19.6641 27.702 19.6641C26.786 19.6641 26.0773 19.3109 25.576 18.6045C25.0793 17.8936 24.8218 16.8773 24.8036 15.5557V13.6758C24.8036 12.304 25.0519 11.2559 25.5487 10.5312C26.0454 9.80208 26.7586 9.4375 27.6883 9.4375C28.618 9.4375 29.3312 9.79753 29.828 10.5176C30.3247 11.2376 30.5776 12.2653 30.5868 13.6006V15.4121ZM28.6454 13.3955C28.6454 12.6117 28.5679 12.0238 28.4129 11.6318C28.258 11.2399 28.0164 11.0439 27.6883 11.0439C27.0731 11.0439 26.7541 11.7617 26.7313 13.1973V15.6787C26.7313 16.4808 26.8088 17.0778 26.9637 17.4697C27.1232 17.8617 27.3693 18.0576 27.702 18.0576C28.0164 18.0576 28.2489 17.8753 28.3993 17.5107C28.5542 17.1416 28.6362 16.5788 28.6454 15.8223V13.3955ZM37.8088 15.4121C37.8088 16.7884 37.5581 17.8411 37.0568 18.5703C36.5601 19.2995 35.8492 19.6641 34.924 19.6641C34.008 19.6641 33.2994 19.3109 32.798 18.6045C32.3013 17.8936 32.0438 16.8773 32.0256 15.5557V13.6758C32.0256 12.304 32.274 11.2559 32.7707 10.5312C33.2675 9.80208 33.9807 9.4375 34.9104 9.4375C35.84 9.4375 36.5533 9.79753 37.05 10.5176C37.5467 11.2376 37.7997 12.2653 37.8088 13.6006V15.4121ZM35.8674 13.3955C35.8674 12.6117 35.7899 12.0238 35.635 11.6318C35.48 11.2399 35.2385 11.0439 34.9104 11.0439C34.2951 11.0439 33.9761 11.7617 33.9533 13.1973V15.6787C33.9533 16.4808 34.0308 17.0778 34.1857 17.4697C34.3453 17.8617 34.5913 18.0576 34.924 18.0576C35.2385 18.0576 35.4709 17.8753 35.6213 17.5107C35.7762 17.1416 35.8583 16.5788 35.8674 15.8223V13.3955ZM41.7769 14.3252L42.6382 12.1309H44.689L43.0005 15.7471L44.7505 19.5273H42.6929L41.7838 17.21L40.8814 19.5273H38.817L40.567 15.7471L38.8922 12.1309H40.9498L41.7769 14.3252ZM51.5966 19.5273H45.7314V18.1602L48.4247 14.7354C48.7665 14.2614 49.0172 13.8467 49.1767 13.4912C49.3407 13.1312 49.4228 12.7871 49.4228 12.459C49.4228 12.0169 49.3453 11.6706 49.1904 11.4199C49.04 11.1693 48.8212 11.0439 48.5341 11.0439C48.2197 11.0439 47.969 11.1898 47.7822 11.4814C47.5999 11.7731 47.5087 12.1833 47.5087 12.7119H45.5673C45.5673 12.1012 45.6926 11.543 45.9433 11.0371C46.1985 10.5312 46.554 10.1393 47.0097 9.86133C47.47 9.57878 47.9895 9.4375 48.5683 9.4375C49.457 9.4375 50.1451 9.68359 50.6327 10.1758C51.1249 10.6634 51.371 11.3584 51.371 12.2607C51.371 12.8213 51.2343 13.391 50.9609 13.9697C50.692 14.5439 50.2021 15.2526 49.4911 16.0957L48.2128 17.9209H51.5966V19.5273ZM53.1516 14.6328L53.6438 9.57422H58.4632V11.2285H55.2298L55.052 13.3613C55.4257 13.1107 55.8108 12.9854 56.2073 12.9854C57.0276 12.9854 57.6588 13.277 58.1009 13.8604C58.5475 14.4437 58.7708 15.2686 58.7708 16.335C58.7708 17.333 58.5065 18.1374 57.9778 18.748C57.4492 19.3587 56.7428 19.6641 55.8587 19.6641C55.3346 19.6641 54.8492 19.541 54.4026 19.2949C53.956 19.0443 53.6028 18.6979 53.343 18.2559C53.0878 17.8138 52.958 17.3125 52.9534 16.752H54.8675C54.8994 17.1667 55.0019 17.488 55.1751 17.7158C55.3483 17.9437 55.5716 18.0576 55.845 18.0576C56.164 18.0576 56.4101 17.9049 56.5833 17.5996C56.7565 17.2897 56.843 16.8294 56.843 16.2188C56.843 15.6445 56.7382 15.2116 56.5286 14.9199C56.3235 14.6283 56.0341 14.4824 55.6604 14.4824C55.2958 14.4824 55.0133 14.6077 54.8128 14.8584L54.6897 15.0293L53.1516 14.6328ZM65.9586 15.4121C65.9586 16.7884 65.708 17.8411 65.2067 18.5703C64.7099 19.2995 63.999 19.6641 63.0739 19.6641C62.1579 19.6641 61.4492 19.3109 60.9479 18.6045C60.4511 17.8936 60.1937 16.8773 60.1754 15.5557V13.6758C60.1754 12.304 60.4238 11.2559 60.9205 10.5312C61.4173 9.80208 62.1305 9.4375 63.0602 9.4375C63.9899 9.4375 64.7031 9.79753 65.1998 10.5176C65.6966 11.2376 65.9495 12.2653 65.9586 13.6006V15.4121ZM64.0172 13.3955C64.0172 12.6117 63.9398 12.0238 63.7848 11.6318C63.6299 11.2399 63.3883 11.0439 63.0602 11.0439C62.445 11.0439 62.126 11.7617 62.1032 13.1973V15.6787C62.1032 16.4808 62.1806 17.0778 62.3356 17.4697C62.4951 17.8617 62.7412 18.0576 63.0739 18.0576C63.3883 18.0576 63.6207 17.8753 63.7711 17.5107C63.9261 17.1416 64.0081 16.5788 64.0172 15.8223V13.3955Z" fill="white"/>
<rect x="51.9785" y="99.1016" width="78.8487" height="64.5126" fill="#CBF2FF"/>
</svg>
