<svg width="183" height="238" viewBox="0 0 183 238" fill="none" xmlns="http://www.w3.org/2000/svg">
<rect x="0.9375" y="25.5312" width="180.591" height="211.653" stroke="#56CCF2"/>
<rect x="0.4375" y="0.341309" width="83.8112" height="24.69" fill="#56CCF2"/>
<path d="M19.5327 13.6689H20.4692C20.8247 13.6689 21.0845 13.5459 21.2485 13.2998C21.4171 13.0492 21.5014 12.7165 21.5014 12.3018C21.5014 11.9053 21.4149 11.5977 21.2417 11.3789C21.0731 11.1556 20.8452 11.0439 20.5581 11.0439C20.2892 11.0439 20.0682 11.1488 19.895 11.3584C19.7264 11.568 19.6421 11.8324 19.6421 12.1514H17.7075C17.7075 11.6318 17.826 11.167 18.063 10.7568C18.3045 10.3421 18.6395 10.0186 19.0679 9.78613C19.5008 9.55371 19.9793 9.4375 20.5034 9.4375C21.4194 9.4375 22.1372 9.69043 22.6567 10.1963C23.1763 10.7021 23.436 11.3949 23.436 12.2744C23.436 12.7256 23.3175 13.1449 23.0805 13.5322C22.8481 13.915 22.5405 14.209 22.1577 14.4141C22.6271 14.6146 22.9757 14.9154 23.2036 15.3164C23.436 15.7174 23.5522 16.1914 23.5522 16.7383C23.5522 17.6224 23.2697 18.3311 22.7046 18.8643C22.144 19.3975 21.4057 19.6641 20.4897 19.6641C19.6375 19.6641 18.9448 19.402 18.4116 18.8779C17.883 18.3493 17.6186 17.6566 17.6186 16.7998H19.5532C19.5532 17.1553 19.6466 17.4538 19.8335 17.6953C20.0203 17.9368 20.2573 18.0576 20.5444 18.0576C20.8771 18.0576 21.1391 17.9346 21.3305 17.6885C21.5265 17.4424 21.6245 17.1143 21.6245 16.7041C21.6245 15.7243 21.244 15.2321 20.4829 15.2275H19.5327V13.6689ZM30.8973 19.5273H25.0321V18.1602L27.7254 14.7354C28.0672 14.2614 28.3179 13.8467 28.4774 13.4912C28.6414 13.1312 28.7235 12.7871 28.7235 12.459C28.7235 12.0169 28.646 11.6706 28.4911 11.4199C28.3407 11.1693 28.1219 11.0439 27.8348 11.0439C27.5204 11.0439 27.2697 11.1898 27.0829 11.4814C26.9006 11.7731 26.8094 12.1833 26.8094 12.7119H24.868C24.868 12.1012 24.9933 11.543 25.244 11.0371C25.4992 10.5312 25.8547 10.1393 26.3104 9.86133C26.7707 9.57878 27.2902 9.4375 27.869 9.4375C28.7577 9.4375 29.4458 9.68359 29.9334 10.1758C30.4256 10.6634 30.6717 11.3584 30.6717 12.2607C30.6717 12.8213 30.535 13.391 30.2616 13.9697C29.9927 14.5439 29.5028 15.2526 28.7918 16.0957L27.5135 17.9209H30.8973V19.5273ZM38.0373 15.4121C38.0373 16.7884 37.7867 17.8411 37.2854 18.5703C36.7886 19.2995 36.0777 19.6641 35.1525 19.6641C34.2365 19.6641 33.5279 19.3109 33.0266 18.6045C32.5298 17.8936 32.2723 16.8773 32.2541 15.5557V13.6758C32.2541 12.304 32.5025 11.2559 32.9992 10.5312C33.496 9.80208 34.2092 9.4375 35.1389 9.4375C36.0686 9.4375 36.7818 9.79753 37.2785 10.5176C37.7753 11.2376 38.0282 12.2653 38.0373 13.6006V15.4121ZM36.0959 13.3955C36.0959 12.6117 36.0184 12.0238 35.8635 11.6318C35.7085 11.2399 35.467 11.0439 35.1389 11.0439C34.5236 11.0439 34.2046 11.7617 34.1818 13.1973V15.6787C34.1818 16.4808 34.2593 17.0778 34.4143 17.4697C34.5738 17.8617 34.8199 18.0576 35.1525 18.0576C35.467 18.0576 35.6994 17.8753 35.8498 17.5107C36.0048 17.1416 36.0868 16.5788 36.0959 15.8223V13.3955ZM42.0054 14.3252L42.8668 12.1309H44.9175L43.2291 15.7471L44.9791 19.5273H42.9214L42.0123 17.21L41.1099 19.5273H39.0455L40.7955 15.7471L39.1207 12.1309H41.1783L42.0054 14.3252ZM51.0595 15.7676H51.9072V17.374H51.0595V19.5273H49.1249V17.374H45.83L45.7411 16.123L49.1181 9.57422H51.0595V15.7676ZM47.621 15.7676H49.1249V12.4385L49.0839 12.5137L47.621 15.7676ZM58.76 12.2197C58.76 12.7028 58.6575 13.1312 58.4524 13.5049C58.2473 13.8786 57.9648 14.1771 57.6048 14.4004C58.0149 14.6328 58.3385 14.9541 58.5755 15.3643C58.8124 15.7699 58.9309 16.2484 58.9309 16.7998C58.9309 17.6839 58.6757 18.3835 58.1653 18.8984C57.6549 19.4089 56.9599 19.6641 56.0804 19.6641C55.2008 19.6641 54.5013 19.4089 53.9817 18.8984C53.4622 18.3835 53.2024 17.6839 53.2024 16.7998C53.2024 16.2484 53.3209 15.7676 53.5579 15.3574C53.7949 14.9473 54.1207 14.6283 54.5354 14.4004C54.1708 14.1771 53.886 13.8786 53.6809 13.5049C53.4759 13.1312 53.3733 12.7028 53.3733 12.2197C53.3733 11.3493 53.6171 10.668 54.1048 10.1758C54.5924 9.68359 55.2464 9.4375 56.0667 9.4375C56.8961 9.4375 57.5524 9.68587 58.0354 10.1826C58.5185 10.6794 58.76 11.3584 58.76 12.2197ZM56.0804 18.0576C56.372 18.0576 56.5953 17.9346 56.7503 17.6885C56.9098 17.4378 56.9895 17.0915 56.9895 16.6494C56.9895 16.2074 56.9075 15.861 56.7434 15.6104C56.5794 15.3597 56.3538 15.2344 56.0667 15.2344C55.7796 15.2344 55.5517 15.3597 55.3831 15.6104C55.219 15.861 55.137 16.2074 55.137 16.6494C55.137 17.0915 55.219 17.4378 55.3831 17.6885C55.5517 17.9346 55.7841 18.0576 56.0804 18.0576ZM56.8323 12.3223C56.8323 11.9349 56.7685 11.625 56.6409 11.3926C56.5179 11.1602 56.3264 11.0439 56.0667 11.0439C55.8206 11.0439 55.6337 11.1579 55.5061 11.3857C55.3785 11.609 55.3147 11.9212 55.3147 12.3223C55.3147 12.7142 55.3785 13.0309 55.5061 13.2725C55.6337 13.5094 55.8251 13.6279 56.0804 13.6279C56.3356 13.6279 56.5247 13.5094 56.6477 13.2725C56.7708 13.0309 56.8323 12.7142 56.8323 12.3223ZM66.1871 15.4121C66.1871 16.7884 65.9365 17.8411 65.4352 18.5703C64.9385 19.2995 64.2275 19.6641 63.3024 19.6641C62.3864 19.6641 61.6777 19.3109 61.1764 18.6045C60.6797 17.8936 60.4222 16.8773 60.4039 15.5557V13.6758C60.4039 12.304 60.6523 11.2559 61.1491 10.5312C61.6458 9.80208 62.359 9.4375 63.2887 9.4375C64.2184 9.4375 64.9316 9.79753 65.4284 10.5176C65.9251 11.2376 66.178 12.2653 66.1871 13.6006V15.4121ZM64.2457 13.3955C64.2457 12.6117 64.1683 12.0238 64.0133 11.6318C63.8584 11.2399 63.6168 11.0439 63.2887 11.0439C62.6735 11.0439 62.3545 11.7617 62.3317 13.1973V15.6787C62.3317 16.4808 62.4092 17.0778 62.5641 17.4697C62.7236 17.8617 62.9697 18.0576 63.3024 18.0576C63.6168 18.0576 63.8493 17.8753 63.9996 17.5107C64.1546 17.1416 64.2366 16.5788 64.2457 15.8223V13.3955Z" fill="white"/>
<rect x="59.375" y="88.7476" width="57.3445" height="86.0168" fill="#CBF2FF"/>
</svg>
