<svg width="123" height="127" viewBox="0 0 123 127" fill="none" xmlns="http://www.w3.org/2000/svg">
<path opacity="0.4" d="M86.2205 105.856L37.4634 105.856L13.0849 63.6317L37.4634 21.4068L86.2205 21.4068L110.599 63.6317L86.2205 105.856Z" fill="#828282"/>
<path d="M81.3347 97.3946L42.3485 97.3946L22.8555 63.6316L42.3485 29.8687L81.3347 29.8687L100.828 63.6316L81.3347 97.3946Z" fill="#828282"/>
<g clip-path="url(#clip0)">
<path d="M67.457 64.6603L51.6035 55.5072C51.2555 55.3064 50.8105 55.4256 50.6096 55.7735L48.9121 58.7138C48.7112 59.0618 48.8304 59.5068 49.1784 59.7077L65.0319 68.8607L63.6357 71.2791C62.9875 72.4017 64.0202 73.7476 65.2724 73.4121L72.3998 71.5024C73.176 71.2944 73.6367 70.4965 73.4287 69.7203L71.5189 62.5929C71.1834 61.3408 69.5014 61.1193 68.8532 62.242L67.457 64.6603Z" fill="white"/>
</g>
<defs>
<clipPath id="clip0">
<rect width="15.5208" height="31.0416" fill="white" transform="translate(78.8438 65.0742) rotate(120)"/>
</clipPath>
</defs>
</svg>
