<svg width="123" height="128" viewBox="0 0 123 128" fill="none" xmlns="http://www.w3.org/2000/svg">
<path opacity="0.4" d="M85.6345 106.481L36.8775 106.481L12.499 64.256L36.8775 22.0312L85.6345 22.0312L110.013 64.256L85.6345 106.481Z" fill="#828282"/>
<path d="M80.7487 98.019L41.7626 98.019L22.2695 64.256L41.7626 30.493L80.7487 30.493L100.242 64.256L80.7487 98.019Z" fill="#828282"/>
<g clip-path="url(#clip0)">
<path d="M45.9146 67.5443L45.4296 66.7042C45.0278 66.0083 45.2662 65.1184 45.9622 64.7166L64.8641 53.8035L63.409 51.2833C62.7613 50.1614 63.7976 48.8158 65.0458 49.1502L71.6713 50.9255C72.4476 51.1335 72.9082 51.9314 72.7002 52.7076L70.9249 59.3331C70.5916 60.5765 68.9097 60.8107 68.2593 59.6841L66.8042 57.1639L47.9023 68.0769C47.2063 68.4787 46.3164 68.2403 45.9146 67.5443ZM76.145 60.7319L57.243 71.6449L55.7879 69.1247C55.1418 68.0056 53.4576 68.2243 53.1223 69.4756L51.347 76.1012C51.139 76.8774 51.5997 77.6753 52.3759 77.8833L59.0014 79.6586C60.246 79.992 61.288 78.6511 60.6382 77.5256L59.1831 75.0053L78.0851 64.0922C78.781 63.6904 79.0195 62.8005 78.6177 62.1046L78.1326 61.2645C77.7308 60.5685 76.8409 60.3301 76.145 60.7319Z" fill="white"/>
</g>
<defs>
<clipPath id="clip0">
<rect width="31.0416" height="31.0416" fill="white" transform="translate(40.8203 58.7242) rotate(-30)"/>
</clipPath>
</defs>
</svg>
