<svg width="303" height="303" viewBox="0 0 303 303" fill="none" xmlns="http://www.w3.org/2000/svg">
<path d="M206.469 247.344L95.9698 247.344L40.7202 151.649L95.9698 55.9542L206.469 55.9542L261.719 151.649L206.469 247.344Z" fill="#E0E0E0"/>
<g clip-path="url(#clip0)">
<path d="M169.2 173.537C168.594 173.537 168.002 173.498 167.409 173.447V177.48H136.833V129.259H167.409V133.465C168.004 133.414 168.592 133.375 169.202 133.375C169.591 133.375 169.976 133.414 170.36 133.431V126.773C170.362 124.44 168.454 122.534 166.119 122.534H138.125C135.792 122.534 133.883 124.44 133.883 126.773V181.086C133.883 183.417 135.792 185.327 138.125 185.327H166.119C168.454 185.327 170.362 183.417 170.362 181.086V173.477C169.978 173.5 169.589 173.537 169.2 173.537ZM147.646 125.592H156.601C156.884 125.592 157.114 125.822 157.114 126.111C157.114 126.395 156.886 126.623 156.601 126.623H147.646C147.362 126.623 147.132 126.397 147.132 126.111C147.132 125.822 147.36 125.592 147.646 125.592ZM152.124 183.207C150.953 183.207 150.006 182.256 150.006 181.088C150.006 179.917 150.953 178.972 152.124 178.972C153.295 178.972 154.246 179.915 154.246 181.088C154.246 182.256 153.294 183.207 152.124 183.207ZM181.628 146.065C181.728 146.187 181.849 146.268 181.979 146.312L181.398 146.672L180.392 145.372L180.553 145.146C180.852 145.528 181.628 146.065 181.628 146.065ZM169.2 136.143C159.637 136.143 151.883 143.898 151.883 153.457C151.883 163.021 159.637 170.77 169.2 170.77C178.762 170.77 186.513 163.021 186.513 153.457C186.515 143.898 178.766 136.143 169.2 136.143ZM159.045 141.502C159.651 142.412 158.205 142.558 158.205 142.558C158.056 142.6 157.906 142.665 157.757 142.742C158.163 142.299 158.598 141.889 159.045 141.502ZM160.607 156.651C160.065 157.329 160.14 158.02 160.14 158.02C160.835 160.458 159.444 160.458 159.444 160.458C158.437 160.606 158.826 161.823 158.826 161.823C158.826 162.508 158.437 163.048 158.437 163.048C158.826 163.579 158.52 164.195 158.52 164.195C158.441 164.313 158.406 164.446 158.403 164.576C155.433 161.745 153.575 157.753 153.575 153.332C153.575 152.418 153.658 151.53 153.807 150.656C153.897 150.505 153.953 150.407 153.953 150.407L154.574 150.788C155.117 150.56 155.42 151.394 155.42 151.394C155.884 151.315 156.041 152.157 156.041 152.157C157.201 151.699 157.431 153.827 157.431 153.827C158.052 153.827 158.75 154.586 158.75 154.586C159.908 154.586 160.14 155.347 160.14 155.347C161.146 155.198 160.607 156.651 160.607 156.651ZM161.029 140.764C160.929 141.605 159.457 141.502 159.1 141.462C159.718 140.942 160.377 140.463 161.073 140.045L161.029 140.764ZM182.399 148.497C182.399 148.497 182.096 149.335 181.166 149.793C181.166 149.793 179.851 146.594 178.227 145.909C178.227 145.909 179.928 148.881 181.32 150.253C181.32 150.253 181.705 150.485 182.322 150.181C182.322 150.181 182.397 152.696 180.927 154.369C180.927 154.369 180.545 155.288 180.699 156.271C180.699 156.271 180.927 157.949 179.694 158.786C179.694 158.786 179.152 159.164 179.152 160.079C179.152 160.079 179.152 160.838 178.302 160.838C178.302 160.838 177.374 162.803 174.746 162.425C174.746 162.425 174.746 160.995 173.981 159.318C173.981 159.318 173.281 158.399 174.357 157.337C174.357 157.337 175.367 156.881 173.824 155.131C173.824 155.131 172.823 154.291 173.36 153.378C173.36 153.378 173.513 152.617 173.13 152.387C173.13 152.387 172.052 152.611 171.817 151.856C171.817 151.856 169.804 152.615 168.878 152.236C168.878 152.236 167.72 152.995 166.788 151.241C166.788 151.241 165.243 150.324 165.789 149.488C165.789 149.488 165.943 148.653 165.943 147.815C165.943 147.815 166.096 146.442 167.643 145.76C167.643 145.76 168.107 144.385 168.801 144.385C168.801 144.385 170.273 144.307 171.048 144.009C171.048 144.009 172.051 143.703 172.666 143.856C172.666 143.856 173.055 144.464 172.823 144.845C172.823 144.845 173.901 144.469 174.602 145.3C174.602 145.3 175.294 145.229 175.137 144.694C175.137 144.694 176.922 145.765 177.848 145.152C177.848 145.152 178.076 143.628 177.231 143.703C177.231 143.703 175.915 143.779 175.294 142.865C175.294 142.865 174.602 142.558 174.752 143.018C174.752 143.018 174.834 143.473 175.373 143.624C175.373 143.624 175.22 144.08 174.681 143.852C174.681 143.852 174.219 143.699 174.065 142.706C174.065 142.706 172.827 142.481 172.513 141.947C172.513 141.947 171.748 142.175 173.515 143.018C173.515 143.018 174.215 143.545 173.283 143.931C173.283 143.931 172.666 143.628 173.362 143.476C173.362 143.476 173.208 143.17 172.513 142.942C172.513 142.942 172.054 142.489 171.976 142.182C171.976 142.182 171.054 142.792 170.659 142.411C170.659 142.411 170.502 143.17 170.041 143.17C170.041 143.17 169.959 144.312 168.416 143.856H167.948C167.948 143.856 167.563 142.79 168.105 142.483C168.105 142.483 169.108 142.712 169.34 142.483C169.576 142.259 169.727 141.876 169.112 141.724C169.112 141.724 168.189 141.488 168.569 141.034C168.569 141.034 169.033 140.505 169.497 141.191C169.497 141.191 170.27 140.654 171.272 140.584C171.272 140.584 173.057 139.817 172.589 139.282C172.589 139.282 171.433 139.968 170.891 139.592C170.891 139.592 169.367 139.088 170.609 137.877C175.983 138.394 180.551 141.651 182.913 146.226C182.681 146.323 182.363 146.412 182.071 146.339C182.301 146.578 183.294 147.69 182.399 148.497Z" fill="#4F4F4F"/>
</g>
<defs>
<clipPath id="clip0">
<rect width="62.793" height="62.793" fill="white" transform="translate(128.805 122.534)"/>
</clipPath>
</defs>
</svg>
