<svg width="303" height="302" viewBox="0 0 303 302" fill="none" xmlns="http://www.w3.org/2000/svg">
<path d="M207.172 246.701L96.6729 246.701L41.4233 151.006L96.6729 55.3108L207.172 55.3108L262.422 151.006L207.172 246.701Z" fill="#E0E0E0"/>
<path d="M84.8751 127.352C85.8668 127.352 86.7307 127.514 87.4668 127.837C88.2029 128.16 88.7704 128.624 89.1691 129.229C89.5678 129.835 89.7672 130.541 89.7672 131.349C89.7672 132.156 89.5678 132.862 89.1691 133.468C88.7704 134.073 88.2029 134.537 87.4668 134.86C86.7307 135.183 85.8668 135.345 84.8751 135.345H83.3262V137.948H79.707V127.352H84.8751ZM84.6451 132.59C85.1358 132.59 85.5039 132.484 85.7492 132.272C85.9946 132.05 86.1173 131.742 86.1173 131.349C86.1173 130.955 85.9946 130.652 85.7492 130.44C85.5039 130.218 85.1358 130.107 84.6451 130.107H83.3262V132.59H84.6451Z" fill="#014F7A"/>
<path d="M103.864 136.102H99.785L99.0642 137.948H95.3837L100.076 127.352H103.634L108.327 137.948H104.585L103.864 136.102ZM102.867 133.528L101.825 130.864L100.782 133.528H102.867Z" fill="#014F7A"/>
<path d="M119.639 135.284H118.658V137.948H115.039V127.352H120.207C121.199 127.352 122.062 127.514 122.799 127.837C123.535 128.16 124.102 128.624 124.501 129.229C124.9 129.835 125.099 130.541 125.099 131.349C125.099 132.105 124.925 132.766 124.577 133.332C124.23 133.897 123.729 134.346 123.075 134.679L125.329 137.948H121.464L119.639 135.284ZM121.449 131.349C121.449 130.955 121.326 130.652 121.081 130.44C120.836 130.218 120.468 130.107 119.977 130.107H118.658V132.59H119.977C120.468 132.59 120.836 132.484 121.081 132.272C121.326 132.05 121.449 131.742 121.449 131.349Z" fill="#014F7A"/>
<path d="M134.781 130.122H131.637V127.352H141.544V130.122H138.4V137.948H134.781V130.122Z" fill="#014F7A"/>
<path d="M159.2 127.352V137.948H156.225L152.145 133.135V137.948H148.618V127.352H151.593L155.673 132.166V127.352H159.2Z" fill="#014F7A"/>
<path d="M176.003 135.254V137.948H167.078V127.352H175.804V130.047H170.636V131.288H175.175V133.861H170.636V135.254H176.003Z" fill="#014F7A"/>
<path d="M188.131 135.284H187.15V137.948H183.531V127.352H188.699C189.69 127.352 190.554 127.514 191.29 127.837C192.027 128.16 192.594 128.624 192.993 129.229C193.391 129.835 193.591 130.541 193.591 131.349C193.591 132.105 193.417 132.766 193.069 133.332C192.722 133.897 192.221 134.346 191.567 134.679L193.821 137.948H189.956L188.131 135.284ZM189.941 131.349C189.941 130.955 189.818 130.652 189.573 130.44C189.328 130.218 188.959 130.107 188.469 130.107H187.15V132.59H188.469C188.959 132.59 189.328 132.484 189.573 132.272C189.818 132.05 189.941 131.742 189.941 131.349Z" fill="#014F7A"/>
<path d="M205.094 138.191C204.205 138.191 203.336 138.095 202.487 137.903C201.649 137.701 200.959 137.434 200.417 137.101L201.582 134.497C202.094 134.79 202.666 135.027 203.3 135.209C203.934 135.38 204.542 135.466 205.125 135.466C205.626 135.466 205.984 135.42 206.198 135.33C206.413 135.229 206.521 135.082 206.521 134.891C206.521 134.669 206.377 134.502 206.091 134.391C205.815 134.28 205.355 134.159 204.711 134.028C203.883 133.856 203.193 133.675 202.641 133.483C202.089 133.281 201.608 132.958 201.199 132.514C200.79 132.06 200.586 131.449 200.586 130.682C200.586 130.016 200.775 129.411 201.153 128.866C201.531 128.321 202.094 127.892 202.84 127.579C203.597 127.267 204.512 127.11 205.585 127.11C206.321 127.11 207.042 127.191 207.747 127.352C208.463 127.504 209.092 127.731 209.634 128.033L208.545 130.622C207.492 130.097 206.495 129.835 205.554 129.835C204.624 129.835 204.159 130.057 204.159 130.501C204.159 130.713 204.297 130.874 204.573 130.985C204.849 131.086 205.304 131.197 205.938 131.318C206.756 131.47 207.446 131.646 208.008 131.848C208.57 132.04 209.056 132.358 209.465 132.802C209.884 133.246 210.094 133.851 210.094 134.618C210.094 135.284 209.905 135.89 209.526 136.435C209.148 136.97 208.581 137.398 207.824 137.721C207.078 138.034 206.168 138.191 205.094 138.191Z" fill="#014F7A"/>
<path d="M101.682 103.469L92.5234 142.153L113.184 160.234L101.682 103.469Z" fill="#828282"/>
<path d="M149.841 157.138C148.952 157.138 148.083 157.042 147.234 156.85C146.396 156.648 145.706 156.381 145.164 156.048L146.33 153.444C146.841 153.737 147.413 153.974 148.047 154.156C148.681 154.327 149.289 154.413 149.872 154.413C150.373 154.413 150.731 154.368 150.946 154.277C151.16 154.176 151.268 154.03 151.268 153.838C151.268 153.616 151.124 153.449 150.838 153.338C150.562 153.227 150.102 153.106 149.458 152.975C148.63 152.803 147.94 152.622 147.388 152.43C146.836 152.228 146.355 151.905 145.946 151.461C145.537 151.007 145.333 150.397 145.333 149.63C145.333 148.964 145.522 148.358 145.9 147.813C146.278 147.268 146.841 146.839 147.587 146.527C148.344 146.214 149.259 146.057 150.332 146.057C151.068 146.057 151.789 146.138 152.494 146.299C153.21 146.451 153.839 146.678 154.381 146.981L153.292 149.569C152.239 149.044 151.242 148.782 150.301 148.782C149.371 148.782 148.906 149.004 148.906 149.448C148.906 149.66 149.044 149.821 149.32 149.932C149.596 150.033 150.051 150.144 150.685 150.265C151.503 150.417 152.193 150.593 152.755 150.795C153.317 150.987 153.803 151.305 154.212 151.749C154.631 152.193 154.841 152.798 154.841 153.565C154.841 154.231 154.652 154.837 154.273 155.382C153.895 155.917 153.328 156.346 152.571 156.668C151.825 156.981 150.915 157.138 149.841 157.138Z" fill="#333333"/>
<path d="M167.22 146.299C168.212 146.299 169.076 146.461 169.812 146.784C170.548 147.107 171.115 147.571 171.514 148.176C171.913 148.782 172.112 149.488 172.112 150.296C172.112 151.103 171.913 151.809 171.514 152.415C171.115 153.02 170.548 153.485 169.812 153.808C169.076 154.13 168.212 154.292 167.22 154.292H165.671V156.896H162.052V146.299H167.22ZM166.99 151.537C167.481 151.537 167.849 151.431 168.094 151.219C168.34 150.997 168.462 150.689 168.462 150.296C168.462 149.902 168.34 149.599 168.094 149.387C167.849 149.165 167.481 149.054 166.99 149.054H165.671V151.537H166.99Z" fill="#333333"/>
<path d="M186.209 155.049H182.13L181.409 156.896H177.729L182.421 146.299H185.979L190.672 156.896H186.93L186.209 155.049ZM185.212 152.475L184.17 149.811L183.127 152.475H185.212Z" fill="#333333"/>
<path d="M202.785 157.138C201.651 157.138 200.628 156.906 199.718 156.441C198.808 155.967 198.093 155.311 197.571 154.474C197.06 153.626 196.805 152.667 196.805 151.597C196.805 150.528 197.06 149.574 197.571 148.737C198.093 147.889 198.808 147.233 199.718 146.769C200.628 146.294 201.651 146.057 202.785 146.057C203.828 146.057 204.759 146.239 205.577 146.602C206.394 146.965 207.069 147.49 207.601 148.176L205.316 150.19C204.651 149.362 203.869 148.948 202.969 148.948C202.213 148.948 201.605 149.191 201.145 149.675C200.684 150.149 200.454 150.79 200.454 151.597C200.454 152.405 200.684 153.051 201.145 153.535C201.605 154.009 202.213 154.247 202.969 154.247C203.869 154.247 204.651 153.833 205.316 153.005L207.601 155.019C207.069 155.705 206.394 156.229 205.577 156.593C204.759 156.956 203.828 157.138 202.785 157.138Z" fill="#333333"/>
<path d="M223.705 154.201V156.896H214.78V146.299H223.506V148.994H218.338V150.235H222.877V152.808H218.338V154.201H223.705Z" fill="#333333"/>
<rect width="94.1386" height="22.4554" transform="translate(106.23 175.825)" fill="#014F7A"/>
<path d="M123.244 191.125H117.394L116.278 193.825H113.29L118.906 181.225H121.786L127.42 193.825H124.36L123.244 191.125ZM122.326 188.911L120.328 184.087L118.33 188.911H122.326ZM132.148 184.357H134.632V186.517H132.22V193.825H129.412V186.517H127.918V184.357H129.412V183.925C129.412 182.821 129.736 181.945 130.384 181.297C131.044 180.649 131.968 180.325 133.156 180.325C133.576 180.325 133.972 180.373 134.344 180.469C134.728 180.553 135.046 180.679 135.298 180.847L134.56 182.881C134.236 182.653 133.858 182.539 133.426 182.539C132.574 182.539 132.148 183.007 132.148 183.943V184.357ZM139.648 184.357H142.132V186.517H139.72V193.825H136.912V186.517H135.418V184.357H136.912V183.925C136.912 182.821 137.236 181.945 137.884 181.297C138.544 180.649 139.468 180.325 140.656 180.325C141.076 180.325 141.472 180.373 141.844 180.469C142.228 180.553 142.546 180.679 142.798 180.847L142.06 182.881C141.736 182.653 141.358 182.539 140.926 182.539C140.074 182.539 139.648 183.007 139.648 183.943V184.357ZM144.976 184.141H147.784V193.825H144.976V184.141ZM146.38 182.791C145.864 182.791 145.444 182.641 145.12 182.341C144.796 182.041 144.634 181.669 144.634 181.225C144.634 180.781 144.796 180.409 145.12 180.109C145.444 179.809 145.864 179.659 146.38 179.659C146.896 179.659 147.316 179.803 147.64 180.091C147.964 180.379 148.126 180.739 148.126 181.171C148.126 181.639 147.964 182.029 147.64 182.341C147.316 182.641 146.896 182.791 146.38 182.791ZM150.927 180.469H153.735V193.825H150.927V180.469ZM156.881 184.141H159.689V193.825H156.881V184.141ZM158.285 182.791C157.769 182.791 157.349 182.641 157.025 182.341C156.701 182.041 156.539 181.669 156.539 181.225C156.539 180.781 156.701 180.409 157.025 180.109C157.349 179.809 157.769 179.659 158.285 179.659C158.801 179.659 159.221 179.803 159.545 180.091C159.869 180.379 160.031 180.739 160.031 181.171C160.031 181.639 159.869 182.029 159.545 182.341C159.221 182.641 158.801 182.791 158.285 182.791ZM166.741 183.997C168.241 183.997 169.393 184.357 170.197 185.077C171.001 185.785 171.403 186.859 171.403 188.299V193.825H168.775V192.619C168.247 193.519 167.263 193.969 165.823 193.969C165.079 193.969 164.431 193.843 163.879 193.591C163.339 193.339 162.925 192.991 162.637 192.547C162.349 192.103 162.205 191.599 162.205 191.035C162.205 190.135 162.541 189.427 163.213 188.911C163.897 188.395 164.947 188.137 166.363 188.137H168.595C168.595 187.525 168.409 187.057 168.037 186.733C167.665 186.397 167.107 186.229 166.363 186.229C165.847 186.229 165.337 186.313 164.833 186.481C164.341 186.637 163.921 186.853 163.573 187.129L162.565 185.167C163.093 184.795 163.723 184.507 164.455 184.303C165.199 184.099 165.961 183.997 166.741 183.997ZM166.525 192.079C167.005 192.079 167.431 191.971 167.803 191.755C168.175 191.527 168.439 191.197 168.595 190.765V189.775H166.669C165.517 189.775 164.941 190.153 164.941 190.909C164.941 191.269 165.079 191.557 165.355 191.773C165.643 191.977 166.033 192.079 166.525 192.079ZM180.73 193.357C180.454 193.561 180.112 193.717 179.704 193.825C179.308 193.921 178.888 193.969 178.444 193.969C177.292 193.969 176.398 193.675 175.762 193.087C175.138 192.499 174.826 191.635 174.826 190.495V186.517H173.332V184.357H174.826V181.999H177.634V184.357H180.046V186.517H177.634V190.459C177.634 190.867 177.736 191.185 177.94 191.413C178.156 191.629 178.456 191.737 178.84 191.737C179.284 191.737 179.662 191.617 179.974 191.377L180.73 193.357ZM192.034 189.019C192.034 189.055 192.016 189.307 191.98 189.775H184.654C184.786 190.375 185.098 190.849 185.59 191.197C186.082 191.545 186.694 191.719 187.426 191.719C187.93 191.719 188.374 191.647 188.758 191.503C189.154 191.347 189.52 191.107 189.856 190.783L191.35 192.403C190.438 193.447 189.106 193.969 187.354 193.969C186.262 193.969 185.296 193.759 184.456 193.339C183.616 192.907 182.968 192.313 182.512 191.557C182.056 190.801 181.828 189.943 181.828 188.983C181.828 188.035 182.05 187.183 182.494 186.427C182.95 185.659 183.568 185.065 184.348 184.645C185.14 184.213 186.022 183.997 186.994 183.997C187.942 183.997 188.8 184.201 189.568 184.609C190.336 185.017 190.936 185.605 191.368 186.373C191.812 187.129 192.034 188.011 192.034 189.019ZM187.012 186.121C186.376 186.121 185.842 186.301 185.41 186.661C184.978 187.021 184.714 187.513 184.618 188.137H189.388C189.292 187.525 189.028 187.039 188.596 186.679C188.164 186.307 187.636 186.121 187.012 186.121Z" fill="white"/>
</svg>
