<svg width="302" height="303" viewBox="0 0 302 303" fill="none" xmlns="http://www.w3.org/2000/svg">
<path d="M206.305 247.46L95.8057 247.46L40.5561 151.765L95.8057 56.0699L206.305 56.0699L261.554 151.765L206.305 247.46Z" fill="#E0E0E0"/>
<path opacity="0.2" d="M140.652 156.855L160.449 156.855L170.347 173.999L160.449 191.144L140.652 191.144L130.754 173.999L140.652 156.855Z" fill="#333333"/>
<path d="M183.425 133.067H180.105V130.932L182.176 128.651C183.251 127.467 183.844 125.934 183.844 124.334V118.924C183.844 115.141 180.766 112.064 176.983 112.064H173.827C170.044 112.064 166.967 115.142 166.967 118.924V124.334C166.967 125.934 167.559 127.467 168.634 128.651L170.706 130.933V133.067H167.386C164.161 133.067 161.458 135.341 160.792 138.369C160.453 138.322 160.107 138.296 159.756 138.296H155.867V135.684L158.239 133.072C159.425 131.766 160.078 130.075 160.078 128.311V122.217C160.078 118.039 156.679 114.64 152.501 114.64C151.846 114.64 151.316 115.171 151.316 115.825C151.316 116.48 151.846 117.011 152.501 117.011C155.372 117.011 157.708 119.346 157.708 122.217V128.31C157.708 129.484 157.273 130.609 156.484 131.478L154.041 134.168C153.714 134.379 153.497 134.747 153.497 135.166V139.481C153.497 140.136 154.027 140.666 154.682 140.666H159.756C162.56 140.666 164.841 142.948 164.841 145.751V153.189H136.607V145.751C136.607 143.565 137.994 141.697 139.934 140.98C140.025 140.961 140.112 140.931 140.194 140.892C140.668 140.746 141.171 140.666 141.692 140.666H146.766C147.421 140.666 147.951 140.136 147.951 139.481V135.166C147.951 134.747 147.734 134.379 147.406 134.168L144.964 131.478C144.175 130.609 143.74 129.484 143.74 128.31V122.217C143.74 119.346 146.076 117.011 148.947 117.011C149.601 117.011 150.132 116.48 150.132 115.825C150.132 115.171 149.601 114.64 148.947 114.64C144.768 114.64 141.369 118.039 141.369 122.217V128.31C141.369 130.075 142.023 131.766 143.209 133.072L145.58 135.684V138.296H141.692C141.36 138.296 141.035 138.319 140.715 138.362C140.046 135.337 137.346 133.067 134.123 133.067H130.803V130.932L132.874 128.651C133.95 127.467 134.542 125.934 134.542 124.334V118.924C134.542 115.141 131.464 112.064 127.681 112.064H124.526C120.743 112.064 117.666 115.142 117.666 118.924V124.334C117.666 125.934 118.258 127.467 119.333 128.651L121.405 130.933V133.067H118.085C114.361 133.067 111.332 136.096 111.332 139.82V147.476C111.332 148.131 111.863 148.661 112.517 148.661H130.959C131.614 148.661 132.145 148.131 132.145 147.476C132.145 146.821 131.614 146.291 130.959 146.291H113.703V139.82C113.703 137.404 115.668 135.438 118.085 135.438H122.59C123.244 135.438 123.775 134.907 123.775 134.253V130.421C123.775 130.009 123.565 129.646 123.245 129.433L121.088 127.058C120.41 126.311 120.036 125.343 120.036 124.334V118.924C120.036 116.448 122.05 114.434 124.526 114.434H127.681C130.157 114.434 132.171 116.448 132.171 118.924V124.334C132.171 125.343 131.798 126.311 131.12 127.057L128.962 129.433C128.643 129.646 128.433 130.009 128.433 130.421V134.252C128.433 134.907 128.963 135.438 129.618 135.438H134.123C136.275 135.438 138.068 136.997 138.435 139.046C135.952 140.257 134.236 142.807 134.236 145.751V154.374C134.236 155.029 134.767 155.559 135.422 155.559H166.026C166.681 155.559 167.211 155.029 167.211 154.374V145.751C167.211 142.83 165.521 140.297 163.069 139.075C163.424 137.012 165.224 135.438 167.386 135.438H171.891C172.546 135.438 173.076 134.907 173.076 134.252V130.421C173.076 130.009 172.866 129.645 172.546 129.433L170.389 127.057C169.711 126.311 169.337 125.343 169.337 124.334V118.924C169.337 116.448 171.352 114.434 173.827 114.434H176.983C179.459 114.434 181.473 116.448 181.473 118.924V124.334C181.473 125.343 181.099 126.311 180.421 127.057L178.264 129.433C177.944 129.646 177.734 130.009 177.734 130.421V134.252C177.734 134.907 178.265 135.438 178.919 135.438H183.424C185.841 135.438 187.806 137.403 187.806 139.82V146.29H170.754C170.099 146.29 169.568 146.821 169.568 147.476C169.568 148.131 170.099 148.661 170.754 148.661H188.992C189.647 148.661 190.177 148.131 190.177 147.476V139.82C190.177 136.096 187.148 133.067 183.425 133.067Z" fill="#4F4F4F"/>
<path d="M112.054 169.452L117.396 160.2L128.079 160.2L133.421 169.452L128.079 178.704L117.396 178.704L112.054 169.452Z" stroke="#4F4F4F" stroke-width="3"/>
<path d="M169.261 169.433L174.603 160.181L185.286 160.181L190.628 169.433L185.286 178.685L174.603 178.685L169.261 169.433Z" stroke="#4F4F4F" stroke-width="3"/>
<path d="M138.393 186.7L144.886 175.454L157.872 175.454L164.365 186.7L157.872 197.947L144.886 197.947L138.393 186.7Z" stroke="#4F4F4F" stroke-width="3"/>
</svg>
