<svg width="303" height="303" viewBox="0 0 303 303" fill="none" xmlns="http://www.w3.org/2000/svg">
<path d="M207.051 247.46L96.5518 247.46L41.3022 151.765L96.5518 56.0699L207.051 56.0699L262.301 151.765L207.051 247.46Z" fill="#E0E0E0"/>
<path d="M142.261 169.002H140.141V171.122H142.261V169.002Z" fill="#4F4F4F"/>
<path d="M171.95 171.122H170.89V132.953C170.89 130.61 168.991 128.712 166.649 128.712H160.287V120.229C160.287 117.887 158.388 115.988 156.046 115.988H126.359C124.017 115.988 122.118 117.887 122.118 120.229V128.712H115.756C113.414 128.712 111.515 130.61 111.515 132.953V171.122H110.455C109.869 171.122 109.395 171.597 109.395 172.182V175.363C109.395 177.705 111.293 179.604 113.636 179.604H168.769C171.112 179.604 173.01 177.705 173.01 175.363V172.182C173.01 171.597 172.536 171.122 171.95 171.122ZM124.238 120.229C124.238 119.058 125.188 118.109 126.359 118.109H156.046C157.217 118.109 158.167 119.058 158.167 120.229V124.471H124.238V120.229ZM124.238 126.591H158.167V157.339C158.167 158.51 157.217 159.459 156.046 159.459H126.359C125.188 159.459 124.238 158.51 124.238 157.339V126.591ZM126.359 161.58H156.046C158.388 161.58 160.287 159.681 160.287 157.339V135.073H164.528V164.761H117.877V135.073H122.118V157.339C122.118 159.681 124.017 161.58 126.359 161.58ZM113.636 132.953C113.636 131.781 114.585 130.832 115.756 130.832H122.118V132.953H116.816C116.231 132.953 115.756 133.427 115.756 134.013V165.821C115.756 166.406 116.231 166.881 116.816 166.881H165.589C166.174 166.881 166.649 166.406 166.649 165.821V134.013C166.649 133.427 166.174 132.953 165.589 132.953H160.287V130.832H166.649C167.82 130.832 168.769 131.781 168.769 132.953V171.122H150.745C150.464 171.122 150.194 171.233 149.995 171.432L148.185 173.243H134.22L132.41 171.432C132.211 171.233 131.941 171.122 131.66 171.122H113.636V132.953ZM170.89 175.363C170.89 176.534 169.941 177.484 168.769 177.484H113.636C112.464 177.484 111.515 176.534 111.515 175.363V173.243H131.221L133.031 175.053C133.23 175.251 133.499 175.363 133.781 175.363H148.624C148.906 175.363 149.175 175.251 149.374 175.053L151.184 173.243H170.89V175.363Z" fill="#4F4F4F"/>
<path d="M154.981 149.917H127.414V152.038H154.981V149.917Z" fill="#4F4F4F"/>
<path d="M152.86 154.158H127.414V156.279H152.86V154.158Z" fill="#4F4F4F"/>
<path d="M154.983 145.676H133.777V147.796H154.983V145.676Z" fill="#4F4F4F"/>
<path d="M128.476 120.23H126.355V122.35H128.476V120.23Z" fill="#4F4F4F"/>
<path d="M132.722 120.23H130.602V122.35H132.722V120.23Z" fill="#4F4F4F"/>
<path d="M136.964 120.23H134.844V122.35H136.964V120.23Z" fill="#4F4F4F"/>
<path d="M131.663 145.676H129.543V147.796H131.663V145.676Z" fill="#4F4F4F"/>
<path d="M137.594 133.801L136.321 132.104L132.08 135.285C131.612 135.637 131.517 136.301 131.868 136.77C131.929 136.85 132 136.921 132.08 136.982L136.321 140.163L137.594 138.466L134.484 136.133L137.594 133.801Z" fill="#4F4F4F"/>
<path d="M150.534 135.497C150.474 135.417 150.402 135.346 150.322 135.285L146.081 132.105L144.809 133.801L147.918 136.134L144.809 138.466L146.081 140.163L150.322 136.982C150.79 136.63 150.885 135.966 150.534 135.497Z" fill="#4F4F4F"/>
<path d="M142.336 130.44L138.094 141.042L140.062 141.83L144.305 131.228L142.336 130.44Z" fill="#4F4F4F"/>
<g clip-path="url(#clip0)">
<path d="M196.46 179.907C196.108 179.907 195.764 179.885 195.421 179.855V182.197H177.67V154.202H195.421V156.644C195.766 156.614 196.107 156.592 196.461 156.592C196.687 156.592 196.911 156.614 197.133 156.624V152.759C197.135 151.404 196.027 150.298 194.672 150.298H178.42C177.066 150.298 175.957 151.404 175.957 152.759V184.29C175.957 185.643 177.066 186.752 178.42 186.752H194.672C196.027 186.752 197.135 185.643 197.135 184.29V179.873C196.912 179.886 196.686 179.907 196.46 179.907ZM183.947 152.073H189.146C189.31 152.073 189.444 152.207 189.444 152.375C189.444 152.539 189.311 152.672 189.146 152.672H183.947C183.782 152.672 183.649 152.541 183.649 152.375C183.649 152.207 183.781 152.073 183.947 152.073ZM186.547 185.521C185.867 185.521 185.317 184.969 185.317 184.291C185.317 183.611 185.867 183.063 186.547 183.063C187.227 183.063 187.779 183.61 187.779 184.291C187.779 184.969 187.226 185.521 186.547 185.521ZM203.675 163.958C203.733 164.03 203.803 164.076 203.879 164.102L203.542 164.311L202.958 163.557L203.051 163.425C203.225 163.647 203.675 163.958 203.675 163.958ZM196.46 158.199C190.909 158.199 186.407 162.701 186.407 168.25C186.407 173.803 190.909 178.301 196.46 178.301C202.012 178.301 206.511 173.803 206.511 168.25C206.512 162.701 202.014 158.199 196.46 158.199ZM190.565 161.31C190.916 161.838 190.077 161.923 190.077 161.923C189.99 161.947 189.904 161.985 189.817 162.03C190.053 161.773 190.305 161.534 190.565 161.31ZM191.472 170.104C191.157 170.498 191.2 170.899 191.2 170.899C191.604 172.315 190.796 172.315 190.796 172.315C190.212 172.4 190.438 173.107 190.438 173.107C190.438 173.504 190.212 173.818 190.212 173.818C190.438 174.127 190.26 174.484 190.26 174.484C190.214 174.553 190.194 174.63 190.192 174.705C188.468 173.061 187.389 170.744 187.389 168.178C187.389 167.647 187.437 167.132 187.524 166.624C187.576 166.536 187.609 166.479 187.609 166.479L187.969 166.701C188.284 166.568 188.46 167.053 188.46 167.053C188.729 167.007 188.821 167.495 188.821 167.495C189.494 167.229 189.628 168.465 189.628 168.465C189.988 168.465 190.393 168.906 190.393 168.906C191.066 168.906 191.2 169.347 191.2 169.347C191.784 169.261 191.472 170.104 191.472 170.104ZM191.717 160.881C191.659 161.37 190.804 161.31 190.597 161.286C190.955 160.985 191.338 160.706 191.742 160.464L191.717 160.881ZM204.123 165.371C204.123 165.371 203.947 165.857 203.407 166.123C203.407 166.123 202.644 164.266 201.701 163.868C201.701 163.868 202.688 165.593 203.496 166.39C203.496 166.39 203.72 166.525 204.078 166.348C204.078 166.348 204.122 167.808 203.268 168.78C203.268 168.78 203.047 169.313 203.136 169.884C203.136 169.884 203.268 170.858 202.552 171.344C202.552 171.344 202.237 171.563 202.237 172.094C202.237 172.094 202.237 172.535 201.744 172.535C201.744 172.535 201.206 173.676 199.68 173.457C199.68 173.457 199.68 172.626 199.236 171.652C199.236 171.652 198.83 171.119 199.454 170.503C199.454 170.503 200.04 170.238 199.145 169.222C199.145 169.222 198.564 168.734 198.875 168.204C198.875 168.204 198.964 167.763 198.742 167.629C198.742 167.629 198.116 167.759 197.979 167.321C197.979 167.321 196.811 167.761 196.273 167.541C196.273 167.541 195.601 167.982 195.06 166.964C195.06 166.964 194.163 166.432 194.48 165.946C194.48 165.946 194.569 165.461 194.569 164.975C194.569 164.975 194.658 164.178 195.556 163.782C195.556 163.782 195.826 162.984 196.229 162.984C196.229 162.984 197.083 162.938 197.533 162.765C197.533 162.765 198.115 162.587 198.472 162.676C198.472 162.676 198.698 163.029 198.564 163.251C198.564 163.251 199.189 163.033 199.596 163.514C199.596 163.514 199.998 163.473 199.907 163.163C199.907 163.163 200.943 163.785 201.481 163.429C201.481 163.429 201.613 162.544 201.122 162.587C201.122 162.587 200.359 162.632 199.998 162.101C199.998 162.101 199.596 161.923 199.683 162.19C199.683 162.19 199.731 162.454 200.044 162.542C200.044 162.542 199.955 162.807 199.642 162.674C199.642 162.674 199.374 162.585 199.285 162.009C199.285 162.009 198.566 161.878 198.383 161.568C198.383 161.568 197.939 161.7 198.965 162.19C198.965 162.19 199.372 162.496 198.831 162.72C198.831 162.72 198.472 162.544 198.876 162.456C198.876 162.456 198.787 162.278 198.383 162.145C198.383 162.145 198.117 161.883 198.072 161.705C198.072 161.705 197.536 162.059 197.307 161.837C197.307 161.837 197.216 162.278 196.949 162.278C196.949 162.278 196.901 162.941 196.005 162.676H195.733C195.733 162.676 195.51 162.058 195.825 161.879C195.825 161.879 196.407 162.012 196.541 161.879C196.678 161.749 196.766 161.527 196.409 161.439C196.409 161.439 195.874 161.302 196.094 161.038C196.094 161.038 196.363 160.731 196.633 161.129C196.633 161.129 197.081 160.818 197.663 160.777C197.663 160.777 198.699 160.331 198.428 160.021C198.428 160.021 197.757 160.419 197.442 160.201C197.442 160.201 196.557 159.908 197.278 159.205C200.398 159.506 203.05 161.396 204.421 164.052C204.286 164.109 204.102 164.16 203.933 164.118C204.066 164.257 204.643 164.902 204.123 165.371Z" fill="#4F4F4F"/>
</g>
<defs>
<clipPath id="clip0">
<rect width="36.454" height="36.454" fill="white" transform="translate(173.008 150.298)"/>
</clipPath>
</defs>
</svg>
