<svg version="1.1" id="Gilbertsoft_TYPO3_Extension" xmlns="http://www.w3.org/2000/svg" xmlns:xlink="http://www.w3.org/1999/xlink"
     width="256" height="256" viewBox="0 0 256 256" overflow="visible" enable-background="new 0 0 256 256" xml:space="preserve">
<g id="Background">
	<rect x="-1.766" y="-2.271" fill="#004A99" width="260" height="260"/>
</g>
<g id="Gilbertsoft">
	<g>
		<path fill="#FFFFFF" d="M137.292,69.852L130.973,91.7c-9.233-6.046-20.839-9.075-34.806-9.075c-14.9,0-27.004,5.234-36.298,15.706
			c-8.945,10.007-13.415,22.646-13.415,37.911c0,10.354,3.211,18.99,9.63,25.894c6.65,7.141,15.202,10.708,25.664,10.708
			c6.38,0,10.508-0.405,12.381-1.229l7.024-33.264H74.55l4.132-19.821h50.969l-14.393,68.514c-8.961,3.738-20.161,5.61-33.614,5.61
			c-19.181,0-34.04-4.443-44.567-13.343c-11.232-9.543-16.847-23.682-16.847-42.413c0-22.765,6.867-40.857,20.602-54.254
			C54.458,69.42,72.666,62.8,95.46,62.8C111.184,62.802,125.129,65.157,137.292,69.852z"/>
		<path fill="#FFFFFF" d="M236.23,68.351l-5.985,20.773c-8.438-4.332-17.146-6.499-26.125-6.499c-5.387,0-10.025,1.048-13.896,3.151
			c-4.806,2.571-7.21,6.301-7.21,11.208c0,5.307,3.719,10.337,11.166,15.078c12.788,8.253,19.646,12.816,20.585,13.693
			c7.441,6.665,11.166,14.988,11.166,24.937c0,14.461-5.187,25.289-15.569,32.492c-8.964,6.317-21.012,9.472-36.125,9.472
			c-11.077,0-23.037-2.34-35.873-7.015l6.515-21.41c12.495,5.738,22.769,8.604,30.803,8.604c6.626,0,12.146-1.577,16.546-4.743
			c4.985-3.575,7.471-8.521,7.471-14.856c0-6.084-3.713-11.499-11.162-16.251c-6.861-4.267-13.72-8.539-20.58-12.813
			c-7.448-6.142-11.172-13.959-11.172-23.442c0-12.467,4.805-22.097,14.416-28.888c8.494-6.025,19.305-9.042,32.423-9.042
			C216.102,62.802,226.979,64.656,236.23,68.351z"/>
	</g>
</g>
</svg>
