<svg width="237" height="44" viewBox="0 0 237 44" fill="none" xmlns="http://www.w3.org/2000/svg">
<path d="M27 32H237V43H30.5897L27 32Z" fill="url(#paint0_linear)"/>
<path d="M107.836 26.5817C107.167 26.5817 106.513 26.5074 105.874 26.3588C105.243 26.2024 104.724 25.9952 104.316 25.7371L105.193 23.7194C105.578 23.9462 106.009 24.13 106.486 24.2708C106.963 24.4037 107.42 24.4702 107.859 24.4702C108.236 24.4702 108.505 24.435 108.667 24.3646C108.828 24.2864 108.909 24.173 108.909 24.0244C108.909 23.8524 108.801 23.7234 108.586 23.6373C108.378 23.5513 108.032 23.4575 107.547 23.3558C106.924 23.2228 106.405 23.0821 105.99 22.9335C105.574 22.7771 105.213 22.5268 104.905 22.1827C104.597 21.8308 104.443 21.3577 104.443 20.7633C104.443 20.2472 104.586 19.7779 104.87 19.3556C105.155 18.9333 105.578 18.601 106.14 18.3585C106.709 18.1161 107.397 17.9949 108.205 17.9949C108.759 17.9949 109.301 18.0574 109.832 18.1826C110.371 18.2999 110.844 18.4758 111.251 18.7104L110.432 20.7164C109.64 20.3097 108.89 20.1064 108.182 20.1064C107.482 20.1064 107.132 20.2784 107.132 20.6225C107.132 20.7868 107.236 20.9119 107.443 20.9979C107.651 21.0761 107.994 21.1622 108.47 21.256C109.086 21.3733 109.605 21.5102 110.028 21.6666C110.451 21.8152 110.817 22.0615 111.124 22.4056C111.44 22.7497 111.598 23.2189 111.598 23.8133C111.598 24.3294 111.455 24.7987 111.171 25.221C110.886 25.6355 110.459 25.9678 109.89 26.2181C109.328 26.4605 108.644 26.5817 107.836 26.5817Z" fill="#333333"/>
<path d="M120.912 18.1826C121.658 18.1826 122.308 18.3077 122.862 18.5579C123.416 18.8082 123.843 19.1679 124.143 19.6372C124.443 20.1064 124.593 20.6538 124.593 21.2795C124.593 21.9051 124.443 22.4525 124.143 22.9218C123.843 23.391 123.416 23.7507 122.862 24.001C122.308 24.2512 121.658 24.3764 120.912 24.3764H119.747V26.394H117.023V18.1826H120.912ZM120.739 22.2414C121.108 22.2414 121.385 22.1593 121.57 21.995C121.754 21.823 121.847 21.5845 121.847 21.2795C121.847 20.9745 121.754 20.7399 121.57 20.5756C121.385 20.4036 121.108 20.3175 120.739 20.3175H119.747V22.2414H120.739Z" fill="#333333"/>
<path d="M135.2 24.9629H132.131L131.588 26.394H128.819L132.35 18.1826H135.027L138.558 26.394H135.743L135.2 24.9629ZM134.45 22.9687L133.666 20.9041L132.881 22.9687H134.45Z" fill="#333333"/>
<path d="M147.673 26.5817C146.819 26.5817 146.05 26.4019 145.365 26.0421C144.68 25.6746 144.142 25.1662 143.749 24.5171C143.365 23.8602 143.172 23.1173 143.172 22.2883C143.172 21.4593 143.365 20.7203 143.749 20.0712C144.142 19.4143 144.68 18.906 145.365 18.5462C146.05 18.1787 146.819 17.9949 147.673 17.9949C148.457 17.9949 149.157 18.1356 149.773 18.4172C150.388 18.6987 150.896 19.1054 151.296 19.6372L149.577 21.1973C149.077 20.5561 148.488 20.2354 147.811 20.2354C147.242 20.2354 146.784 20.4231 146.438 20.7985C146.092 21.1661 145.919 21.6627 145.919 22.2883C145.919 22.9139 146.092 23.4144 146.438 23.7898C146.784 24.1574 147.242 24.3412 147.811 24.3412C148.488 24.3412 149.077 24.0205 149.577 23.3793L151.296 24.9394C150.896 25.4712 150.388 25.8779 149.773 26.1594C149.157 26.441 148.457 26.5817 147.673 26.5817Z" fill="#333333"/>
<path d="M163.413 24.306V26.394H156.698V18.1826H163.263V20.2706H159.375V21.2325H162.79V23.2268H159.375V24.306H163.413Z" fill="#333333"/>
<path d="M3.88864 18.5085C4.63483 18.5085 5.28486 18.6336 5.83873 18.8839C6.3926 19.1341 6.81955 19.4939 7.11956 19.9631C7.41957 20.4323 7.56958 20.9798 7.56958 21.6054C7.56958 22.231 7.41957 22.7785 7.11956 23.2477C6.81955 23.7169 6.3926 24.0766 5.83873 24.3269C5.28486 24.5772 4.63483 24.7023 3.88864 24.7023H2.7232V26.72H0V18.5085H3.88864ZM3.71556 22.5673C4.0848 22.5673 4.36174 22.4852 4.54636 22.321C4.73099 22.1489 4.8233 21.9104 4.8233 21.6054C4.8233 21.3004 4.73099 21.0658 4.54636 20.9015C4.36174 20.7295 4.0848 20.6435 3.71556 20.6435H2.7232V22.5673H3.71556Z" fill="#2D9CDB"/>
<path d="M18.1767 25.2888H15.1073L14.565 26.72H11.7956L15.3266 18.5085H18.0036L21.5346 26.72H18.719L18.1767 25.2888ZM17.4267 23.2946L16.642 21.23L15.8574 23.2946H17.4267Z" fill="#2D9CDB"/>
<path d="M30.0465 24.6554H29.308V26.72H26.5848V18.5085H30.4734C31.2196 18.5085 31.8696 18.6336 32.4235 18.8839C32.9774 19.1341 33.4043 19.4939 33.7043 19.9631C34.0043 20.4323 34.1543 20.9798 34.1543 21.6054C34.1543 22.1919 34.0236 22.7042 33.762 23.1421C33.5005 23.58 33.1235 23.9281 32.6312 24.1861L34.3274 26.72H31.4196L30.0465 24.6554ZM31.4081 21.6054C31.4081 21.3004 31.3157 21.0658 31.1311 20.9015C30.9465 20.7295 30.6696 20.6435 30.3003 20.6435H29.308V22.5673H30.3003C30.6696 22.5673 30.9465 22.4852 31.1311 22.321C31.3157 22.1489 31.4081 21.9104 31.4081 21.6054Z" fill="#2D9CDB"/>
<path d="M41.4395 20.6552H39.074V18.5085H46.5282V20.6552H44.1627V26.72H41.4395V20.6552Z" fill="#2D9CDB"/>
<path d="M59.813 18.5085V26.72H57.5744L54.5051 22.9896V26.72H51.8511V18.5085H54.0897L57.159 22.2388V18.5085H59.813Z" fill="#2D9CDB"/>
<path d="M72.4564 24.6319V26.72H65.7407V18.5085H72.3064V20.5965H68.4178V21.5585H71.8333V23.5527H68.4178V24.6319H72.4564Z" fill="#2D9CDB"/>
<path d="M81.582 24.6554H80.8436V26.72H78.1203V18.5085H82.009C82.7552 18.5085 83.4052 18.6336 83.9591 18.8839C84.5129 19.1341 84.9399 19.4939 85.2399 19.9631C85.5399 20.4323 85.6899 20.9798 85.6899 21.6054C85.6899 22.1919 85.5592 22.7042 85.2976 23.1421C85.0361 23.58 84.6591 23.9281 84.1668 24.1861L85.863 26.72H82.9552L81.582 24.6554ZM82.9436 21.6054C82.9436 21.3004 82.8513 21.0658 82.6667 20.9015C82.4821 20.7295 82.2051 20.6435 81.8359 20.6435H80.8436V22.5673H81.8359C82.2051 22.5673 82.4821 22.4852 82.6667 22.321C82.8513 22.1489 82.9436 21.9104 82.9436 21.6054Z" fill="#2D9CDB"/>
<path d="M94.3455 26.9076C93.6763 26.9076 93.0224 26.8334 92.3839 26.6848C91.7531 26.5284 91.2338 26.3211 90.8261 26.063L91.7031 24.0454C92.0877 24.2722 92.5185 24.4559 92.9955 24.5967C93.4724 24.7297 93.9301 24.7961 94.3686 24.7961C94.7455 24.7961 95.0148 24.7609 95.1763 24.6906C95.3379 24.6123 95.4186 24.499 95.4186 24.3504C95.4186 24.1783 95.311 24.0493 95.0956 23.9633C94.8879 23.8772 94.5417 23.7834 94.0571 23.6817C93.4339 23.5488 92.9147 23.408 92.4993 23.2594C92.0839 23.103 91.7223 22.8527 91.4146 22.5086C91.1069 22.1567 90.9531 21.6836 90.9531 21.0892C90.9531 20.5731 91.0954 20.1039 91.38 19.6816C91.6646 19.2593 92.0877 18.9269 92.6493 18.6845C93.2186 18.442 93.907 18.3208 94.7148 18.3208C95.2686 18.3208 95.811 18.3834 96.3418 18.5085C96.8803 18.6258 97.3534 18.8018 97.7611 19.0364L96.9418 21.0423C96.1495 20.6357 95.3994 20.4323 94.6917 20.4323C93.9917 20.4323 93.6416 20.6044 93.6416 20.9485C93.6416 21.1127 93.7455 21.2378 93.9532 21.3239C94.1609 21.4021 94.5032 21.4881 94.9802 21.5819C95.5956 21.6992 96.1148 21.8361 96.5379 21.9925C96.961 22.1411 97.3264 22.3874 97.6341 22.7315C97.9495 23.0756 98.1072 23.5449 98.1072 24.1392C98.1072 24.6554 97.9649 25.1246 97.6803 25.5469C97.3957 25.9614 96.9687 26.2937 96.3995 26.544C95.8379 26.7864 95.1533 26.9076 94.3455 26.9076Z" fill="#2D9CDB"/>
<path d="M16.5344 0L9.64307 29.9784L25.1886 43.99L16.5344 0Z" fill="#333333"/>
<path d="M35.4136 40.6775V34.8379H36.7225C37.3005 34.8379 37.7606 35.0545 38.1028 35.4876C38.4473 35.9208 38.623 36.5144 38.6298 37.2684V38.2149C38.6298 38.9823 38.4575 39.5852 38.113 40.0237C37.7708 40.4596 37.2982 40.6775 36.6953 40.6775H35.4136ZM36.4131 35.8205V39.6989H36.7123C37.0455 39.6989 37.2801 39.5959 37.416 39.39C37.552 39.1815 37.6234 38.8232 37.6302 38.3152V37.3005C37.6302 36.755 37.5656 36.3753 37.4364 36.1614C37.3073 35.9449 37.0874 35.8312 36.7769 35.8205H36.4131Z" fill="white"/>
<path d="M46.0947 39.4823H44.7314L44.4662 40.6775H43.4089L44.9558 34.8379H45.8704L47.4275 40.6775H46.3599L46.0947 39.4823ZM44.949 38.4997H45.8738L45.4114 36.4181L44.949 38.4997Z" fill="white"/>
<path d="M54.4403 39.1454C54.4403 38.9074 54.3881 38.7283 54.2839 38.608C54.1819 38.485 53.9949 38.358 53.7229 38.2269C53.2265 38.005 52.8696 37.7457 52.652 37.4489C52.4344 37.1494 52.3256 36.7965 52.3256 36.39C52.3256 35.8981 52.4729 35.5037 52.7676 35.2069C53.0645 34.9074 53.4407 34.7577 53.8963 34.7577C54.2 34.7577 54.4709 34.8339 54.7088 34.9863C54.9468 35.136 55.1293 35.3486 55.2562 35.624C55.3854 35.8994 55.45 36.2122 55.45 36.5625H54.4539C54.4539 36.2898 54.404 36.0826 54.3043 35.9408C54.2068 35.7965 54.0652 35.7243 53.8793 35.7243C53.7048 35.7243 53.5688 35.7858 53.4713 35.9088C53.3739 36.0291 53.3251 36.1922 53.3251 36.3981C53.3251 36.5585 53.3795 36.7042 53.4883 36.8352C53.5971 36.9636 53.7898 37.0973 54.0663 37.2363C54.5491 37.4422 54.8992 37.6949 55.1168 37.9943C55.3367 38.2938 55.4466 38.6748 55.4466 39.1374C55.4466 39.6454 55.3095 40.0424 55.0352 40.3285C54.761 40.6146 54.3881 40.7577 53.9167 40.7577C53.5971 40.7577 53.3059 40.6802 53.043 40.5251C52.78 40.37 52.5738 40.1481 52.4242 39.8593C52.2769 39.5705 52.2032 39.2296 52.2032 38.8366H53.2061C53.2061 39.1735 53.2617 39.4181 53.3727 39.5705C53.4838 39.7229 53.6651 39.7991 53.9167 39.7991C54.2657 39.7991 54.4403 39.5812 54.4403 39.1454Z" fill="white"/>
<path d="M64.0369 40.6775H63.0408V38.1788H61.5653V40.6775H60.5657V34.8379H61.5653V37.2002H63.0408V34.8379H64.0369V40.6775Z" fill="white"/>
<path d="M69.2988 40.6775V34.8379H70.8287C71.3455 34.8379 71.7376 34.9743 72.005 35.247C72.2748 35.517 72.4096 35.9141 72.4096 36.4382C72.4096 36.735 72.3541 36.9903 72.243 37.2042C72.132 37.4181 71.9801 37.5745 71.7875 37.6735C72.0096 37.7483 72.1807 37.8994 72.3008 38.1267C72.421 38.3513 72.481 38.6293 72.481 38.9609C72.481 39.5277 72.3484 39.9556 72.0832 40.2443C71.8203 40.5331 71.4384 40.6775 70.9375 40.6775H69.2988ZM70.2984 38.1387V39.6989H70.9375C71.1166 39.6989 71.2526 39.6334 71.3455 39.5023C71.4384 39.3713 71.4849 39.1855 71.4849 38.9449C71.4849 38.4208 71.324 38.1521 71.0021 38.1387H70.2984ZM70.2984 37.2804H70.8185C71.2106 37.2804 71.4067 37.0411 71.4067 36.5625C71.4067 36.2978 71.3614 36.108 71.2707 35.993C71.18 35.878 71.0327 35.8205 70.8287 35.8205H70.2984V37.2804Z" fill="white"/>
<path d="M81.1495 38.2831C81.1495 39.0665 80.992 39.6748 80.6769 40.108C80.3642 40.5411 79.929 40.7577 79.3714 40.7577C78.8161 40.7577 78.3798 40.5438 78.0625 40.116C77.7452 39.6855 77.5843 39.0839 77.5797 38.3112V37.3125C77.5797 36.5104 77.7373 35.8847 78.0523 35.4355C78.3674 34.9836 78.8048 34.7577 79.3646 34.7577C79.9154 34.7577 80.3494 34.9796 80.6667 35.4235C80.9841 35.8646 81.145 36.485 81.1495 37.2844V38.2831ZM80.1466 37.3045C80.1466 36.7777 80.0831 36.386 79.9562 36.1293C79.8293 35.8727 79.6321 35.7443 79.3646 35.7443C79.0994 35.7443 78.9034 35.8687 78.7765 36.1173C78.6495 36.3633 78.5838 36.739 78.5793 37.2443V38.2831C78.5793 38.7938 78.6439 39.1708 78.7731 39.4141C78.9023 39.6547 79.1017 39.7751 79.3714 39.7751C79.6321 39.7751 79.8259 39.6574 79.9528 39.4221C80.0797 39.1842 80.1443 38.8165 80.1466 38.3192V37.3045Z" fill="white"/>
<path d="M88.6111 39.4823H87.2478L86.9826 40.6775H85.9253L87.4722 34.8379H88.3867L89.9438 40.6775H88.8763L88.6111 39.4823ZM87.4654 38.4997H88.3901L87.9277 36.4181L87.4654 38.4997Z" fill="white"/>
<path d="M96.365 38.5438H95.8687V40.6775H94.8691V34.8379H96.4636C96.9645 34.8379 97.351 34.9916 97.623 35.2991C97.8972 35.6039 98.0343 36.0384 98.0343 36.6026C98.0343 37.378 97.7952 37.9208 97.317 38.231L98.1839 40.6213V40.6775H97.1096L96.365 38.5438ZM95.8687 37.5612H96.4364C96.6359 37.5612 96.7855 37.4836 96.8852 37.3285C96.9849 37.1708 97.0348 36.9609 97.0348 36.6989C97.0348 36.1133 96.841 35.8205 96.4534 35.8205H95.8687V37.5612Z" fill="white"/>
<path d="M103.177 40.6775V34.8379H104.486C105.064 34.8379 105.524 35.0545 105.866 35.4876C106.211 35.9208 106.387 36.5144 106.393 37.2684V38.2149C106.393 38.9823 106.221 39.5852 105.877 40.0237C105.534 40.4596 105.062 40.6775 104.459 40.6775H103.177ZM104.177 35.8205V39.6989H104.476C104.809 39.6989 105.044 39.5959 105.18 39.39C105.316 39.1815 105.387 38.8232 105.394 38.3152V37.3005C105.394 36.755 105.329 36.3753 105.2 36.1614C105.071 35.9449 104.851 35.8312 104.541 35.8205H104.177Z" fill="white"/>
<path d="M118.631 38.624V40.6775H117.631V34.8379H119.318C119.807 34.8379 120.197 35.017 120.487 35.3753C120.779 35.7336 120.926 36.1989 120.926 36.7711C120.926 37.3433 120.782 37.7951 120.494 38.1267C120.206 38.4582 119.807 38.624 119.297 38.624H118.631ZM118.631 37.6414H119.318C119.508 37.6414 119.655 37.5679 119.76 37.4208C119.864 37.2737 119.916 37.0598 119.916 36.7791C119.916 36.4876 119.863 36.2564 119.756 36.0852C119.65 35.9114 119.507 35.8232 119.328 35.8205H118.631V37.6414Z" fill="white"/>
<path d="M127.809 39.4823H126.446L126.181 40.6775H125.123L126.67 34.8379H127.585L129.142 40.6775H128.074L127.809 39.4823ZM126.664 38.4997H127.588L127.126 36.4181L126.664 38.4997Z" fill="white"/>
<path d="M137.525 40.6775H136.525L135.063 36.8473V40.6775H134.064V34.8379H135.063L136.529 38.6721V34.8379H137.525V40.6775Z" fill="white"/>
<path d="M145.34 38.1507H143.783V39.6989H145.626V40.6775H142.783V34.8379H145.619V35.8205H143.783V37.2002H145.34V38.1507Z" fill="white"/>
<path d="M151.659 39.6989H153.414V40.6775H150.66V34.8379H151.659V39.6989Z" fill="white"/>
<defs>
<linearGradient id="paint0_linear" x1="132" y1="43.0001" x2="237" y2="43.0001" gradientUnits="userSpaceOnUse">
<stop stop-color="#2D9CDB"/>
<stop offset="1" stop-color="#2D9CDB" stop-opacity="0"/>
</linearGradient>
</defs>
</svg>
