<svg width="403" height="107" viewBox="0 0 403 107" fill="none" xmlns="http://www.w3.org/2000/svg">
<path d="M265.938 64.5549C264.288 64.5549 262.675 64.3745 261.1 64.0136C259.545 63.6338 258.264 63.1305 257.259 62.5037L259.422 57.6037C260.37 58.1544 261.432 58.6008 262.609 58.9426C263.785 59.2655 264.914 59.4269 265.995 59.4269C266.925 59.4269 267.589 59.3415 267.987 59.1705C268.385 58.9806 268.585 58.7052 268.585 58.3444C268.585 57.9265 268.319 57.6132 267.788 57.4042C267.276 57.1953 266.422 56.9674 265.227 56.7205C263.69 56.3976 262.409 56.0558 261.385 55.6949C260.361 55.3151 259.469 54.7073 258.71 53.8716C257.951 53.017 257.572 51.8679 257.572 50.4245C257.572 49.171 257.923 48.0315 258.625 47.0059C259.327 45.9803 260.37 45.1731 261.755 44.5843C263.159 43.9956 264.857 43.7012 266.849 43.7012C268.215 43.7012 269.552 43.8531 270.861 44.157C272.189 44.4419 273.356 44.8692 274.361 45.439L272.341 50.3105C270.387 49.3229 268.537 48.8291 266.792 48.8291C265.065 48.8291 264.202 49.247 264.202 50.0826C264.202 50.4815 264.458 50.7854 264.971 50.9943C265.483 51.1842 266.327 51.3931 267.503 51.621C269.021 51.9059 270.301 52.2383 271.345 52.6181C272.388 52.979 273.289 53.5773 274.048 54.4129C274.826 55.2486 275.215 56.3881 275.215 57.8316C275.215 59.0851 274.864 60.2246 274.162 61.2502C273.46 62.2568 272.407 63.064 271.003 63.6717C269.618 64.2605 267.93 64.5549 265.938 64.5549Z" fill="#333333"/>
<path d="M298.186 44.157C300.026 44.157 301.629 44.4609 302.995 45.0686C304.361 45.6764 305.414 46.55 306.154 47.6896C306.894 48.8291 307.264 50.1586 307.264 51.678C307.264 53.1974 306.894 54.5269 306.154 55.6664C305.414 56.806 304.361 57.6796 302.995 58.2874C301.629 58.8951 300.026 59.199 298.186 59.199H295.312V64.0991H288.596V44.157H298.186ZM297.759 54.0141C298.67 54.0141 299.353 53.8147 299.808 53.4158C300.263 52.998 300.491 52.4187 300.491 51.678C300.491 50.9373 300.263 50.3675 299.808 49.9687C299.353 49.5509 298.67 49.3419 297.759 49.3419H295.312V54.0141H297.759Z" fill="#333333"/>
<path d="M333.422 60.6235H325.853L324.515 64.0991H317.686L326.394 44.157H332.995L341.703 64.0991H334.76L333.422 60.6235ZM331.573 55.7804L329.638 50.7664L327.703 55.7804H331.573Z" fill="#333333"/>
<path d="M364.181 64.5549C362.075 64.5549 360.178 64.1181 358.49 63.2444C356.801 62.3518 355.473 61.1173 354.506 59.5409C353.557 57.9455 353.083 56.1412 353.083 54.128C353.083 52.1148 353.557 50.32 354.506 48.7437C355.473 47.1483 356.801 45.9138 358.49 45.0401C360.178 44.1475 362.075 43.7012 364.181 43.7012C366.116 43.7012 367.843 44.043 369.36 44.7268C370.878 45.4105 372.13 46.3981 373.117 47.6896L368.877 51.4786C367.643 49.9212 366.192 49.1425 364.523 49.1425C363.119 49.1425 361.99 49.5983 361.136 50.51C360.283 51.4026 359.856 52.6086 359.856 54.128C359.856 55.6474 360.283 56.8629 361.136 57.7746C361.99 58.6672 363.119 59.1136 364.523 59.1136C366.192 59.1136 367.643 58.3349 368.877 56.7775L373.117 60.5665C372.13 61.858 370.878 62.8456 369.36 63.5293C367.843 64.213 366.116 64.5549 364.181 64.5549Z" fill="#333333"/>
<path d="M403 59.0281V64.0991H386.438V44.157H402.63V49.228H393.04V51.5641H401.464V56.4071H393.04V59.0281H403Z" fill="#333333"/>
<path d="M9.58992 44.9487C11.4301 44.9487 13.0332 45.2526 14.3991 45.8604C15.765 46.4681 16.8179 47.3418 17.5578 48.4813C18.2977 49.6209 18.6676 50.9504 18.6676 52.4698C18.6676 53.9892 18.2977 55.3186 17.5578 56.4582C16.8179 57.5977 15.765 58.4714 14.3991 59.0791C13.0332 59.6869 11.4301 59.9908 9.58992 59.9908H6.71579V64.8908H0V44.9487H9.58992ZM9.16306 54.8058C10.0737 54.8058 10.7566 54.6064 11.212 54.2076C11.6673 53.7897 11.8949 53.2105 11.8949 52.4698C11.8949 51.729 11.6673 51.1593 11.212 50.7604C10.7566 50.3426 10.0737 50.1337 9.16306 50.1337H6.71579V54.8058H9.16306Z" fill="#005788"/>
<path d="M44.8262 61.4152H37.2567L35.9193 64.8908H29.0897L37.7974 44.9487H44.3994L53.1071 64.8908H46.1637L44.8262 61.4152ZM42.9765 56.5721L41.0415 51.5581L39.1064 56.5721H42.9765Z" fill="#005788"/>
<path d="M74.0986 59.8768H72.2774V64.8908H65.5616V44.9487H75.1516C76.9918 44.9487 78.5948 45.2526 79.9607 45.8604C81.3267 46.4681 82.3796 47.3418 83.1194 48.4813C83.8593 49.6209 84.2292 50.9504 84.2292 52.4698C84.2292 53.8942 83.9067 55.1382 83.2617 56.2018C82.6167 57.2653 81.6871 58.1105 80.473 58.7373L84.6561 64.8908H77.485L74.0986 59.8768ZM77.4565 52.4698C77.4565 51.729 77.2289 51.1593 76.7736 50.7604C76.3183 50.3426 75.6353 50.1337 74.7247 50.1337H72.2774V54.8058H74.7247C75.6353 54.8058 76.3183 54.6064 76.7736 54.2076C77.2289 53.7897 77.4565 53.2105 77.4565 52.4698Z" fill="#005788"/>
<path d="M102.195 50.1622H96.3618V44.9487H114.745V50.1622H108.911V64.8908H102.195V50.1622Z" fill="#005788"/>
<path d="M147.507 44.9487V64.8908H141.986L134.417 55.8314V64.8908H127.872V44.9487H133.392L140.962 54.0081V44.9487H147.507Z" fill="#005788"/>
<path d="M178.687 59.8198V64.8908H162.126V44.9487H178.317V50.0197H168.727V52.3558H177.151V57.1989H168.727V59.8198H178.687Z" fill="#005788"/>
<path d="M201.192 59.8768H199.371V64.8908H192.655V44.9487H202.245C204.085 44.9487 205.689 45.2526 207.054 45.8604C208.42 46.4681 209.473 47.3418 210.213 48.4813C210.953 49.6209 211.323 50.9504 211.323 52.4698C211.323 53.8942 211 55.1382 210.355 56.2018C209.71 57.2653 208.781 58.1105 207.567 58.7373L211.75 64.8908H204.579L201.192 59.8768ZM204.55 52.4698C204.55 51.729 204.323 51.1593 203.867 50.7604C203.412 50.3426 202.729 50.1337 201.818 50.1337H199.371V54.8058H201.818C202.729 54.8058 203.412 54.6064 203.867 54.2076C204.323 53.7897 204.55 53.2105 204.55 52.4698Z" fill="#005788"/>
<path d="M232.669 65.3466C231.018 65.3466 229.406 65.1662 227.831 64.8054C226.276 64.4255 224.995 63.9222 223.99 63.2955L226.152 58.3954C227.101 58.9462 228.163 59.3925 229.339 59.7344C230.516 60.0572 231.644 60.2187 232.726 60.2187C233.655 60.2187 234.319 60.1332 234.718 59.9623C235.116 59.7724 235.315 59.497 235.315 59.1361C235.315 58.7183 235.05 58.4049 234.519 58.196C234.006 57.9871 233.153 57.7592 231.957 57.5123C230.421 57.1894 229.14 56.8475 228.116 56.4867C227.091 56.1068 226.2 55.4991 225.441 54.6634C224.682 53.8087 224.303 52.6597 224.303 51.2163C224.303 49.9627 224.654 48.8232 225.355 47.7976C226.057 46.772 227.101 45.9648 228.486 45.3761C229.89 44.7873 231.588 44.4929 233.579 44.4929C234.945 44.4929 236.283 44.6449 237.592 44.9487C238.92 45.2336 240.087 45.661 241.092 46.2307L239.072 51.1023C237.118 50.1147 235.268 49.6209 233.523 49.6209C231.796 49.6209 230.933 50.0387 230.933 50.8744C230.933 51.2732 231.189 51.5771 231.701 51.786C232.214 51.9759 233.058 52.1849 234.234 52.4128C235.752 52.6977 237.032 53.03 238.076 53.4099C239.119 53.7707 240.02 54.369 240.779 55.2047C241.557 56.0403 241.946 57.1799 241.946 58.6233C241.946 59.8768 241.595 61.0164 240.893 62.042C240.191 63.0486 239.138 63.8557 237.734 64.4635C236.349 65.0523 234.661 65.3466 232.669 65.3466Z" fill="#005788"/>
<path d="M40.7767 0L23.7817 72.8045L62.1192 106.833L40.7767 0Z" fill="#333333"/>
</svg>
