<svg width="20" height="19" viewBox="0 0 20 19" fill="none" xmlns="http://www.w3.org/2000/svg">
<path d="M9.87394 5.506L11.6298 6.07047C11.7703 6.09688 11.8403 6.19211 11.8398 6.35618C11.8396 6.42649 11.8042 6.49606 11.7337 6.56488C11.6867 6.61077 11.6163 6.63272 11.5226 6.63074L10.3979 6.60698C10.2573 6.60401 10.1285 6.57785 10.0114 6.5285C9.82426 6.43079 9.66017 6.45076 9.51914 6.58841L8.9198 7.17344C8.82579 7.26521 8.77857 7.38141 8.77814 7.52203C8.77771 7.66266 8.83597 7.76936 8.95292 7.84215C9.28033 8.06002 9.65485 8.19684 10.0765 8.25263L10.0746 8.88544C10.0741 9.0495 10.1205 9.19112 10.2139 9.31028C10.3308 9.40651 10.4712 9.45635 10.6352 9.45982L11.1976 9.4717C11.3616 9.47517 11.4906 9.43101 11.5847 9.33924C11.7022 9.22453 11.7612 9.08515 11.7617 8.92108L11.7636 8.28828C12.3027 8.25279 12.7369 8.02757 13.0662 7.61263C13.4191 7.17475 13.5612 6.67381 13.4926 6.10983C13.447 5.7104 13.284 5.3671 13.0036 5.07991C12.7234 4.76928 12.3843 4.55116 11.9863 4.42556L10.2305 3.86109C10.0899 3.83468 10.0199 3.73945 10.0204 3.57539C10.0206 3.50507 10.0442 3.44698 10.0913 3.40109C10.1618 3.33226 10.2439 3.29884 10.3376 3.30082L11.4624 3.32458C11.603 3.32755 11.7318 3.35371 11.8488 3.40306C12.036 3.50077 12.2 3.4808 12.3411 3.34315L12.9404 2.75812C13.0344 2.66635 13.0699 2.54991 13.0469 2.40879C13.0474 2.26816 13.0008 2.1617 12.9073 2.08941C12.5799 1.87154 12.2054 1.73472 11.7837 1.67893L11.7857 1.04612C11.7861 0.88206 11.728 0.751917 11.6111 0.655692C11.5177 0.536524 11.389 0.475208 11.225 0.471743L10.6626 0.459861C10.4986 0.456395 10.3578 0.512019 10.2403 0.62673C10.1463 0.718499 10.099 0.846415 10.0985 1.01048L10.0966 1.64329C9.55752 1.67877 9.11155 1.91546 8.75872 2.35335C8.42938 2.76829 8.299 3.25775 8.36759 3.82173C8.41324 4.22116 8.5762 4.57618 8.85646 4.88681C9.13679 5.174 9.47595 5.3804 9.87394 5.506ZM19.5552 12.1797C19.3683 11.9882 19.1343 11.8895 18.8531 11.8836C18.5954 11.8781 18.3607 11.9669 18.1493 12.15L15.0483 14.6862C14.6724 15.0064 14.2384 15.1613 13.7463 15.1509L9.8097 15.0677C9.66911 15.0647 9.54037 15.0151 9.42349 14.9189C9.33012 14.7998 9.28369 14.6581 9.28418 14.4941C9.28468 14.33 9.33194 14.2021 9.42595 14.1103C9.54347 13.9956 9.67253 13.9397 9.81312 13.9427L12.4141 13.9977C12.6719 14.0031 12.9064 13.926 13.1178 13.7664C13.3293 13.5834 13.4589 13.3517 13.5066 13.0715C13.5779 12.7448 13.4968 12.4501 13.2632 12.1874C13.0532 11.9017 12.7842 11.7554 12.4561 11.7484L7.14869 11.6363C6.23483 11.617 5.41377 11.9043 4.68552 12.4984L3.17007 13.8024L1.30721 13.763C1.16661 13.76 1.03756 13.8159 0.920041 13.9306C0.826027 14.0224 0.77877 14.1503 0.778271 14.3144L0.768001 17.6894C0.767502 17.8534 0.813974 17.9833 0.907418 18.079C1.02422 18.1987 1.15292 18.26 1.29352 18.263L13.1385 18.5132C13.6306 18.5236 14.0763 18.369 14.4757 18.0493L19.5148 13.9016C19.7498 13.6956 19.8678 13.4168 19.8689 13.0653C19.8934 12.7142 19.7888 12.419 19.5552 12.1797Z" fill="white"/>
</svg>
