<?xml version="1.0" standalone="no"?>
<!DOCTYPE svg PUBLIC "-//W3C//DTD SVG 20010904//EN"
 "http://www.w3.org/TR/2001/REC-SVG-20010904/DTD/svg10.dtd">
<svg version="1.0" xmlns="http://www.w3.org/2000/svg"
 width="108.000000pt" height="108.000000pt" viewBox="0 0 108.000000 108.000000"
 preserveAspectRatio="xMidYMid meet">
<metadata>
Created by potrace 1.11, written by Peter Selinger 2001-2013
</metadata>
<g transform="translate(0.000000,108.000000) scale(0.100000,-0.100000)"
fill="#000000" stroke="none">
<path d="M7 1011 c-3 -6 -1 -887 2 -903 0 -5 46 -8 101 -8 l100 0 0 160 c0 88
3 161 8 161 4 1 61 2 127 3 136 3 191 11 252 37 42 18 43 18 113 -6 135 -46
170 -77 170 -150 0 -67 -61 -104 -162 -99 -93 5 -141 38 -159 110 l-11 44 -94
0 -93 0 5 -42 c25 -190 235 -303 474 -258 152 29 244 136 233 271 -10 124 -96
213 -258 269 l-50 17 0 89 c-1 65 -5 98 -18 122 l-18 32 27 0 c36 0 92 -28
106 -54 6 -11 14 -34 17 -50 6 -29 7 -29 86 -30 113 -2 113 -2 105 47 -17 111
-111 206 -230 233 -57 12 -171 12 -223 -2 -40 -10 -61 -10 -115 1 -68 13 -489
19 -495 6z m398 -152 c3 -3 0 -20 -6 -38 -18 -52 -5 -137 30 -192 l30 -49 -52
-1 c-72 -1 -148 -1 -174 0 -23 1 -23 3 -23 140 0 96 4 141 11 143 18 6 177 3
184 -3z"/>
</g>
</svg>
